<?xml version="1.0" standalone="no"?>
<!DOCTYPE svg PUBLIC "-//W3C//DTD SVG 1.1//EN" "http://www.w3.org/Graphics/SVG/1.1/DTD/svg11.dtd" >
<svg xmlns="http://www.w3.org/2000/svg">
<metadata></metadata>
<defs>
<font id="klinic_slablight" horiz-adv-x="1447" >
<font-face units-per-em="2048" ascent="1536" descent="-512" />
<missing-glyph horiz-adv-x="473" />
<glyph unicode="&#xfb01;" horiz-adv-x="1083" d="M51 799v61h189v346q0 264 317 264q137 0 274 -40l-12 -56q-149 35 -258 35q-56 0 -98.5 -9.5t-79 -32t-55.5 -65t-19 -104.5v-338h570v-799h174v-61h-418v61h174v738h-500v-738h207v-61h-450v61h174v738h-189z" />
<glyph unicode="&#xfb02;" horiz-adv-x="1083" d="M51 799v61h189v346q0 264 317 264q97 0 201 -22h121v-1387h174v-61h-418v61h174v1315q-140 33 -248 33q-56 0 -98.5 -9.5t-79 -32t-55.5 -65t-19 -104.5v-338h264v-61h-264v-738h207v-61h-450v61h174v738h-189z" />
<glyph unicode="&#xfb03;" horiz-adv-x="1652" d="M51 799v61h189v299q0 75 25.5 132.5t71 91t102.5 50.5t124 17q125 0 301 -70q78 90 262 90q138 0 275 -40l-12 -56q-149 35 -259 35q-117 0 -184 -46.5t-67 -164.5v-338h569v-799h174v-61h-418v61h174v738h-499v-738h206v-61h-450v61h174v738h-500v-738h207v-61h-450v61 h174v738h-189zM309 860h500v346q0 71 25 123q-147 60 -271 60q-114 0 -184 -58.5t-70 -179.5v-291z" />
<glyph unicode="&#xfb04;" horiz-adv-x="1652" d="M51 799v61h189v299q0 75 25.5 132.5t71 91t102.5 50.5t124 17q125 0 301 -70q78 90 262 90q96 0 201 -22h121v-1387h174v-61h-418v61h174v1315q-140 33 -248 33q-117 0 -184 -46.5t-67 -164.5v-338h264v-61h-264v-738h206v-61h-450v61h174v738h-500v-738h207v-61h-450v61 h174v738h-189zM309 860h500v346q0 71 25 123q-147 60 -271 60q-114 0 -184 -58.5t-70 -179.5v-291z" />
<glyph horiz-adv-x="2048" />
<glyph horiz-adv-x="2048" />
<glyph unicode="&#xd;" horiz-adv-x="2048" />
<glyph unicode=" "  horiz-adv-x="473" />
<glyph unicode="&#x09;" horiz-adv-x="473" />
<glyph unicode="&#xa0;" horiz-adv-x="473" />
<glyph unicode="!" horiz-adv-x="458" d="M162 53q0 28 19.5 48t47.5 20t48 -20t20 -48q0 -29 -20 -49t-48 -20t-47.5 20t-19.5 49zM188 1247h82l-18 -940h-45z" />
<glyph unicode="&#x22;" horiz-adv-x="610" d="M133 879v395h72v-395h-72zM406 879v395h71v-395h-71z" />
<glyph unicode="#" horiz-adv-x="1114" d="M82 285v55h225l55 375h-217v57h226l39 260h59l-39 -260h324l39 260h59l-39 -260h217v-57h-225l-55 -375h219v-55h-230l-37 -260h-59l39 260h-324l-39 -260h-59l39 260h-217zM367 340h323l55 375h-323z" />
<glyph unicode="$" horiz-adv-x="851" d="M78 147q0 26 17 45t46 19q28 0 46 -19.5t18 -46.5q0 -25 -17 -45q93 -49 228 -55v418q-48 17 -76.5 28t-70 30t-65.5 38t-48.5 45.5t-35.5 59.5t-11 73q0 114 88 178.5t219 67.5v156h37v-156q116 -5 205.5 -51t89.5 -105q0 -25 -17 -43t-45 -18q-29 0 -48.5 18.5 t-19.5 44.5q0 28 17 48q-77 42 -182 47v-406q56 -19 91.5 -32.5t81 -39t71.5 -52t44.5 -67.5t18.5 -91q0 -115 -85.5 -180t-221.5 -70v-215h-37v215q-128 5 -233 51t-105 110zM170 743q0 -28 8 -52t26 -43.5t34.5 -33.5t48 -29t50.5 -23.5t56 -22.5q15 -6 23 -9v394 q-109 -3 -177.5 -50.5t-68.5 -130.5zM453 45q102 3 172.5 51.5t70.5 136.5q0 37 -15 68.5t-34.5 51.5t-57 40t-64 31t-72.5 27v-406z" />
<glyph unicode="%" horiz-adv-x="1239" d="M96 729q0 109 57.5 178.5t155.5 69.5t155.5 -69.5t57.5 -178.5t-57.5 -178.5t-155.5 -69.5t-155.5 69.5t-57.5 178.5zM166 729q0 -82 35.5 -136t107.5 -54t108 54t36 136t-36 136.5t-108 54.5t-107.5 -54.5t-35.5 -136.5zM193 49l817 916l43 -39l-815 -916zM723 246 q0 109 57.5 178.5t155.5 69.5t155.5 -69.5t57.5 -178.5t-57.5 -178.5t-155.5 -69.5t-155.5 69.5t-57.5 178.5zM793 246q0 -82 35.5 -136.5t107.5 -54.5t107.5 54.5t35.5 136.5t-35.5 136t-107.5 54t-107.5 -54t-35.5 -136z" />
<glyph unicode="&#x26;" horiz-adv-x="1312" d="M96 305q0 42 9.5 81t24.5 70.5t40.5 63t49 54.5t59 50t62 44.5t65.5 42.5l-23 28q-46 59 -71 95t-46.5 89t-21.5 103q0 98 65 171t189 73q54 0 97 -15.5t70.5 -40t46 -57t26 -66t7.5 -67.5q0 -100 -63.5 -176.5t-177.5 -151.5l373 -446q116 158 147 428h-176v59h397v-59 h-155q-30 -295 -170 -483q61 -72 111.5 -113t101.5 -41q29 0 61 14v-67q-37 -13 -70 -13q-61 0 -119 43.5t-128 124.5q-156 -166 -385 -166q-171 0 -283.5 87t-112.5 241zM166 307q0 -128 93 -197t230 -69q201 0 345 154l-388 464q-49 -32 -71 -47t-63 -46t-60.5 -54 t-43 -56.5t-33 -70t-9.5 -78.5zM313 1026q0 -96 123 -246l27 -32q51 33 84.5 59t67 60.5t49.5 74t16 84.5q0 76 -46.5 129t-135.5 53q-85 0 -135 -49t-50 -133z" />
<glyph unicode="'" horiz-adv-x="337" d="M133 879v395h72v-395h-72z" />
<glyph unicode="(" horiz-adv-x="468" d="M86 520q0 235 73 484t206 444h79q-135 -191 -210.5 -434.5t-75.5 -493.5t75 -492.5t211 -433.5h-79q-133 195 -206 443t-73 483z" />
<glyph unicode=")" horiz-adv-x="468" d="M25 -406q136 191 211 433.5t75 492.5t-75.5 493.5t-210.5 434.5h79q133 -195 206 -444t73 -484t-73 -483t-206 -443h-79z" />
<glyph unicode="*" horiz-adv-x="804" d="M120 896.5q7 25.5 36 41.5q13 7 45.5 16t83.5 22t86 23l6 -12q-26 -24 -62.5 -61.5t-60.5 -61t-37 -30.5q-32 -17 -54.5 -11.5t-35.5 27.5q-14 21 -7 46.5zM120 1122.5q-7 25.5 7 44.5q13 23 35.5 29.5t54.5 -10.5q13 -7 37 -30.5t60.5 -61.5t62.5 -62l-6 -12 q-35 10 -86 23t-83.5 22t-45.5 16q-29 16 -36 41.5zM340 762q0 15 8 46.5t23.5 84t23.5 84.5h13q8 -32 23.5 -84.5t23.5 -84t8 -46.5q0 -34 -18 -52t-44 -18t-43.5 18t-17.5 52zM340 1257q0 34 17.5 52t43.5 18t44 -18t18 -52q0 -15 -8 -46.5t-23.5 -84t-23.5 -84.5h-13 q-8 32 -23.5 84.5t-23.5 84t-8 46.5zM426 987l6 12q35 -10 86 -23t83.5 -22t45.5 -16q29 -16 36 -41.5t-7 -46.5q-13 -22 -35.5 -27.5t-54.5 11.5q-13 7 -37 30.5t-60.5 61t-62.5 61.5zM426 1032q26 24 62.5 62t60.5 61.5t37 30.5q32 17 54.5 10.5t35.5 -29.5 q14 -19 7 -44.5t-36 -41.5q-13 -7 -45.5 -16t-83.5 -22t-86 -23z" />
<glyph unicode="+" horiz-adv-x="962" d="M78 444v62h371v373h61v-373h375v-62h-375v-372h-61v372h-371z" />
<glyph unicode="," horiz-adv-x="440" d="M121 -217q83 103 94 211q-28 0 -45.5 17.5t-17.5 43.5q0 29 19 47.5t50 18.5q33 0 51.5 -22.5t18.5 -61.5q0 -58 -37 -138.5t-96 -142.5z" />
<glyph unicode="-" horiz-adv-x="761" d="M129 436v68h504v-68h-504z" />
<glyph unicode="." horiz-adv-x="393" d="M129 53q0 28 20 48t48 20t47.5 -20t19.5 -48q0 -29 -19.5 -49t-47.5 -20t-48 20t-20 49z" />
<glyph unicode="/" horiz-adv-x="1083" d="M43 -406l930 1854h71l-929 -1854h-72z" />
<glyph unicode="0" horiz-adv-x="1089" d="M121 477q0 105 24.5 193.5t74 158t133 109t192.5 39.5t193 -39.5t133.5 -109t74.5 -158t25 -193.5q0 -83 -15 -156t-48.5 -136.5t-82.5 -109.5t-120.5 -72t-159.5 -26t-159.5 26t-120 72t-81.5 109.5t-48 136.5t-15 156zM193 477q0 -91 19.5 -167t60 -137.5t110 -96.5 t162.5 -35t162.5 35t110 96.5t60 137.5t19.5 167q0 92 -19.5 168.5t-60 137.5t-110 95.5t-162.5 34.5t-162.5 -34.5t-110 -95.5t-60 -137.5t-19.5 -168.5z" />
<glyph unicode="1" horiz-adv-x="632" d="M74 866l254 88h61v-893h209v-61h-494v61h213v828q-14 -4 -55 -23.5t-80.5 -34t-64.5 -14.5q-51 0 -43 49z" />
<glyph unicode="2" horiz-adv-x="917" d="M109 807q0 66 106.5 118t241.5 52q151 0 239 -73t88 -202q0 -313 -553 -636h596v-66h-702l-14 57q25 17 99 65t130.5 86t131 99.5t124 118t84.5 130.5t35 146q0 110 -71.5 161.5t-190.5 51.5q-124 0 -224 -55q21 -18 21 -49q0 -29 -19 -49.5t-53 -20.5q-33 0 -51 19.5 t-18 46.5z" />
<glyph unicode="3" horiz-adv-x="966" d="M94 -115q0 28 21 49t53 21q33 0 52.5 -20.5t19.5 -49.5q0 -32 -23 -55q96 -55 232 -55q92 0 167 30t123.5 96t48.5 160q0 132 -95 203.5t-255 71.5h-112v61h120q145 0 230.5 69.5t85.5 195.5q0 123 -83 188t-220 65q-140 0 -232 -51q25 -19 25 -53q0 -29 -21.5 -49.5 t-52.5 -20.5t-51.5 20.5t-20.5 49.5q0 67 111 116.5t244 49.5q170 0 270 -87t100 -226q0 -108 -61 -183.5t-162 -111.5q114 -35 182 -114t68 -196q0 -107 -58 -187.5t-148 -119.5t-197 -39q-83 0 -166 22.5t-139 63t-56 86.5z" />
<glyph unicode="4" horiz-adv-x="976" d="M41 96v51q159 179 257.5 395t125.5 433q61 13 61 -49q0 -121 -102.5 -361.5t-247.5 -406.5h535v219q29 65 51 147h18v-366h181v-62h-181v-299h168v-61h-448v61h211v299h-629z" />
<glyph unicode="5" horiz-adv-x="952" d="M70 -86q0 30 19.5 50t51.5 20t52 -21t20 -49t-27 -55q35 -29 105.5 -55.5t159.5 -26.5q52 0 100 10t94 34.5t80 61t55 94t21 129.5q0 155 -89 239.5t-225 84.5q-103 0 -190.5 -46t-134.5 -114l-53 27q77 271 84 657h628q8 -12 8 -30q0 -26 -26 -34.5t-84 -8.5 q-51 0 -223.5 6.5t-239.5 7.5q-17 -344 -63 -512q127 111 299 111q75 0 142 -24t121 -69.5t85.5 -120.5t31.5 -169q0 -189 -118.5 -293.5t-302.5 -104.5q-94 0 -184 31.5t-143.5 78t-53.5 91.5z" />
<glyph unicode="6" horiz-adv-x="1011" d="M109 539q0 103 15 199.5t49.5 189t85.5 161t130 110.5t176 42q112 0 205.5 -49t93.5 -115q0 -32 -20.5 -52.5t-52.5 -20.5q-29 0 -49.5 19.5t-20.5 47.5q0 30 27 57q-25 20 -74.5 35t-106.5 15q-81 0 -146.5 -34.5t-109 -92.5t-74 -140.5t-46 -172.5t-21.5 -195 q34 97 133.5 168t237.5 71q165 0 272 -110t107 -293q0 -180 -106 -291t-286 -111q-91 0 -165.5 31.5t-132 96.5t-89.5 175.5t-32 258.5zM197 389q0 -68 21 -129.5t61 -111t104.5 -78.5t144.5 -29q143 0 231.5 90t88.5 246q0 150 -82.5 246t-230.5 96q-143 0 -240.5 -89.5 t-97.5 -240.5z" />
<glyph unicode="7" horiz-adv-x="948" d="M63 696v258h66v-104q44 123 174 123q62 0 183.5 -39t185.5 -39q47 0 90 14q0 30 18.5 49t48.5 19q29 0 48.5 -18.5t19.5 -47.5q0 -5 -1 -10.5t-2 -9.5t-3.5 -10.5t-4 -9.5t-6.5 -10.5l-7 -10.5t-8.5 -12t-8.5 -13q-137 -205 -245.5 -495.5t-108.5 -528.5q0 -61 2 -84 q-8 -4 -25 -4q-26 0 -37.5 22t-11.5 91q0 198 108.5 499t260.5 535q-62 -24 -123 -24q-67 0 -189 35.5t-180 35.5q-90 0 -129 -53.5t-47 -157.5h-68z" />
<glyph unicode="8" horiz-adv-x="1038" d="M102 319q0 126 75.5 211.5t199.5 114.5q-95 28 -159 104t-64 183q0 134 102.5 221.5t263.5 87.5q159 0 263 -87.5t104 -221.5q0 -107 -64.5 -183t-160.5 -104q124 -29 199 -114.5t75 -211.5q0 -155 -114 -248.5t-302 -93.5q-189 0 -303.5 93.5t-114.5 248.5zM174 328 q0 -124 90.5 -205.5t255.5 -81.5q164 0 254 81.5t90 205.5q0 123 -91 203.5t-253 80.5q-163 0 -254.5 -80.5t-91.5 -203.5zM223 932q0 -108 82 -183t215 -75q131 0 213 75t82 183q0 104 -79.5 175t-215.5 71t-216.5 -71t-80.5 -175z" />
<glyph unicode="9" horiz-adv-x="1013" d="M92 573q0 173 108.5 288.5t295.5 115.5q70 0 129 -17.5t111.5 -59.5t88.5 -107t57 -164.5t21 -227.5q0 -53 -3.5 -105.5t-14.5 -123.5t-29.5 -132t-52 -123t-78 -105.5t-111 -71t-147.5 -27.5q-127 0 -228.5 56t-101.5 120q0 28 21 49t51 21t51 -20t21 -48q0 -30 -27 -57 q88 -57 211 -57q83 0 147 33.5t105 89t68.5 140t40.5 175.5t18 205q-33 -100 -133.5 -166t-231.5 -66q-165 0 -276 104.5t-111 280.5zM164 575q0 -146 87 -234.5t232 -88.5q140 0 236 83.5t96 237.5q0 144 -84.5 242t-236.5 98q-148 0 -239 -94.5t-91 -243.5z" />
<glyph unicode=":" horiz-adv-x="393" d="M129 53q0 28 20 48t48 20t47.5 -20t19.5 -48q0 -29 -19.5 -49t-47.5 -20t-48 20t-20 49zM129 717q0 28 20 47.5t48 19.5t47.5 -19.5t19.5 -47.5q0 -29 -19.5 -49.5t-47.5 -20.5t-48 20.5t-20 49.5z" />
<glyph unicode=";" horiz-adv-x="450" d="M131 -217q83 103 94 211q-28 0 -45.5 17.5t-17.5 43.5q0 29 19 47.5t50 18.5q33 0 51.5 -22.5t18.5 -61.5q0 -58 -37 -138.5t-96 -142.5zM168 717q0 28 20 47.5t48 19.5t47.5 -19.5t19.5 -47.5q0 -29 -19.5 -49.5t-47.5 -20.5t-48 20.5t-20 49.5z" />
<glyph unicode="&#x3c;" horiz-adv-x="888" d="M61 451v45l719 372v-71l-633 -324l633 -323v-72z" />
<glyph unicode="=" horiz-adv-x="1081" d="M137 203v61h807v-61h-807zM137 682v61h807v-61h-807z" />
<glyph unicode="&#x3e;" horiz-adv-x="888" d="M109 78v72l632 323l-632 324v71l718 -372v-45z" />
<glyph unicode="?" horiz-adv-x="733" d="M72 1155v64q115 47 245 47q149 0 237.5 -76t88.5 -213q0 -67 -23 -126t-57 -99.5t-74.5 -82.5t-74.5 -76t-57 -79t-23 -92q0 -65 26 -115h-69q-21 44 -21 111q0 51 16.5 96t43.5 80.5t59 69t64.5 67t59.5 69t43.5 81t16.5 96.5q0 104 -66.5 164.5t-195.5 60.5 q-104 0 -239 -47zM254 53q0 28 20 48t48 20t47.5 -20t19.5 -48q0 -29 -19.5 -49t-47.5 -20t-48 20t-20 49z" />
<glyph unicode="@" horiz-adv-x="1554" d="M92 469q0 151 58.5 285.5t155.5 228t227 147.5t270 54q131 0 248 -47.5t203.5 -132t137 -208.5t50.5 -270q0 -193 -82 -303t-209 -110q-52 0 -88 19t-51 48t-20 50t-5 38h-6q-108 -155 -276 -155q-129 0 -200 87.5t-71 219.5q0 107 46.5 200t132.5 151t192 58 q101 0 156.5 -48.5t74.5 -114.5h2q6 37 39 131h64q-31 -96 -62.5 -237t-31.5 -245q0 -74 23.5 -113.5t86.5 -39.5q101 0 168.5 98t67.5 266q0 133 -45.5 247.5t-125 193.5t-188.5 123.5t-233 44.5q-184 0 -337 -93.5t-238 -246t-85 -326.5q0 -129 50.5 -248.5t135.5 -207.5 t204.5 -140.5t250.5 -52.5q197 0 344 108l25 -41q-171 -116 -371 -116q-138 0 -264.5 55t-219.5 148t-148.5 222.5t-55.5 272.5zM502 422q0 -113 58.5 -181.5t156.5 -68.5q126 0 205 106.5t79 258.5q0 112 -48.5 172.5t-143.5 60.5q-130 0 -218.5 -103.5t-88.5 -244.5z" />
<glyph unicode="A" horiz-adv-x="1384" d="M-12 0v66h186l451 1116h-195v65h309l475 -1181h187v-66h-486v66h224l-150 368h-592l-147 -368h223v-66h-485zM424 502h539l-269 674z" />
<glyph unicode="B" horiz-adv-x="1210" d="M72 0v63h211v1121h-211v63h540q199 0 322 -81t123 -232q0 -104 -62 -183t-198 -112q161 -25 238 -110.5t77 -202.5q0 -106 -62.5 -181t-165 -110t-235.5 -35h-577zM354 63h293q182 0 287.5 68.5t105.5 198.5q0 135 -109.5 204.5t-293.5 69.5h-283v-541zM354 666h230 q189 0 295 67.5t106 194.5q0 125 -101 190.5t-272 65.5h-258v-518z" />
<glyph unicode="C" horiz-adv-x="1255" d="M98 625q0 138 43 255.5t124.5 205t208 137t284.5 49.5q223 0 411 -90v-271h-71v232q-145 63 -336 63q-126 0 -233 -38t-186.5 -109.5t-124 -183.5t-44.5 -252q0 -118 32.5 -216t87.5 -165t129.5 -113t157.5 -67t173 -21q216 0 422 115v-70q-192 -111 -424 -111 q-136 0 -254.5 44t-207.5 125t-140.5 205.5t-51.5 275.5z" />
<glyph unicode="D" horiz-adv-x="1368" d="M72 0v66h211v1116h-211v65h546q126 0 239 -36.5t206.5 -109.5t149 -196t55.5 -282q0 -127 -36.5 -232.5t-98.5 -176.5t-146 -120t-176.5 -71.5t-192.5 -22.5h-546zM356 66h267q163 0 291 64t203 191.5t75 301.5q0 175 -75 303t-203 192t-291 64h-267v-1116z" />
<glyph unicode="E" horiz-adv-x="1163" d="M72 0v66h211v1116h-211v65h977v-321h-70v256h-623v-520h605v-66h-605v-530h625v253h70v-319h-979z" />
<glyph unicode="F" horiz-adv-x="1105" d="M72 0v66h211v1116h-211v65h970v-346h-69v281h-617v-541h555v-66h-555v-509h250v-66h-534z" />
<glyph unicode="G" horiz-adv-x="1415" d="M98 618q0 138 44.5 257t127.5 207.5t210 139t284 50.5q212 0 440 -86v-264h-69v221q-196 63 -367 63q-276 0 -436 -160.5t-160 -424.5q0 -121 36 -225t105.5 -184.5t182 -126.5t256.5 -46q194 0 403 88v434h-348v66h557v-66h-139v-473q-67 -31 -119.5 -51t-150.5 -41 t-195 -21q-158 0 -284.5 49t-208.5 135.5t-125.5 203.5t-43.5 255z" />
<glyph unicode="H" horiz-adv-x="1523" d="M72 0v66h211v1116h-211v65h495v-65h-211v-516h811v516h-211v65h496v-65h-211v-1116h211v-66h-496v66h211v532h-811v-532h211v-66h-495z" />
<glyph unicode="I" horiz-adv-x="638" d="M72 0v66h211v1116h-211v65h495v-65h-211v-1116h211v-66h-495z" />
<glyph unicode="J" horiz-adv-x="598" d="M51 1182v65h496v-65h-211v-1186q0 -205 -244 -324l-33 54q91 48 147 118.5t56 157.5v1180h-211z" />
<glyph unicode="K" horiz-adv-x="1331" d="M72 0v66h211v1116h-211v65h495v-65h-211v-1116h211v-66h-495zM483 631v10l535 541h-209v65h483v-65h-182l-535 -547l525 -569h205v-66h-244z" />
<glyph unicode="L" horiz-adv-x="1107" d="M72 0v66h211v1116h-211v65h514v-65h-230v-1116h635v264h70v-330h-989z" />
<glyph unicode="M" horiz-adv-x="1814" d="M55 0v66h211l45 1116h-211v65h328l479 -1089l479 1089h328v-65h-211l45 -1116h211v-66h-491v66h211l-45 1116l-500 -1129h-53l-500 1129l-45 -1116h211v-66h-492z" />
<glyph unicode="N" horiz-adv-x="1507" d="M72 0v66h211v1116h-211v65h286l818 -1128v1063h-211v65h491v-65h-211v-1182h-67l-826 1139v-1073h211v-66h-491z" />
<glyph unicode="O" d="M98 625q0 183 74.5 329t218.5 232t334 86q189 0 332.5 -86t218 -232t74.5 -329t-74.5 -330t-218 -233.5t-332.5 -86.5q-143 0 -261.5 50.5t-198 138t-123.5 206t-44 255.5zM174 625q0 -261 150.5 -422.5t400.5 -161.5q246 0 397.5 163t151.5 421q0 260 -150 420.5 t-399 160.5q-248 0 -399.5 -161.5t-151.5 -419.5z" />
<glyph unicode="P" horiz-adv-x="1148" d="M72 0v66h211v1116h-211v65h532q59 0 116.5 -8t125 -33t117 -65t83 -110t33.5 -161t-33.5 -161t-83 -109.5t-117 -64.5t-125 -33t-116.5 -8h-248v-428h248v-66h-532zM356 559h248q195 0 297.5 81t102.5 230t-102.5 230.5t-297.5 81.5h-248v-623z" />
<glyph unicode="Q" d="M98 625q0 183 74.5 329t218.5 232t334 86q189 0 332.5 -86t218 -232t74.5 -329q0 -252 -140.5 -430t-380.5 -211l340 -193l-36 -59l-410 243q-190 1 -333.5 87.5t-217.5 233t-74 329.5zM174 625q0 -261 150.5 -422.5t400.5 -161.5q246 0 397.5 163t151.5 421 q0 260 -150 420.5t-399 160.5q-248 0 -399.5 -161.5t-151.5 -419.5z" />
<glyph unicode="R" horiz-adv-x="1265" d="M72 0v66h211v1116h-211v65h551q40 0 79 -3.5t87.5 -13.5t90.5 -26t83 -44t70 -64.5t47 -90t18 -118.5q0 -148 -86.5 -237t-231.5 -120l252 -464h207v-66h-252l-280 518q-29 -4 -84 -4h-267v-448h211v-66h-495zM356 580h267q196 0 297.5 76.5t101.5 224.5t-101.5 224.5 t-297.5 76.5h-267v-602z" />
<glyph unicode="S" horiz-adv-x="1032" d="M104 37v256h70v-205q149 -47 330 -47q178 0 269 67t91 185q0 60 -25 108t-67.5 80t-97.5 58t-116 48t-121.5 44t-115.5 51.5t-97.5 66t-67.5 91t-25 123.5q0 65 23 119.5t70 97.5t127.5 67.5t187.5 24.5q176 0 350 -53v-254h-72v202q-137 37 -272 37q-94 0 -163 -20 t-107 -54.5t-55 -75.5t-17 -89q0 -73 40.5 -127t105 -87.5t142.5 -62t156.5 -60.5t143 -72t105 -107t40.5 -156q0 -152 -113 -235t-319 -83q-96 0 -205.5 17t-194.5 45z" />
<glyph unicode="T" horiz-adv-x="1171" d="M49 942v305h1073v-305h-69v240h-430v-1116h221v-66h-516v66h221v1116h-430v-240h-70z" />
<glyph unicode="U" horiz-adv-x="1415" d="M39 1182v65h496v-65h-211v-781q0 -93 32 -164t87 -112.5t123 -61.5t147 -20q168 0 274.5 89.5t106.5 268.5v781h-211v65h491v-65h-211v-785q0 -204 -123 -313t-327 -109q-209 0 -336 113t-127 311v783h-211z" />
<glyph unicode="V" horiz-adv-x="1337" d="M-18 1182v65h485v-65h-223l426 -1094l424 1094h-224v65h486v-65h-187l-462 -1182h-76l-463 1182h-186z" />
<glyph unicode="W" horiz-adv-x="1902" d="M-14 1182v65h481v-65h-223l344 -1067l327 932l-47 135h-184v65h479v-65h-223l375 -1067l344 1067h-223v65h481v-65h-184l-385 -1182h-62l-334 944l-336 -944h-61l-385 1182h-184z" />
<glyph unicode="X" horiz-adv-x="1290" d="M20 0v66h181l401 567l-383 549h-182v65h473v-65h-211l344 -494l350 494h-211v65h475v-65h-184l-391 -551l395 -565h189v-66h-473v66h206l-356 509l-362 -509h215v-66h-476z" />
<glyph unicode="Y" horiz-adv-x="1273" d="M-16 1182v65h487v-65h-217l383 -635l385 635h-215v65h483v-65h-188l-428 -701v-415h211v-66h-496v66h211v415l-428 701h-188z" />
<glyph unicode="Z" horiz-adv-x="1118" d="M88 0v59l821 1121h-739v-240h-74v307h901v-63l-821 -1118h785v258h73v-324h-946z" />
<glyph unicode="[" horiz-adv-x="557" d="M174 -406v1854h348v-53h-282v-1747h282v-54h-348z" />
<glyph unicode="\" horiz-adv-x="1083" d="M39 1448h72l929 -1854h-71z" />
<glyph unicode="]" horiz-adv-x="557" d="M35 -352h282v1747h-282v53h348v-1854h-348v54z" />
<glyph unicode="^" horiz-adv-x="876" d="M90 694l328 576h41l327 -576h-71l-277 484l-276 -484h-72z" />
<glyph unicode="_" horiz-adv-x="1009" d="M127 -80h756v-59h-756v59z" />
<glyph unicode="`" horiz-adv-x="620" d="M135 1292l51 64l316 -287l-25 -29z" />
<glyph unicode="a" horiz-adv-x="933" d="M70 223q0 64 26 113t65 76.5t93 45.5t101 23.5t98 5.5h217v93q0 132 -53 185.5t-179 53.5q-147 0 -299 -61v63q154 62 307 62q155 0 224 -70.5t69 -220.5v-531h170v-61h-239v117q-174 -140 -336 -140q-112 0 -188 64t-76 182zM141 223q0 -88 57.5 -135t145.5 -47 q155 0 326 149v236h-217q-58 0 -107 -8t-98.5 -28.5t-78 -63t-28.5 -103.5z" />
<glyph unicode="b" horiz-adv-x="978" d="M-23 1386v62h244v-680q150 115 307 115q167 0 265 -122.5t98 -318.5q0 -220 -124.5 -342.5t-330.5 -122.5q-130 0 -284 41v1368h-175zM221 68q118 -27 215 -27q184 0 283.5 110.5t99.5 297.5q0 169 -81 269.5t-220 100.5q-145 0 -297 -121v-630z" />
<glyph unicode="c" horiz-adv-x="892" d="M88 430q0 205 117 329t317 124q150 0 289 -60v-225h-66v184q-105 37 -223 37q-176 0 -269 -106.5t-93 -278.5q0 -180 97.5 -286.5t260.5 -106.5q157 0 297 94v-67q-143 -91 -297 -91q-197 0 -313.5 124t-116.5 329z" />
<glyph unicode="d" horiz-adv-x="1052" d="M88 430q0 92 25 173t72 144t121.5 99.5t166.5 36.5q174 0 305 -138v641h-198v62h268v-1387h174v-61h-244v135q-136 -158 -321 -158q-72 0 -132.5 24.5t-103.5 67.5t-73.5 101t-45 123.5t-14.5 136.5zM160 428q0 -78 18 -146t54 -122.5t95.5 -86.5t135.5 -32 q97 0 169.5 44.5t145.5 121.5v467q-137 145 -301 145q-152 0 -234.5 -110t-82.5 -281z" />
<glyph unicode="e" horiz-adv-x="917" d="M88 426q0 206 107.5 331.5t281.5 125.5q77 0 139.5 -27t103 -69.5t68 -99t39 -113t11.5 -113.5q0 -27 -2 -39h-676q2 -176 93 -278.5t251 -102.5q156 0 297 88v-68q-143 -84 -297 -84q-196 0 -306 122t-110 327zM162 481h606q-3 66 -21 124.5t-52 108t-90.5 78.5 t-129.5 29q-133 0 -217 -93t-96 -247z" />
<glyph unicode="f" horiz-adv-x="614" d="M51 799v61h189v352q0 128 71.5 193t204.5 65q67 0 139 -14v-59q-78 12 -129 12q-115 0 -166 -50t-51 -151v-348h264v-61h-264v-738h207v-61h-450v61h174v738h-189z" />
<glyph unicode="g" horiz-adv-x="899" d="M49 -184q0 147 166 247q-78 38 -78 107q0 80 101 147q-65 43 -98.5 113t-33.5 143q0 55 18.5 107.5t56 99t103.5 75t150 28.5q71 0 135 -23h314v-59l-224 4q51 -44 77 -106t26 -126q0 -55 -18.5 -107.5t-56 -98.5t-103.5 -74.5t-150 -28.5q-80 0 -149 27 q-82 -53 -82 -107q0 -33 34.5 -54t90 -31.5t122.5 -19t134 -24t122.5 -40t90 -73t34.5 -116.5q0 -67 -32.5 -117.5t-89.5 -80t-127.5 -44t-153.5 -14.5q-188 0 -283.5 68.5t-95.5 177.5zM117 -178q0 -86 75.5 -139.5t229.5 -53.5q94 0 169 20.5t123 66.5t48 112 q0 45 -23.5 78t-59.5 51t-89.5 32t-101.5 20t-108.5 15.5t-98.5 18.5q-76 -39 -120 -97t-44 -124zM172 573q0 -44 15 -86t44.5 -79t82 -59.5t120.5 -22.5t120.5 22.5t82 59.5t44.5 79t15 86t-15 86t-44.5 79t-82 60t-120.5 23t-120.5 -23t-82 -60t-44.5 -79t-15 -86z" />
<glyph unicode="h" horiz-adv-x="1077" d="M31 0v61h174v1325h-174v62h243v-731q173 166 357 166q118 0 184 -73t66 -212v-537h174v-61h-418v61h174v525q0 233 -190 233q-165 0 -347 -174v-584h175v-61h-418z" />
<glyph unicode="i" horiz-adv-x="507" d="M59 0v61h174v738h-174v61h244v-799h174v-61h-418zM184 1194q0 28 20 48t48 20t47.5 -20t19.5 -48t-19.5 -48t-47.5 -20t-48 20t-20 48z" />
<glyph unicode="j" horiz-adv-x="434" d="M25 799v61h251v-1032q0 -93 -56.5 -162.5t-153.5 -107.5l-29 49q88 46 129 100.5t41 126.5v965h-182zM158 1194q0 28 19.5 48t47.5 20t48 -20t20 -48t-20 -48t-48 -20t-47.5 20t-19.5 48z" />
<glyph unicode="k" horiz-adv-x="999" d="M31 0v61h174v1325h-174v62h243v-1387h175v-61h-418zM375 428v8l358 365h-172v59h397v-61h-139l-356 -367l217 -254q112 -135 217 -135q28 0 53 10v-65q-42 -11 -65 -11q-122 0 -264 164z" />
<glyph unicode="l" horiz-adv-x="479" d="M31 0v61h174v1325h-174v62h243v-1387h175v-61h-418z" />
<glyph unicode="m" horiz-adv-x="1632" d="M59 0v61h174v738h-174v61h244v-133q164 156 326 156q81 0 142.5 -38.5t84.5 -127.5q170 166 338 166q47 0 87 -12.5t76 -41.5t56.5 -84t20.5 -131v-553h174v-61h-418v61h174v541q0 217 -178 217q-149 0 -320 -164q2 -12 2 -41v-553h174v-61h-417v61h174v541 q0 217 -178 217q-149 0 -318 -162v-596h174v-61h-418z" />
<glyph unicode="n" horiz-adv-x="1105" d="M59 0v61h174v738h-174v61h244v-143q173 166 356 166q118 0 184 -73t66 -212v-537h174v-61h-417v61h174v525q0 233 -191 233q-164 0 -346 -174v-584h174v-61h-418z" />
<glyph unicode="o" horiz-adv-x="995" d="M88 430q0 210 116.5 331.5t293.5 121.5q178 0 293.5 -121t115.5 -332t-116 -332t-293 -121t-293.5 121t-116.5 332zM160 430q0 -181 92 -285t246 -104t246 104t92 285t-92 285t-246 104t-246 -104t-92 -285z" />
<glyph unicode="p" horiz-adv-x="1052" d="M31 -346h174v1145h-174v61h243v-137q138 160 324 160q88 0 159.5 -37.5t116 -101t68 -143.5t23.5 -169q0 -92 -25 -173.5t-72 -144.5t-121.5 -100t-166.5 -37q-179 0 -306 138v-461h199v-62h-442v62zM274 186q133 -145 301 -145q152 0 235 111t83 282q0 77 -18 145 t-54 122.5t-95.5 86t-135.5 31.5q-98 0 -172.5 -46t-143.5 -122v-465z" />
<glyph unicode="q" horiz-adv-x="995" d="M88 432q0 203 110.5 327t280.5 124q168 0 293 -131l10 108h56v-1206h174v-62h-443v62h199v448q-136 -125 -295 -125q-166 0 -275.5 127t-109.5 328zM160 434q0 -171 87 -282t230 -111q154 0 291 133v512q-129 133 -287 133q-146 0 -233.5 -107t-87.5 -278z" />
<glyph unicode="r" horiz-adv-x="698" d="M59 0v61h174v738h-174v61h244v-188q154 211 348 211h21v-70h-17q-101 0 -185.5 -54.5t-166.5 -144.5v-553h193v-61h-437z" />
<glyph unicode="s" horiz-adv-x="794" d="M90 29v198h64v-151q122 -35 233 -35q71 0 127 14.5t94.5 53t38.5 96.5q0 51 -29.5 88t-77 58t-104.5 38.5t-114 37.5t-104.5 46t-77 72.5t-29.5 109.5q0 107 78.5 167.5t222.5 60.5q133 0 264 -43v-197h-66v150q-98 26 -198 26q-111 0 -173.5 -43t-62.5 -119 q0 -51 29.5 -87.5t77 -57.5t104.5 -38.5t114.5 -37t105 -45.5t77 -73t29.5 -111q0 -116 -90 -173t-232 -57q-147 0 -301 52z" />
<glyph unicode="t" horiz-adv-x="595" d="M47 799v61h150v225h69v-225h297v-61h-297v-574q0 -97 41 -141.5t135 -44.5q74 0 131 22v-59q-76 -25 -141 -25q-17 0 -28 0.5t-38 5t-46 13t-44 26t-41 42.5t-27 65t-11 90v580h-150z" />
<glyph unicode="u" horiz-adv-x="1073" d="M18 799v61h244v-586q0 -233 191 -233q162 0 346 172v586h-174v61h243v-799h174v-61h-243v141q-82 -77 -174.5 -120.5t-182.5 -43.5q-117 0 -183 73t-66 212v537h-175z" />
<glyph unicode="v" horiz-adv-x="1071" d="M18 799v61h390v-61h-179l306 -711l307 711h-178v61h389v-61h-138l-350 -799h-59l-350 799h-138z" />
<glyph unicode="w" horiz-adv-x="1492" d="M23 799v61h395v-61h-187l220 -684l264 745h63l264 -745l220 684h-187v61h395v-61h-137l-262 -799h-53l-273 756l-270 -756h-53l-262 799h-137z" />
<glyph unicode="x" horiz-adv-x="1017" d="M39 0v61h139l291 379l-268 359h-144v61h392v-59h-173l234 -307l235 307h-170v59h388v-61h-146l-270 -357l291 -381h139v-61h-379v59h160l-250 332l-252 -332h160v-59h-377z" />
<glyph unicode="y" horiz-adv-x="1046" d="M29 799v61h397v-59h-184l272 -797l307 797h-182v59h395v-61h-141l-408 -1049q-32 -82 -97.5 -131t-151.5 -49q-83 0 -177 57l23 56q79 -52 149 -52q138 0 197 152l84 217h-63l-281 799h-139z" />
<glyph unicode="z" horiz-adv-x="839" d="M86 0v53l573 750h-501v-176h-68v233h653v-51l-571 -748h516v187h66v-248h-668z" />
<glyph unicode="{" horiz-adv-x="534" d="M18 485v70q75 4 127.5 26.5t81 62t40.5 85.5t12 105q0 85 -31 248t-31 216q0 85 42.5 131t121.5 46q42 0 96 -21v-49q-43 16 -84 16q-110 0 -110 -125q0 -44 29.5 -212t29.5 -257q0 -47 -6.5 -87t-23.5 -77.5t-43.5 -65.5t-68.5 -48.5t-98 -28.5q56 -8 98 -28.5 t68.5 -48.5t43.5 -65.5t23.5 -77.5t6.5 -87q0 -89 -29.5 -257t-29.5 -212q0 -125 110 -125q41 0 84 16v-49q-52 -20 -96 -20q-79 0 -121.5 45.5t-42.5 130.5q0 53 31 216.5t31 248.5q0 123 -58.5 197t-202.5 81z" />
<glyph unicode="|" horiz-adv-x="413" d="M174 -406v1854h66v-1854h-66z" />
<glyph unicode="}" horiz-adv-x="534" d="M57 -365q43 -16 84 -16q111 0 111 125q0 44 -29.5 212t-29.5 257q0 60 11 108t37 90.5t74 70t117 38.5q-69 11 -117 38.5t-74 70t-37 90.5t-11 108q0 89 29.5 257t29.5 212q0 125 -111 125q-41 0 -84 -16v49q54 21 97 21q79 0 121 -46t42 -131q0 -53 -30.5 -216 t-30.5 -248q0 -59 12 -105t40 -85.5t80.5 -62t127.5 -26.5v-70q-75 -4 -127.5 -26.5t-80.5 -61.5t-40 -85t-12 -105q0 -85 30.5 -248.5t30.5 -216.5q0 -85 -42 -130.5t-121 -45.5q-45 0 -97 20v49z" />
<glyph unicode="~" horiz-adv-x="1189" d="M131 408q21 49 42.5 87.5t54 79.5t76 64t93.5 23q48 0 97 -22t89.5 -53t79.5 -62.5t81 -53.5t79 -22q34 0 63.5 16.5t53.5 47.5t41.5 62.5t36.5 75.5l49 -24q-20 -50 -40.5 -88.5t-50 -77t-67.5 -59.5t-82 -21t-91 22t-88 53.5t-81.5 62.5t-85 53t-84.5 22q-39 0 -73 -18 t-60.5 -52t-45 -65.5t-38.5 -75.5z" />
<glyph unicode="&#xa1;" horiz-adv-x="405" d="M135 813q0 29 20 49.5t48 20.5t47.5 -20.5t19.5 -49.5q0 -28 -19.5 -48t-47.5 -20t-48 20t-20 48zM162 -381l18 940h45l19 -940h-82z" />
<glyph unicode="&#xa2;" horiz-adv-x="874" d="M98 512q0 112 40 203t124.5 148t202.5 57q62 0 117 -19l57 170l39 -12l-60 -172q122 -60 170 -228h-65q-29 115 -123 170l-225 -659q41 -14 96 -14q106 0 172.5 59t85.5 160h62q-26 -130 -107.5 -204.5t-212.5 -74.5q-65 0 -115 17l-90 -267l-39 13l90 268 q-103 44 -161 146.5t-58 238.5zM164 512q0 -112 45 -200t129 -128l225 662q-46 16 -96 16q-135 0 -219 -96.5t-84 -253.5z" />
<glyph unicode="&#xa3;" horiz-adv-x="1026" d="M92 449v49h158q-51 104 -51 190q0 54 18.5 104t56.5 94t107 70.5t160 26.5q76 0 137 -18.5t99.5 -47t65 -67t38 -74t14.5 -71.5h-66q-2 26 -11 53.5t-30 58t-52 53.5t-81 38.5t-112 15.5q-139 0 -208 -67t-69 -165q0 -80 58 -194h403v-49h-379q51 -108 51 -170 t-31.5 -117t-60.5 -76q66 4 175 -18.5t169 -22.5q162 0 248 107l37 -48q-94 -118 -279 -118q-61 0 -178 23.5t-178 23.5q-69 0 -166 -33l-12 47q94 26 151.5 87.5t57.5 135.5q0 61 -60 179h-180z" />
<glyph unicode="&#xa4;" horiz-adv-x="1142" d="M129 152l135 135q-100 114 -100 266t100 266l-135 135l41 41l135 -135q119 101 266 101q148 0 267 -101l135 135l41 -41l-135 -135q100 -118 100 -266t-100 -266l135 -135l-41 -41l-135 135q-115 -101 -267 -101q-151 0 -266 101l-135 -135zM223 553q0 -145 101.5 -246.5 t246.5 -101.5t247 101.5t102 246.5t-102 246.5t-247 101.5t-246.5 -101.5t-101.5 -246.5z" />
<glyph unicode="&#xa5;" horiz-adv-x="1116" d="M55 909v58h406v-56h-178l274 -475l274 475h-178v56h406v-58h-156l-211 -350h230v-51h-260l-74 -125v-55h334v-52h-334v-219h184v-57h-430v57h184v219h-327v52h327v55l-75 125h-252v51h221l-209 350h-156z" />
<glyph unicode="&#xa6;" horiz-adv-x="421" d="M178 383h66v-789h-66v789zM178 668v780h66v-780h-66z" />
<glyph unicode="&#xa7;" horiz-adv-x="839" d="M111 492q0 74 39 122t104 86q-94 70 -94 172q0 98 74.5 148.5t181.5 50.5q114 0 203.5 -49.5t89.5 -108.5q0 -26 -18.5 -45.5t-47.5 -19.5q-30 0 -51 20t-21 47t25 52q-73 49 -178 49q-84 0 -138.5 -37t-54.5 -105q0 -46 28 -82.5t73 -62t99 -48.5t108 -48.5t99 -55.5 t73 -76t28 -104q0 -41 -13 -75t-36.5 -59.5t-45.5 -41.5t-52 -33q98 -70 98 -174q0 -97 -73 -145.5t-183 -48.5q-119 0 -215 51t-96 111q0 26 18 45.5t47 19.5q30 0 51 -20t21 -47t-25 -52q35 -23 91.5 -38t111.5 -15q79 0 132.5 35t53.5 102q0 46 -28 82.5t-72.5 62 t-98.5 49t-108.5 49t-99 56t-72.5 77t-28 104.5zM172 496q0 -44 22 -79.5t64.5 -62.5t84 -46t100.5 -43.5t94 -43.5q57 25 96 69t39 103q0 44 -22.5 79t-65 61t-84.5 45.5t-100.5 44.5t-94.5 45q-133 -62 -133 -172z" />
<glyph unicode="&#xa8;" horiz-adv-x="772" d="M174 1135q0 26 18 43.5t44 17.5t43.5 -17.5t17.5 -43.5t-17.5 -44t-43.5 -18t-44 18t-18 44zM502 1135q0 26 17.5 43.5t43.5 17.5t44 -17.5t18 -43.5t-18 -44t-44 -18t-43.5 18t-17.5 44z" />
<glyph unicode="&#xa9;" horiz-adv-x="1490" d="M96 541q0 177 87 326.5t236.5 236t325.5 86.5q132 0 252 -51t207.5 -138t139 -207t51.5 -253t-51.5 -253.5t-139 -207t-207.5 -138t-252 -51.5t-252 51.5t-207 138.5t-138.5 207t-51.5 253zM154 541q0 -162 78.5 -298.5t214.5 -215t298 -78.5q122 0 231.5 46.5 t188.5 125.5t125.5 188.5t46.5 231.5t-46.5 231.5t-125.5 188.5t-188.5 125.5t-231.5 46.5q-162 0 -298 -78.5t-214.5 -215t-78.5 -298.5zM401 545q0 74 23.5 140.5t68 119t116.5 83t161 30.5q121 0 231 -56v-166h-55v133q-93 33 -174 33q-144 0 -226.5 -89.5t-82.5 -225.5 q0 -135 79.5 -230.5t217.5 -95.5q63 0 130 20.5t118 55.5v-61q-116 -72 -250 -72q-158 0 -257.5 110.5t-99.5 270.5z" />
<glyph unicode="&#xaa;" horiz-adv-x="823" d="M133 774q0 43 17 76t43.5 52.5t62.5 31.5t69.5 16t69.5 4h140v58q0 84 -34.5 118.5t-117.5 34.5q-90 0 -203 -41v56q100 41 213 41q108 0 157.5 -49t49.5 -152v-346h109v-56h-172v78q-110 -92 -222 -92q-78 0 -130 44t-52 126zM143 446v54h553v-54h-553zM199 774 q0 -55 36 -86t93 -31q101 0 207 97v149h-138q-198 0 -198 -129z" />
<glyph unicode="&#xab;" horiz-adv-x="968" d="M86 532v9l295 348h88l-299 -352l299 -353h-88zM489 532v9l295 348h88l-299 -352l299 -353h-88z" />
<glyph unicode="&#xac;" horiz-adv-x="1017" d="M137 590v65h742v-397h-66v332h-676z" />
<glyph unicode="&#xad;" horiz-adv-x="761" d="M129 436v68h504v-68h-504z" />
<glyph unicode="&#xae;" horiz-adv-x="831" d="M102 907q0 129 92 220.5t222 91.5q129 0 221 -91.5t92 -220.5q0 -130 -92 -222.5t-221 -92.5q-130 0 -222 92t-92 223zM143 907q0 -114 79.5 -194t193.5 -80t194 80t80 194q0 113 -80 193t-194 80t-193.5 -80t-79.5 -193zM274 748v32h45v252h-45v33h164q56 0 87.5 -25.5 t31.5 -66.5q0 -38 -26.5 -63.5t-57.5 -28.5l57 -103h48v-30h-76l-70 122h-72v-90h48v-32h-134zM360 907h72q40 0 61 17t21 47q0 29 -20.5 45t-57.5 16h-76v-125z" />
<glyph unicode="&#xaf;" horiz-adv-x="811" d="M150 1087v62h501v-62h-501z" />
<glyph unicode="&#xb0;" horiz-adv-x="741" d="M88 1036q0 117 83 200t200 83t199.5 -83t82.5 -200t-82.5 -199.5t-199.5 -82.5t-200 82.5t-83 199.5zM152 1036q0 -91 64 -155t155 -64t155 64t64 155t-64 155t-155 64t-155 -64t-64 -155z" />
<glyph unicode="&#xb1;" horiz-adv-x="1077" d="M135 61v62h807v-62h-807zM135 580v61h371v332h61v-332h375v-61h-375v-332h-61v332h-371z" />
<glyph unicode="&#xb2;" horiz-adv-x="759" d="M102 885q20 16 74 53t98 68t99.5 79.5t93 93t64 102t26.5 112.5q0 82 -52 122.5t-143 40.5q-102 0 -155 -34q12 -12 12 -37q0 -27 -16.5 -42.5t-40.5 -15.5q-27 0 -43.5 17t-16.5 41q0 53 82 92t187 39q118 0 187 -57t69 -162q0 -250 -408 -502h436v-61h-534z" />
<glyph unicode="&#xb3;" horiz-adv-x="731" d="M84 936q0 23 17.5 41t45.5 18q27 0 44.5 -16.5t17.5 -40.5q0 -18 -10 -35q68 -33 149 -33q96 0 157.5 43t61.5 123q0 81 -66 121.5t-177 40.5h-66v59h70q102 0 160.5 39.5t58.5 114.5q0 70 -53.5 107.5t-143.5 37.5q-81 0 -147 -28q14 -14 14 -35q0 -24 -18 -41.5 t-45 -17.5t-43.5 18t-16.5 41q0 51 78.5 87t179.5 36q122 0 193 -56t71 -145q0 -70 -44 -118.5t-128 -65.5q193 -43 193 -199q0 -105 -82.5 -162t-202.5 -57q-63 0 -124.5 15.5t-102.5 44.5t-41 63z" />
<glyph unicode="&#xb4;" horiz-adv-x="645" d="M125 1069l315 287l52 -64l-342 -252z" />
<glyph unicode="&#xb5;" horiz-adv-x="1142" d="M57 799v61h244v-586q0 -233 191 -233q162 0 346 172v586h-174v61h243v-799h174v-61h-243v141q-82 -77 -174.5 -120.5t-182.5 -43.5q-120 0 -180 78v-463h-70v1207h-174z" />
<glyph unicode="&#xb6;" horiz-adv-x="1130" d="M66 666q0 160 112.5 269t272.5 109h585v-55h-186v-1085h186v-56h-696v56h221v389h-110q-159 0 -272 109t-113 264zM621 -96h167v1085h-167v-1085z" />
<glyph unicode="&#xb7;" horiz-adv-x="393" d="M129 522q0 28 20 48t48 20t47.5 -20t19.5 -48q0 -29 -19.5 -49t-47.5 -20t-48 20t-20 49z" />
<glyph unicode="&#xb8;" horiz-adv-x="589" d="M127 -375l16 56q50 -5 70 -5q174 0 174 99q0 29 -15.5 48.5t-44.5 28.5t-57 12t-65 3v35l63 129l47 -23l-34 -94q30 -2 58.5 -9.5t56 -22.5t44.5 -43t17 -66q0 -80 -70.5 -117t-175.5 -37q-47 0 -84 6z" />
<glyph unicode="&#xb9;" horiz-adv-x="585" d="M90 1524l207 71h59v-702h160v-59h-401v59h176v641q-5 -2 -37.5 -18t-44 -21t-34.5 -11.5t-40 -6.5q-45 0 -45 47z" />
<glyph unicode="&#xba;" horiz-adv-x="831" d="M127 911q0 143 82 226.5t207 83.5q126 0 207.5 -83.5t81.5 -226.5q0 -142 -82 -224.5t-207 -82.5t-207 82.5t-82 224.5zM164 446v54h504v-54h-504zM195 911q0 -116 60.5 -184t160.5 -68t160.5 68t60.5 184q0 118 -60 186t-161 68t-161 -68t-60 -186z" />
<glyph unicode="&#xbb;" horiz-adv-x="968" d="M96 184l299 353l-299 352h88l295 -348v-9l-295 -348h-88zM500 184l299 353l-299 352h88l295 -348v-9l-295 -348h-88z" />
<glyph unicode="&#xbc;" horiz-adv-x="1554" d="M80 1176l196 71h64v-682h154v-59h-390v59h166v619q-6 -3 -34.5 -17.5t-41 -20t-33.5 -12t-38 -6.5q-43 0 -43 48zM393 23l742 1228l53 -28l-742 -1229zM909 209v51q98 107 162.5 239.5t79.5 256.5q33 6 47 -4t14 -41q0 -73 -67 -213t-152 -232h318v119q26 53 43 109h26 v-228h111v-57h-111v-154h105v-55h-305v55h131v154h-402z" />
<glyph unicode="&#xbd;" horiz-adv-x="1593" d="M72 1176l198 71h62v-680h153v-59h-389v59h166v619q-6 -3 -34.5 -17.5t-41 -20t-33.5 -12t-38 -6.5q-43 0 -43 46zM375 25l739 1228l53 -28l-739 -1229zM995 631q0 52 81.5 90.5t183.5 38.5q113 0 176 -55t63 -156q0 -244 -389 -486h418v-63h-516l-13 55q18 13 74 52.5 t93.5 67t91 75.5t86.5 90t57 97.5t24 109.5q0 153 -178 153q-89 0 -149 -34q12 -12 12 -37t-16.5 -40.5t-40.5 -15.5q-26 0 -42 17.5t-16 40.5z" />
<glyph unicode="&#xbe;" horiz-adv-x="1626" d="M86 606q0 24 18 42t46 18q26 0 41.5 -16t15.5 -38q0 -17 -10 -34q69 -31 143 -31q91 0 150 42.5t59 117.5q0 77 -62.5 115t-169.5 38h-61v60h63q99 0 155 37t56 108q0 69 -50.5 105t-137.5 36q-79 0 -141 -28q14 -11 14 -33t-16.5 -38.5t-42.5 -16.5q-27 0 -43.5 17 t-16.5 40q0 50 76.5 85.5t175.5 35.5q116 0 185 -53.5t69 -143.5q0 -64 -38 -111.5t-111 -68.5q83 -19 126.5 -68t43.5 -121q0 -101 -81 -157t-200 -56q-95 0 -175.5 33.5t-80.5 83.5zM465 23l741 1228l54 -28l-742 -1229zM981 209v51q98 107 162.5 239.5t79.5 256.5 q33 6 47 -4t14 -41q0 -73 -67 -213t-152 -232h317v119q26 53 43 109h27v-228h111v-57h-111v-154h104v-55h-305v55h131v154h-401z" />
<glyph unicode="&#xbf;" horiz-adv-x="718" d="M80 -111q0 67 23 126t57 99.5t74.5 82.5t74.5 76t57 79t23 92q0 63 -27 115h70q21 -44 21 -110q0 -51 -16.5 -96.5t-43.5 -80.5t-59 -68.5t-64.5 -67.5t-59.5 -69t-43.5 -81t-16.5 -97q0 -104 66.5 -164.5t195.5 -60.5q104 0 239 47v-63q-115 -47 -245 -47 q-149 0 -237.5 75.5t-88.5 212.5zM334 813q0 29 19.5 49.5t47.5 20.5t48 -20.5t20 -49.5q0 -28 -20 -48t-48 -20t-47.5 20t-19.5 48z" />
<glyph unicode="&#xc0;" horiz-adv-x="1384" d="M-12 0v66h186l451 1116h-195v65h309l475 -1181h187v-66h-486v66h224l-150 368h-592l-147 -368h223v-66h-485zM422 1655l55 69l340 -309l-26 -31zM424 502h539l-269 674z" />
<glyph unicode="&#xc1;" horiz-adv-x="1384" d="M-12 0v66h186l451 1116h-195v65h309l475 -1181h187v-66h-486v66h224l-150 368h-592l-147 -368h223v-66h-485zM424 502h539l-269 674zM498 1415l340 309l55 -69l-371 -271z" />
<glyph unicode="&#xc2;" horiz-adv-x="1384" d="M-12 0v66h186l451 1116h-195v65h309l475 -1181h187v-66h-486v66h224l-150 368h-592l-147 -368h223v-66h-485zM344 1415l293 273h45l293 -273l-29 -31l-287 218l-286 -218zM424 502h539l-269 674z" />
<glyph unicode="&#xc3;" horiz-adv-x="1384" d="M-12 0v66h186l451 1116h-195v65h309l475 -1181h187v-66h-486v66h224l-150 368h-592l-147 -368h223v-66h-485zM328 1405q1 1 12.5 28t14.5 32.5t15 28.5t19 30.5t21 23.5t26.5 22t30.5 11.5t37 5.5q39 0 83.5 -19t78.5 -42.5t75 -42.5t72 -19q40 0 71 31t66 102l41 -22 q-41 -89 -66 -121q-49 -58 -114 -59q-38 0 -82.5 19t-78.5 42.5t-74 42.5t-70 19q-40 0 -72.5 -32.5t-66.5 -99.5zM424 502h539l-269 674z" />
<glyph unicode="&#xc4;" horiz-adv-x="1384" d="M-12 0v66h186l451 1116h-195v65h309l475 -1181h187v-66h-486v66h224l-150 368h-592l-147 -368h223v-66h-485zM424 502h539l-269 674zM430 1464q0 27 19.5 46.5t46.5 19.5q28 0 46.5 -19t18.5 -47t-18.5 -46.5t-46.5 -18.5q-27 0 -46.5 19t-19.5 46zM758 1464 q0 28 18.5 47t46.5 19t47 -19t19 -47t-19 -46.5t-47 -18.5t-46.5 18.5t-18.5 46.5z" />
<glyph unicode="&#xc5;" horiz-adv-x="1384" d="M-12 0v66h186l451 1116h-195v65h309l475 -1181h187v-66h-486v66h224l-150 368h-592l-147 -368h223v-66h-485zM424 502h539l-269 674zM457 1565q0 85 56.5 142.5t148.5 57.5t148 -57.5t56 -142.5t-56 -143t-148 -58t-148.5 58t-56.5 143zM520 1565q0 -61 37.5 -105.5 t104.5 -44.5t104 44.5t37 105.5t-37 105t-104 44t-104.5 -44t-37.5 -105z" />
<glyph unicode="&#xc6;" horiz-adv-x="1867" d="M-18 0v66h176l755 1116h-174v65h1014v-321h-70v256h-591v-520h573v-66h-573v-530h594v253h69v-319h-946v66h211v364h-533l-245 -364h192v-66h-452zM530 496h490v686h-27z" />
<glyph unicode="&#xc7;" horiz-adv-x="1251" d="M94 625q0 138 43 255.5t124.5 205t208 137t284.5 49.5q223 0 411 -90v-271h-71v232q-145 63 -336 63q-126 0 -233 -38t-186.5 -109.5t-124 -183.5t-44.5 -252q0 -118 32.5 -216t87.5 -165t129.5 -113t157.5 -67t173 -21q215 0 421 115v-70q-183 -108 -413 -111l-23 -61 q30 -2 58.5 -9.5t56 -22.5t44.5 -43t17 -66q0 -80 -70 -117t-175 -37q-46 0 -84 6l16 56q50 -5 70 -5q174 0 174 99q0 29 -16 48.5t-45 28.5t-57 12t-65 3v35l37 75q-128 9 -237 56t-190.5 127.5t-128 200t-46.5 264.5z" />
<glyph unicode="&#xc8;" horiz-adv-x="1163" d="M72 0v66h211v1116h-211v65h977v-321h-70v256h-623v-520h605v-66h-605v-530h625v253h70v-319h-979zM346 1655l55 69l340 -309l-26 -31z" />
<glyph unicode="&#xc9;" horiz-adv-x="1163" d="M72 0v66h211v1116h-211v65h977v-321h-70v256h-623v-520h605v-66h-605v-530h625v253h70v-319h-979zM469 1415l340 309l55 -69l-370 -271z" />
<glyph unicode="&#xca;" horiz-adv-x="1163" d="M72 0v66h211v1116h-211v65h977v-321h-70v256h-623v-520h605v-66h-605v-530h625v253h70v-319h-979zM289 1415l293 273h45l293 -273l-29 -31l-287 218l-287 -218z" />
<glyph unicode="&#xcb;" horiz-adv-x="1163" d="M72 0v66h211v1116h-211v65h977v-321h-70v256h-623v-520h605v-66h-605v-530h625v253h70v-319h-979zM389 1464q0 27 19.5 46.5t46.5 19.5q28 0 46.5 -19t18.5 -47t-18.5 -46.5t-46.5 -18.5q-27 0 -46.5 19t-19.5 46zM717 1464q0 28 18.5 47t46.5 19t47 -19t19 -47 t-19 -46.5t-47 -18.5t-46.5 18.5t-18.5 46.5z" />
<glyph unicode="&#xcc;" horiz-adv-x="638" d="M72 0v66h211v1116h-211v65h495v-65h-211v-1116h211v-66h-495zM104 1655l56 69l340 -309l-27 -31z" />
<glyph unicode="&#xcd;" horiz-adv-x="638" d="M72 0v66h211v1116h-211v65h495v-65h-211v-1116h211v-66h-495zM150 1415l339 309l56 -69l-371 -271z" />
<glyph unicode="&#xce;" horiz-adv-x="638" d="M4 1415l293 273h45l293 -273l-29 -31l-287 218l-286 -218zM72 0v66h211v1116h-211v65h495v-65h-211v-1116h211v-66h-495z" />
<glyph unicode="&#xcf;" horiz-adv-x="638" d="M72 0v66h211v1116h-211v65h495v-65h-211v-1116h211v-66h-495zM90 1464q0 27 19.5 46.5t46.5 19.5q28 0 46.5 -19t18.5 -47t-18.5 -46.5t-46.5 -18.5q-27 0 -46.5 19t-19.5 46zM418 1464q0 28 18.5 47t46.5 19t47 -19t19 -47t-19 -46.5t-47 -18.5t-46.5 18.5t-18.5 46.5z " />
<glyph unicode="&#xd0;" horiz-adv-x="1370" d="M74 0v66h211v532h-193v64h193v520h-211v65h547q100 0 192 -22t176 -71t146 -120.5t98.5 -177t36.5 -233.5q0 -127 -36.5 -232.5t-98.5 -176.5t-146 -120t-176 -71.5t-192 -22.5h-547zM358 66h267q163 0 291 64t203 191.5t75 301.5q0 175 -75 303t-203 192t-291 64h-267 v-520h367v-64h-367v-532z" />
<glyph unicode="&#xd1;" horiz-adv-x="1507" d="M72 0v66h211v1116h-211v65h286l818 -1128v1063h-211v65h491v-65h-211v-1182h-67l-826 1139v-1073h211v-66h-491zM434 1405q1 1 12.5 28t14.5 32.5t15 28.5t19 30.5t21 23.5t26.5 22t30.5 11.5t37 5.5q39 0 84 -19t79 -42.5t75 -42.5t72 -19q40 0 71 31t66 102l41 -22 q-41 -89 -66 -121q-48 -59 -114 -59q-38 0 -83 19t-79 42.5t-74 42.5t-70 19q-40 0 -72.5 -32.5t-66.5 -99.5z" />
<glyph unicode="&#xd2;" d="M98 625q0 183 74.5 329t218.5 232t334 86q189 0 332.5 -86t218 -232t74.5 -329t-74.5 -330t-218 -233.5t-332.5 -86.5q-143 0 -261.5 50.5t-198 138t-123.5 206t-44 255.5zM174 625q0 -261 150.5 -422.5t400.5 -161.5q246 0 397.5 163t151.5 421q0 260 -150 420.5 t-399 160.5q-248 0 -399.5 -161.5t-151.5 -419.5zM426 1663l55 70l340 -310l-26 -30z" />
<glyph unicode="&#xd3;" d="M98 625q0 183 74.5 329t218.5 232t334 86q189 0 332.5 -86t218 -232t74.5 -329t-74.5 -330t-218 -233.5t-332.5 -86.5q-143 0 -261.5 50.5t-198 138t-123.5 206t-44 255.5zM174 625q0 -261 150.5 -422.5t400.5 -161.5q246 0 397.5 163t151.5 421q0 260 -150 420.5 t-399 160.5q-248 0 -399.5 -161.5t-151.5 -419.5zM553 1423l340 310l55 -70l-370 -270z" />
<glyph unicode="&#xd4;" d="M98 625q0 183 74.5 329t218.5 232t334 86q189 0 332.5 -86t218 -232t74.5 -329t-74.5 -330t-218 -233.5t-332.5 -86.5q-143 0 -261.5 50.5t-198 138t-123.5 206t-44 255.5zM174 625q0 -261 150.5 -422.5t400.5 -161.5q246 0 397.5 163t151.5 421q0 260 -150 420.5 t-399 160.5q-248 0 -399.5 -161.5t-151.5 -419.5zM408 1421l292 273h45l293 -273l-28 -30l-287 217l-287 -217z" />
<glyph unicode="&#xd5;" d="M98 625q0 183 74.5 329t218.5 232t334 86q189 0 332.5 -86t218 -232t74.5 -329t-74.5 -330t-218 -233.5t-332.5 -86.5q-143 0 -261.5 50.5t-198 138t-123.5 206t-44 255.5zM174 625q0 -261 150.5 -422.5t400.5 -161.5q246 0 397.5 163t151.5 421q0 260 -150 420.5 t-399 160.5q-248 0 -399.5 -161.5t-151.5 -419.5zM389 1411q1 1 12.5 28t14.5 32.5t15 28.5t19 30.5t21 23.5t26.5 22t30.5 11.5t37 5.5q39 0 83.5 -19t78.5 -42.5t75 -42.5t72 -19q40 0 71.5 31.5t66.5 102.5l41 -23q-42 -91 -69 -123q-48 -57 -112 -57q-38 0 -82.5 19 t-78.5 42.5t-74 42.5t-70 19q-40 0 -72.5 -32.5t-66.5 -98.5z" />
<glyph unicode="&#xd6;" d="M98 625q0 183 74.5 329t218.5 232t334 86q189 0 332.5 -86t218 -232t74.5 -329t-74.5 -330t-218 -233.5t-332.5 -86.5q-143 0 -261.5 50.5t-198 138t-123.5 206t-44 255.5zM174 625q0 -261 150.5 -422.5t400.5 -161.5q246 0 397.5 163t151.5 421q0 260 -150 420.5 t-399 160.5q-248 0 -399.5 -161.5t-151.5 -419.5zM494 1470q0 28 19 47t46 19q28 0 47 -19t19 -47t-19 -46.5t-47 -18.5q-27 0 -46 19t-19 46zM821 1470q0 28 19 47t47 19t46.5 -19t18.5 -47t-18.5 -46.5t-46.5 -18.5t-47 18.5t-19 46.5z" />
<glyph unicode="&#xd7;" horiz-adv-x="929" d="M102 152l322 321l-322 322l41 43l322 -324l321 324l41 -43l-321 -322l321 -321l-41 -41l-321 321l-322 -321z" />
<glyph unicode="&#xd8;" d="M98 623q0 184 74.5 330.5t218.5 232.5t334 86q229 0 391 -127l103 123l43 -35l-103 -125q92 -88 141.5 -213t49.5 -272q0 -183 -74.5 -329.5t-218 -232.5t-332.5 -86q-233 0 -395 127l-101 -122l-43 34l103 125q-92 88 -141.5 213t-49.5 271zM174 627q0 -271 160 -434 l739 897q-144 116 -348 116q-248 0 -399.5 -160.5t-151.5 -418.5zM375 156q140 -115 350 -115q246 0 397.5 161t151.5 419q0 132 -42.5 243.5t-119.5 188.5z" />
<glyph unicode="&#xd9;" horiz-adv-x="1415" d="M39 1182v65h496v-65h-211v-781q0 -93 32 -164t87 -112.5t123 -61.5t147 -20q168 0 274.5 89.5t106.5 268.5v781h-211v65h491v-65h-211v-785q0 -204 -123 -313t-327 -109q-209 0 -336 113t-127 311v783h-211zM426 1655l55 69l340 -309l-26 -31z" />
<glyph unicode="&#xda;" horiz-adv-x="1415" d="M39 1182v65h496v-65h-211v-781q0 -93 32 -164t87 -112.5t123 -61.5t147 -20q168 0 274.5 89.5t106.5 268.5v781h-211v65h491v-65h-211v-785q0 -204 -123 -313t-327 -109q-209 0 -336 113t-127 311v783h-211zM578 1415l340 309l55 -69l-371 -271z" />
<glyph unicode="&#xdb;" horiz-adv-x="1415" d="M39 1182v65h496v-65h-211v-781q0 -93 32 -164t87 -112.5t123 -61.5t147 -20q168 0 274.5 89.5t106.5 268.5v781h-211v65h491v-65h-211v-785q0 -204 -123 -313t-327 -109q-209 0 -336 113t-127 311v783h-211zM391 1415l293 273h45l293 -273l-29 -31l-286 218l-287 -218z " />
<glyph unicode="&#xdc;" horiz-adv-x="1415" d="M39 1182v65h496v-65h-211v-781q0 -93 32 -164t87 -112.5t123 -61.5t147 -20q168 0 274.5 89.5t106.5 268.5v781h-211v65h491v-65h-211v-785q0 -204 -123 -313t-327 -109q-209 0 -336 113t-127 311v783h-211zM477 1464q0 27 19.5 46.5t46.5 19.5q28 0 46.5 -19t18.5 -47 t-18.5 -46.5t-46.5 -18.5q-27 0 -46.5 19t-19.5 46zM805 1464q0 28 18.5 47t46.5 19t47 -19t19 -47t-19 -46.5t-47 -18.5t-46.5 18.5t-18.5 46.5z" />
<glyph unicode="&#xdd;" horiz-adv-x="1273" d="M-16 1182v65h487v-65h-217l383 -635l385 635h-215v65h483v-65h-188l-428 -701v-415h211v-66h-496v66h211v415l-428 701h-188zM485 1415l340 309l56 -69l-371 -271z" />
<glyph unicode="&#xde;" horiz-adv-x="1130" d="M72 0v66h211v1116h-211v65h532v-65h-248v-181h228q50 0 96.5 -5t103.5 -18t103.5 -39.5t86.5 -65t62.5 -99t22.5 -137.5q0 -66 -17.5 -120.5t-46 -91.5t-69 -65.5t-82 -44.5t-90.5 -26t-88.5 -13.5t-81.5 -3.5h-228v-206h248v-66h-532zM356 338h228q197 0 298 75.5 t101 223.5t-101 223.5t-298 75.5h-228v-598z" />
<glyph unicode="&#xdf;" horiz-adv-x="1052" d="M51 799v61h189v254q0 153 89 254.5t249 101.5q61 0 115 -16t98.5 -48t70 -86t25.5 -124q0 -59 -20 -112t-48.5 -91.5t-56.5 -74t-48 -75t-20 -79.5q0 -42 20.5 -82t51.5 -71.5t67.5 -70.5t67.5 -76.5t51.5 -92.5t20.5 -117q0 -134 -86.5 -201t-218.5 -67q-92 0 -187 28 v64q107 -31 185 -31q102 0 169.5 50.5t67.5 156.5q0 64 -28.5 119.5t-69 96.5l-81 82t-69 95.5t-28.5 116.5q0 51 19.5 97t47.5 82t56 72.5t47.5 83.5t19.5 99q0 100 -64.5 155.5t-172.5 55.5q-75 0 -130 -27t-84.5 -72t-43 -94t-13.5 -104v-1112h-243v61h174v738h-189z" />
<glyph unicode="&#xe0;" horiz-adv-x="933" d="M70 223q0 64 26 113t65 76.5t93 45.5t101 23.5t98 5.5h217v93q0 132 -53 185.5t-179 53.5q-147 0 -299 -61v63q154 62 307 62q155 0 224 -70.5t69 -220.5v-531h170v-61h-239v117q-174 -140 -336 -140q-112 0 -188 64t-76 182zM141 223q0 -88 57.5 -135t145.5 -47 q155 0 326 149v236h-217q-58 0 -107 -8t-98.5 -28.5t-78 -63t-28.5 -103.5zM207 1292l51 64l315 -287l-24 -29z" />
<glyph unicode="&#xe1;" horiz-adv-x="933" d="M70 223q0 64 26 113t65 76.5t93 45.5t101 23.5t98 5.5h217v93q0 132 -53 185.5t-179 53.5q-147 0 -299 -61v63q154 62 307 62q155 0 224 -70.5t69 -220.5v-531h170v-61h-239v117q-174 -140 -336 -140q-112 0 -188 64t-76 182zM141 223q0 -88 57.5 -135t145.5 -47 q155 0 326 149v236h-217q-58 0 -107 -8t-98.5 -28.5t-78 -63t-28.5 -103.5zM283 1069l315 287l51 -64l-342 -252z" />
<glyph unicode="&#xe2;" horiz-adv-x="933" d="M70 223q0 64 26 113t65 76.5t93 45.5t101 23.5t98 5.5h217v93q0 132 -53 185.5t-179 53.5q-147 0 -299 -61v63q154 62 307 62q155 0 224 -70.5t69 -220.5v-531h170v-61h-239v117q-174 -140 -336 -140q-112 0 -188 64t-76 182zM129 1069l272 252h41l273 -252l-27 -29 l-266 201l-266 -201zM141 223q0 -88 57.5 -135t145.5 -47q155 0 326 149v236h-217q-58 0 -107 -8t-98.5 -28.5t-78 -63t-28.5 -103.5z" />
<glyph unicode="&#xe3;" horiz-adv-x="933" d="M70 223q0 64 26 113t65 76.5t93 45.5t101 23.5t98 5.5h217v93q0 132 -53 185.5t-179 53.5q-147 0 -299 -61v63q154 62 307 62q155 0 224 -70.5t69 -220.5v-531h170v-61h-239v117q-174 -140 -336 -140q-112 0 -188 64t-76 182zM113 1085l18.5 37t19 35t25.5 37t28 26.5 t36.5 22t42.5 6.5q45 0 97.5 -30.5t102 -60.5t86.5 -30q36 0 63 27t62 94l41 -22q-17 -36 -27.5 -55.5t-32.5 -49.5t-49.5 -44.5t-60.5 -14.5q-45 0 -97 30.5t-101 60.5t-86 30q-36 0 -63.5 -26.5t-61.5 -92.5zM141 223q0 -88 57.5 -135t145.5 -47q155 0 326 149v236h-217 q-58 0 -107 -8t-98.5 -28.5t-78 -63t-28.5 -103.5z" />
<glyph unicode="&#xe4;" horiz-adv-x="933" d="M70 223q0 64 26 113t65 76.5t93 45.5t101 23.5t98 5.5h217v93q0 132 -53 185.5t-179 53.5q-147 0 -299 -61v63q154 62 307 62q155 0 224 -70.5t69 -220.5v-531h170v-61h-239v117q-174 -140 -336 -140q-112 0 -188 64t-76 182zM141 223q0 -88 57.5 -135t145.5 -47 q155 0 326 149v236h-217q-58 0 -107 -8t-98.5 -28.5t-78 -63t-28.5 -103.5zM201 1135q0 26 17.5 43.5t43.5 17.5t44 -17.5t18 -43.5t-18 -44t-44 -18t-43.5 18t-17.5 44zM528 1135q0 26 18 43.5t44 17.5t43.5 -17.5t17.5 -43.5t-17.5 -44t-43.5 -18t-44 18t-18 44z" />
<glyph unicode="&#xe5;" horiz-adv-x="933" d="M70 223q0 64 26 113t65 76.5t93 45.5t101 23.5t98 5.5h217v93q0 132 -53 185.5t-179 53.5q-147 0 -299 -61v63q154 62 307 62q155 0 224 -70.5t69 -220.5v-531h170v-61h-239v117q-174 -140 -336 -140q-112 0 -188 64t-76 182zM141 223q0 -88 57.5 -135t145.5 -47 q155 0 326 149v236h-217q-58 0 -107 -8t-98.5 -28.5t-78 -63t-28.5 -103.5zM221 1235q0 85 56.5 143t148.5 58t148.5 -58t56.5 -143t-56.5 -143t-148.5 -58t-148.5 58t-56.5 143zM285 1235q0 -61 37 -105.5t104 -44.5t104 44.5t37 105.5t-37 105t-104 44t-104 -44t-37 -105z " />
<glyph unicode="&#xe6;" horiz-adv-x="1486" d="M70 221q0 64 26 113t64.5 76t92.5 44t101 22t99 5h217v99q0 132 -53 185.5t-179 53.5q-147 0 -299 -61v63q154 62 307 62q127 0 193 -49t84 -150q48 94 132 146.5t192 52.5q95 0 167.5 -40t113 -104.5t60 -135t19.5 -142.5q0 -27 -2 -39h-676q2 -176 93 -278.5 t251 -102.5q156 0 297 88v-68q-143 -84 -297 -84q-220 0 -328 156q-72 -59 -178 -107.5t-219 -48.5q-122 0 -200 63t-78 181zM141 223q0 -89 59.5 -135.5t155.5 -46.5t193 41.5t170 99.5q-51 105 -51 240h-215q-312 0 -312 -199zM731 481h606q-3 66 -21 124.5t-52 108 t-90.5 78.5t-129.5 29q-133 0 -217 -93t-96 -247z" />
<glyph unicode="&#xe7;" horiz-adv-x="892" d="M88 430q0 205 117 329t317 124q150 0 289 -60v-225h-66v184q-105 37 -223 37q-176 0 -269 -106.5t-93 -278.5q0 -180 97.5 -286.5t260.5 -106.5q157 0 297 94v-67q-139 -88 -295 -91l-22 -63q30 -2 58.5 -9.5t56 -22.5t44.5 -43t17 -66q0 -80 -70.5 -117t-175.5 -37 q-46 0 -84 6l16 56q50 -5 70 -5q174 0 174 99q0 29 -15.5 48.5t-44.5 28.5t-57 12t-65 3v35l39 80q-173 17 -273 138t-100 310z" />
<glyph unicode="&#xe8;" horiz-adv-x="917" d="M88 426q0 206 107.5 331.5t281.5 125.5q77 0 139.5 -27t103 -69.5t68 -99t39 -113t11.5 -113.5q0 -27 -2 -39h-676q2 -176 93 -278.5t251 -102.5q156 0 297 88v-68q-143 -84 -297 -84q-196 0 -306 122t-110 327zM162 481h606q-3 66 -21 124.5t-52 108t-90.5 78.5 t-129.5 29q-133 0 -217 -93t-96 -247zM227 1292l52 64l315 -287l-25 -29z" />
<glyph unicode="&#xe9;" horiz-adv-x="917" d="M88 426q0 206 107.5 331.5t281.5 125.5q77 0 139.5 -27t103 -69.5t68 -99t39 -113t11.5 -113.5q0 -27 -2 -39h-676q2 -176 93 -278.5t251 -102.5q156 0 297 88v-68q-143 -84 -297 -84q-196 0 -306 122t-110 327zM162 481h606q-3 66 -21 124.5t-52 108t-90.5 78.5 t-129.5 29q-133 0 -217 -93t-96 -247zM330 1069l315 287l51 -64l-342 -252z" />
<glyph unicode="&#xea;" horiz-adv-x="917" d="M88 426q0 206 107.5 331.5t281.5 125.5q77 0 139.5 -27t103 -69.5t68 -99t39 -113t11.5 -113.5q0 -27 -2 -39h-676q2 -176 93 -278.5t251 -102.5q156 0 297 88v-68q-143 -84 -297 -84q-196 0 -306 122t-110 327zM162 481h606q-3 66 -21 124.5t-52 108t-90.5 78.5 t-129.5 29q-133 0 -217 -93t-96 -247zM166 1069l272 252h41l273 -252l-27 -29l-266 201l-266 -201z" />
<glyph unicode="&#xeb;" horiz-adv-x="917" d="M88 426q0 206 107.5 331.5t281.5 125.5q77 0 139.5 -27t103 -69.5t68 -99t39 -113t11.5 -113.5q0 -27 -2 -39h-676q2 -176 93 -278.5t251 -102.5q156 0 297 88v-68q-143 -84 -297 -84q-196 0 -306 122t-110 327zM162 481h606q-3 66 -21 124.5t-52 108t-90.5 78.5 t-129.5 29q-133 0 -217 -93t-96 -247zM238 1135q0 26 17.5 43.5t43.5 17.5t43.5 -17.5t17.5 -43.5t-17.5 -44t-43.5 -18t-43.5 18t-17.5 44zM565 1135q0 26 18 43.5t44 17.5t43.5 -17.5t17.5 -43.5t-17.5 -44t-43.5 -18t-44 18t-18 44z" />
<glyph unicode="&#xec;" horiz-adv-x="507" d="M16 1292l52 64l315 -287l-25 -29zM59 0v61h174v738h-174v61h244v-799h174v-61h-418z" />
<glyph unicode="&#xed;" horiz-adv-x="507" d="M59 0v61h174v738h-174v61h244v-799h174v-61h-418zM72 1069l315 287l51 -64l-342 -252z" />
<glyph unicode="&#xee;" horiz-adv-x="507" d="M-57 1069l272 252h41l272 -252l-26 -29l-266 201l-267 -201zM59 0v61h174v738h-174v61h244v-799h174v-61h-418z" />
<glyph unicode="&#xef;" horiz-adv-x="507" d="M10 1135q0 26 18 43.5t44 17.5t43.5 -17.5t17.5 -43.5t-17.5 -44t-43.5 -18t-44 18t-18 44zM59 0v61h174v738h-174v61h244v-799h174v-61h-418zM338 1135q0 26 17.5 43.5t43.5 17.5t44 -17.5t18 -43.5t-18 -44t-44 -18t-43.5 18t-17.5 44z" />
<glyph unicode="&#xf0;" horiz-adv-x="972" d="M90 408q0 194 105 319t276 125q95 0 169.5 -39t113.5 -100q-50 291 -293 526l-199 -178l-37 41l197 176q-79 71 -191 145l43 39q113 -70 195 -143l143 129l35 -41l-139 -125q166 -163 256 -372t90 -437q0 -111 -22 -200t-66.5 -156t-118.5 -103.5t-172 -36.5 q-125 0 -213.5 59t-130 154.5t-41.5 217.5zM160 410q0 -174 87.5 -272.5t225.5 -98.5q139 0 225 99.5t86 273.5q0 175 -85.5 277t-223.5 102q-141 0 -228 -104t-87 -277z" />
<glyph unicode="&#xf1;" horiz-adv-x="1105" d="M59 0v61h174v738h-174v61h244v-143q173 166 356 166q118 0 184 -73t66 -212v-537h174v-61h-417v61h174v525q0 233 -191 233q-164 0 -346 -174v-584h174v-61h-418zM250 1085l18.5 37t19 35t25.5 37t28 26.5t36.5 22t42.5 6.5q36 0 77 -19t72.5 -41.5t69.5 -41.5t68 -19 q36 0 62.5 27t61.5 94l41 -22q-17 -36 -27.5 -55.5t-32.5 -49.5t-49.5 -44.5t-60.5 -14.5q-45 0 -97 30.5t-101 60.5t-86 30q-36 0 -63.5 -26.5t-61.5 -92.5z" />
<glyph unicode="&#xf2;" horiz-adv-x="995" d="M88 430q0 210 116.5 331.5t293.5 121.5q178 0 293.5 -121t115.5 -332t-116 -332t-293 -121t-293.5 121t-116.5 332zM160 430q0 -181 92 -285t246 -104t246 104t92 285t-92 285t-246 104t-246 -104t-92 -285zM244 1292l51 64l315 -287l-24 -29z" />
<glyph unicode="&#xf3;" horiz-adv-x="995" d="M88 430q0 210 116.5 331.5t293.5 121.5q178 0 293.5 -121t115.5 -332t-116 -332t-293 -121t-293.5 121t-116.5 332zM160 430q0 -181 92 -285t246 -104t246 104t92 285t-92 285t-246 104t-246 -104t-92 -285zM350 1069l316 287l51 -64l-342 -252z" />
<glyph unicode="&#xf4;" horiz-adv-x="995" d="M88 430q0 210 116.5 331.5t293.5 121.5q178 0 293.5 -121t115.5 -332t-116 -332t-293 -121t-293.5 121t-116.5 332zM160 430q0 -181 92 -285t246 -104t246 104t92 285t-92 285t-246 104t-246 -104t-92 -285zM205 1069l272 252h41l273 -252l-27 -29l-266 201l-267 -201z " />
<glyph unicode="&#xf5;" horiz-adv-x="995" d="M88 430q0 210 116.5 331.5t293.5 121.5q178 0 293.5 -121t115.5 -332t-116 -332t-293 -121t-293.5 121t-116.5 332zM160 430q0 -181 92 -285t246 -104t246 104t92 285t-92 285t-246 104t-246 -104t-92 -285zM172 1085l18.5 37t19 35t25.5 37t28 26.5t36.5 22t42.5 6.5 q36 0 77 -19t72.5 -41.5t69.5 -41.5t68 -19q36 0 63 27t62 94l41 -22q-17 -36 -27.5 -55.5t-32.5 -49.5t-49.5 -44.5t-60.5 -14.5q-35 0 -76.5 19t-72.5 41.5t-68.5 41.5t-67.5 19q-36 0 -63.5 -26.5t-61.5 -92.5z" />
<glyph unicode="&#xf6;" horiz-adv-x="995" d="M88 430q0 210 116.5 331.5t293.5 121.5q178 0 293.5 -121t115.5 -332t-116 -332t-293 -121t-293.5 121t-116.5 332zM160 430q0 -181 92 -285t246 -104t246 104t92 285t-92 285t-246 104t-246 -104t-92 -285zM272 1135q0 26 18 43.5t44 17.5t43.5 -17.5t17.5 -43.5 t-17.5 -44t-43.5 -18t-44 18t-18 44zM600 1135q0 26 18 43.5t44 17.5t43.5 -17.5t17.5 -43.5t-17.5 -44t-43.5 -18t-44 18t-18 44z" />
<glyph unicode="&#xf7;" horiz-adv-x="1081" d="M137 442v62h807v-62h-807zM471 182q0 29 21 49.5t49 20.5q29 0 49 -20.5t20 -49.5t-20 -49t-49 -20q-28 0 -49 20t-21 49zM471 764q0 29 21 49.5t49 20.5q29 0 49 -20.5t20 -49.5t-20 -49.5t-49 -20.5q-28 0 -49 20.5t-21 49.5z" />
<glyph unicode="&#xf8;" horiz-adv-x="1005" d="M94 430q0 210 116.5 331.5t293.5 121.5q155 0 268 -99l86 101l37 -33l-88 -102q106 -125 106 -320q0 -211 -116 -332t-293 -121q-163 0 -271 99l-86 -101l-36 31l88 105q-105 121 -105 319zM166 430q0 -167 78 -268l485 573q-90 84 -225 84q-154 0 -246 -104t-92 -285z M276 125q87 -84 228 -84q154 0 246 104t92 285q0 163 -78 268z" />
<glyph unicode="&#xf9;" horiz-adv-x="1073" d="M18 799v61h244v-586q0 -233 191 -233q162 0 346 172v586h-174v61h243v-799h174v-61h-243v141q-82 -77 -174.5 -120.5t-182.5 -43.5q-117 0 -183 73t-66 212v537h-175zM221 1292l51 64l316 -287l-25 -29z" />
<glyph unicode="&#xfa;" horiz-adv-x="1073" d="M18 799v61h244v-586q0 -233 191 -233q162 0 346 172v586h-174v61h243v-799h174v-61h-243v141q-82 -77 -174.5 -120.5t-182.5 -43.5q-117 0 -183 73t-66 212v537h-175zM383 1069l315 287l52 -64l-342 -252z" />
<glyph unicode="&#xfb;" horiz-adv-x="1073" d="M18 799v61h244v-586q0 -233 191 -233q162 0 346 172v586h-174v61h243v-799h174v-61h-243v141q-82 -77 -174.5 -120.5t-182.5 -43.5q-117 0 -183 73t-66 212v537h-175zM205 1069l272 252h41l273 -252l-27 -29l-266 201l-267 -201z" />
<glyph unicode="&#xfc;" horiz-adv-x="1073" d="M18 799v61h244v-586q0 -233 191 -233q162 0 346 172v586h-174v61h243v-799h174v-61h-243v141q-82 -77 -174.5 -120.5t-182.5 -43.5q-117 0 -183 73t-66 212v537h-175zM276 1135q0 26 18 43.5t44 17.5t43.5 -17.5t17.5 -43.5t-17.5 -44t-43.5 -18t-44 18t-18 44zM604 1135 q0 26 18 43.5t44 17.5t43.5 -17.5t17.5 -43.5t-17.5 -44t-43.5 -18t-44 18t-18 44z" />
<glyph unicode="&#xfd;" horiz-adv-x="1046" d="M29 799v61h397v-59h-184l272 -797l307 797h-182v59h395v-61h-141l-408 -1049q-32 -82 -97.5 -131t-151.5 -49q-83 0 -177 57l23 56q79 -52 149 -52q138 0 197 152l84 217h-63l-281 799h-139zM408 1069l315 287l51 -64l-342 -252z" />
<glyph unicode="&#xfe;" horiz-adv-x="997" d="M-25 -346h175v1732h-175v62h244v-725q138 160 324 160q117 0 202 -65t124.5 -165.5t39.5 -220.5q0 -92 -25 -173.5t-72 -144.5t-121.5 -100t-166.5 -37q-178 0 -305 138v-461h199v-62h-443v62zM219 186q133 -145 301 -145q152 0 235 111t83 282q0 77 -18 145t-54 122.5 t-95.5 86t-135.5 31.5q-98 0 -172.5 -46t-143.5 -122v-465z" />
<glyph unicode="&#xff;" horiz-adv-x="1046" d="M29 799v61h397v-59h-184l272 -797l307 797h-182v59h395v-61h-141l-408 -1049q-32 -82 -97.5 -131t-151.5 -49q-83 0 -177 57l23 56q79 -52 149 -52q138 0 197 152l84 217h-63l-281 799h-139zM309 1135q0 26 18 43.5t44 17.5t43.5 -17.5t17.5 -43.5t-17.5 -44t-43.5 -18 t-44 18t-18 44zM637 1135q0 26 17.5 43.5t43.5 17.5t44 -17.5t18 -43.5t-18 -44t-44 -18t-43.5 18t-17.5 44z" />
<glyph unicode="&#x152;" horiz-adv-x="1757" d="M100 623q0 135 42.5 249.5t121.5 197.5t198.5 130t266.5 47h913v-321h-69v256h-592v-520h573v-66h-573v-530h594v253h70v-319h-916q-194 0 -338 81t-217.5 221t-73.5 321zM176 625q0 -263 150 -411t401 -148h182v1116h-182q-250 0 -400.5 -147.5t-150.5 -409.5z" />
<glyph unicode="&#x153;" horiz-adv-x="1656" d="M88 430q0 210 116 331.5t292 121.5q130 0 226 -71t142 -202q39 127 131.5 200t221.5 73q95 0 167.5 -40t113 -104.5t60 -135t19.5 -142.5q0 -27 -2 -39h-676q2 -176 93 -278.5t251 -102.5q156 0 297 88v-68q-143 -84 -297 -84q-148 0 -245 71t-136 198 q-44 -128 -141 -198.5t-227 -70.5q-174 0 -290 121t-116 332zM160 430q0 -181 91 -285t245 -104q153 0 243 103.5t90 285.5t-90 285.5t-243 103.5q-154 0 -245 -104t-91 -285zM901 481h606q-3 66 -21 124.5t-52 108t-90.5 78.5t-129.5 29q-133 0 -217 -93t-96 -247z" />
<glyph unicode="&#x178;" horiz-adv-x="1273" d="M-16 1182v65h487v-65h-217l383 -635l385 635h-215v65h483v-65h-188l-428 -701v-415h211v-66h-496v66h211v415l-428 701h-188zM410 1464q0 28 19 47t46 19q28 0 47 -19t19 -47t-19 -46.5t-47 -18.5q-27 0 -46 19t-19 46zM737 1464q0 28 19 47t47 19t46.5 -19t18.5 -47 t-18.5 -46.5t-46.5 -18.5t-47 18.5t-19 46.5z" />
<glyph unicode="&#x2c6;" horiz-adv-x="888" d="M145 1069l273 252h41l272 -252l-26 -29l-267 201l-266 -201z" />
<glyph unicode="&#x2dc;" horiz-adv-x="940" d="M158 1085l18.5 37t19 35t25.5 37t28 26.5t36.5 22t42.5 6.5q45 0 97.5 -30.5t102 -60.5t86.5 -30q36 0 63 27t62 94l41 -22q-17 -36 -27.5 -55.5t-32.5 -49.5t-49.5 -44.5t-60.5 -14.5q-45 0 -97 30.5t-101 60.5t-86 30q-36 0 -63.5 -26.5t-61.5 -92.5z" />
<glyph unicode="&#x2000;" horiz-adv-x="882" />
<glyph unicode="&#x2001;" horiz-adv-x="1765" />
<glyph unicode="&#x2002;" horiz-adv-x="882" />
<glyph unicode="&#x2003;" horiz-adv-x="1765" />
<glyph unicode="&#x2004;" horiz-adv-x="588" />
<glyph unicode="&#x2005;" horiz-adv-x="441" />
<glyph unicode="&#x2006;" horiz-adv-x="294" />
<glyph unicode="&#x2007;" horiz-adv-x="294" />
<glyph unicode="&#x2008;" horiz-adv-x="220" />
<glyph unicode="&#x2009;" horiz-adv-x="353" />
<glyph unicode="&#x200a;" horiz-adv-x="98" />
<glyph unicode="&#x2010;" horiz-adv-x="761" d="M129 436v68h504v-68h-504z" />
<glyph unicode="&#x2011;" horiz-adv-x="761" d="M129 436v68h504v-68h-504z" />
<glyph unicode="&#x2012;" horiz-adv-x="761" d="M129 436v68h504v-68h-504z" />
<glyph unicode="&#x2013;" horiz-adv-x="1140" d="M129 436v68h883v-68h-883z" />
<glyph unicode="&#x2014;" horiz-adv-x="1513" d="M129 436v68h1255v-68h-1255z" />
<glyph unicode="&#x2018;" horiz-adv-x="368" d="M104 1020q0 58 37 137.5t97 142.5l36 -26q-83 -103 -94 -211q28 0 46 -18t18 -44q0 -28 -19 -46.5t-51 -18.5q-33 0 -51.5 22.5t-18.5 61.5z" />
<glyph unicode="&#x2019;" horiz-adv-x="362" d="M104 965q84 105 95 211q-29 0 -46.5 18t-17.5 43q0 28 19 47t51 19q33 0 51 -22.5t18 -61.5q0 -58 -37 -138.5t-96 -142.5z" />
<glyph unicode="&#x201a;" horiz-adv-x="440" d="M121 -217q83 103 94 211q-28 0 -45.5 17.5t-17.5 43.5q0 29 19 47.5t50 18.5q33 0 51.5 -22.5t18.5 -61.5q0 -58 -37 -138.5t-96 -142.5z" />
<glyph unicode="&#x201c;" horiz-adv-x="679" d="M104 1020q0 58 37 137.5t97 142.5l36 -26q-83 -103 -94 -211q28 0 46 -18t18 -44q0 -28 -19 -46.5t-51 -18.5q-33 0 -51.5 22.5t-18.5 61.5zM416 1020q0 58 37 138t96 142l37 -26q-83 -103 -94 -211q28 0 45.5 -18t17.5 -44q0 -28 -19 -46.5t-51 -18.5q-33 0 -51 22.5 t-18 61.5z" />
<glyph unicode="&#x201d;" horiz-adv-x="673" d="M104 965q84 105 95 211q-29 0 -46.5 18t-17.5 43q0 28 19 47t51 19q33 0 51 -22.5t18 -61.5q0 -58 -37 -138.5t-96 -142.5zM416 965q83 103 94 211q-28 0 -46 18t-18 43q0 28 19 47t51 19q33 0 51.5 -22.5t18.5 -61.5q0 -58 -37 -138.5t-96 -142.5z" />
<glyph unicode="&#x201e;" horiz-adv-x="751" d="M121 -217q83 103 94 211q-28 0 -45.5 17.5t-17.5 43.5q0 29 19 47.5t50 18.5q33 0 51.5 -22.5t18.5 -61.5q0 -58 -37 -138.5t-96 -142.5zM432 -217q83 103 94 211q-28 0 -45.5 17.5t-17.5 43.5q0 29 18.5 47.5t50.5 18.5q33 0 51.5 -22.5t18.5 -61.5q0 -58 -37 -138.5 t-96 -142.5z" />
<glyph unicode="&#x2022;" horiz-adv-x="700" d="M162 594q0 78 55 133t133 55t133.5 -55t55.5 -133t-55.5 -133t-133.5 -55t-133 55t-55 133z" />
<glyph unicode="&#x2026;" horiz-adv-x="1574" d="M129 53q0 28 20 48t48 20t47.5 -20t19.5 -48q0 -29 -19.5 -49t-47.5 -20t-48 20t-20 49zM719 53q0 28 19.5 48t47.5 20t48 -20t20 -48q0 -29 -20 -49t-48 -20t-47.5 20t-19.5 49zM1309 53q0 28 19.5 48t47.5 20t48 -20t20 -48q0 -29 -20 -49t-48 -20t-47.5 20t-19.5 49z " />
<glyph unicode="&#x202f;" horiz-adv-x="353" />
<glyph unicode="&#x2039;" horiz-adv-x="565" d="M86 532v9l295 348h88l-299 -352l299 -353h-88z" />
<glyph unicode="&#x203a;" horiz-adv-x="565" d="M96 184l299 353l-299 352h88l295 -348v-9l-295 -348h-88z" />
<glyph unicode="&#x205f;" horiz-adv-x="441" />
<glyph unicode="&#x20ac;" horiz-adv-x="1120" d="M72 371l14 47h135q-4 32 -4 67q0 37 6 78h-151l14 47h143q16 76 51.5 141.5t91 118.5t138 83t182.5 30q153 0 291 -68v-172h-61v138q-124 45 -232 45q-159 0 -260 -86.5t-133 -229.5h418l-15 -47h-409q-6 -41 -6 -74q0 -46 4 -71h368l-14 -47h-346q31 -147 130.5 -237.5 t254.5 -90.5q164 0 309 100v-63q-150 -94 -309 -94q-189 0 -306 109t-147 276h-157z" />
<glyph unicode="&#x2122;" horiz-adv-x="1456" d="M145 1104v143h435v-143h-43v106h-152v-422h92v-38h-229v38h92v422h-152v-106h-43zM659 750v38h78l23 420h-76v39h133l174 -397l176 397h136v-39h-76l22 -420h78v-38h-205v38h82l-18 396l-178 -387h-33l-178 387l-19 -396h82v-38h-201z" />
<glyph unicode="&#xe000;" horiz-adv-x="860" d="M0 0v860h860v-860h-860z" />
</font>
</defs>
</svg>
