<?xml version="1.0" standalone="no"?>
<!DOCTYPE svg PUBLIC "-//W3C//DTD SVG 1.1//EN" "http://www.w3.org/Graphics/SVG/1.1/DTD/svg11.dtd" >
<svg xmlns="http://www.w3.org/2000/svg">
<metadata></metadata>
<defs>
<font id="SSGeomiconsSquared" >
<font-face font-family="SS Geomicons Squared" units-per-em="2048" ascent="2176" descent="-640" />
<missing-glyph  />
<glyph  horiz-adv-x="2048"  />
<glyph unicode="+" horiz-adv-x="2048" d="M1985 1281q27 0 45.5 -18.5t18.5 -45.5v-384q0 -27 -18.5 -45.5t-45.5 -18.5h-705v-705q0 -27 -18.5 -45.5t-45.5 -18.5h-384q-27 0 -45.5 18.5t-18.5 45.5v705h-705q-27 0 -46 18.5t-19 45.5v384q0 27 19 45.5t46 18.5h705v705q0 27 18.5 46t45.5 19h384q27 0 45.5 -19
t18.5 -46v-705h705z" />
<glyph unicode="-" horiz-adv-x="2048" d="M1985 1281q27 0 45.5 -18.5t18.5 -45.5v-384q0 -27 -18.5 -45.5t-45.5 -18.5h-1922q-27 0 -46 18.5t-19 45.5v384q0 27 19 45.5t46 18.5h1922z" />
<glyph unicode="&#x2139;" horiz-adv-x="2048" d="M1024 2048q209 0 398.5 -81t326.5 -218t218 -326.5t81 -398.5t-81 -398.5t-218 -326.5t-326.5 -218t-398.5 -81t-398.5 81t-326.5 218t-218 326.5t-81 398.5t81 398.5t218 326.5t326.5 218t398.5 81zM1024 1243q93 0 158.5 65.5t65.5 158.5q0 92 -65.5 158t-158.5 66
t-158.5 -66t-65.5 -158q0 -93 65.5 -158.5t158.5 -65.5zM1216 443v640q0 26 -19 45t-45 19h-256q-26 0 -45 -19t-19 -45v-640q0 -27 19 -45.5t45 -18.5h256q26 0 45 18.5t19 45.5z" />
<glyph unicode="&#x21a9;" horiz-adv-x="2048" d="M1024 1344q133 0 264.5 -41.5t243.5 -113.5t208.5 -171.5t163.5 -212t105.5 -238t38.5 -247.5q-283 256 -1024 256v-256q0 -40 -35 -57q-13 -7 -29 -7q-20 0 -37 12l-896 640q-27 19 -27 52t27 52l896 640q17 12 37 12q16 0 29 -7q35 -17 35 -57v-256z" />
<glyph unicode="&#x21aa;" horiz-adv-x="2048" d="M2048 128q0 -53 -37.5 -90.5t-90.5 -37.5h-1792q-53 0 -90.5 37.5t-37.5 90.5v1792q0 53 37.5 90.5t90.5 37.5h896v-256h-768v-1536h1536v768h256v-896zM1728 1509l-467 -466q-18 -19 -45 -19t-45 19l-128 128q-19 18 -19 45t19 45l466 467l-210 211q-19 18 -19 45
q0 28 16.5 46t47.5 18h640q26 0 45 -19t19 -45v-640q0 -31 -18 -47.5t-46 -16.5q-26 0 -45 19z" />
<glyph unicode="&#x21ba;" horiz-adv-x="1792" d="M128 1024h256q0 -104 40.5 -198.5t109.5 -163.5t163.5 -109.5t198.5 -40.5t198.5 40.5t163.5 109.5t109.5 163.5t40.5 198.5q0 177 -108.5 315t-275.5 181v-176q0 -32 -17.5 -48t-46.5 -16q-23 0 -41 15l-384 320q-23 18 -23 49t23 49l384 320q18 15 41 15q29 0 46.5 -16
t17.5 -48v-203q180 -30 326 -137t230 -270t84 -350q0 -156 -61 -298t-164 -245t-245 -164t-298 -61t-298 61t-245 164t-164 245t-61 298z" />
<glyph unicode="&#x21bb;" horiz-adv-x="1792" d="M1664 1024q0 -156 -61 -298t-164 -245t-245 -164t-298 -61t-298 61t-245 164t-164 245t-61 298q0 187 84 350t230 270t326 137v203q0 32 17.5 48t46.5 16q23 0 41 -15l384 -320q23 -18 23 -49t-23 -49l-384 -320q-18 -15 -41 -15q-29 0 -46.5 16t-17.5 48v176
q-167 -43 -275.5 -181t-108.5 -315q0 -104 40.5 -198.5t109.5 -163.5t163.5 -109.5t198.5 -40.5t198.5 40.5t163.5 109.5t109.5 163.5t40.5 198.5h256z" />
<glyph unicode="&#x221e;" horiz-adv-x="2048" d="M1536 1536q104 0 198.5 -40.5t163.5 -109.5t109.5 -163.5t40.5 -198.5t-40.5 -198.5t-109.5 -163.5t-163.5 -109.5t-198.5 -40.5q-74 0 -144.5 24t-135.5 71t-117.5 97.5t-114.5 121.5q-62 -71 -114.5 -121.5t-117.5 -97.5t-135.5 -71t-144.5 -24q-104 0 -198.5 40.5
t-163.5 109.5t-109.5 163.5t-40.5 198.5t40.5 198.5t109.5 163.5t163.5 109.5t198.5 40.5q74 0 144.5 -24t135.5 -71t117.5 -97.5t114.5 -121.5q62 71 114.5 121.5t117.5 97.5t135.5 71t144.5 24zM1536 768q106 0 181 75t75 181t-75 181t-181 75q-75 0 -157.5 -67
t-187.5 -189q105 -122 187.5 -189t157.5 -67zM512 768q75 0 157.5 67t187.5 189q-105 122 -187.5 189t-157.5 67q-106 0 -181 -75t-75 -181t75 -181t181 -75z" />
<glyph unicode="&#x22c6;" horiz-adv-x="2048" d="M2042 1256q6 -20 6 -40q0 -53 -38 -91l-399 -399l115 -573q7 -37 -6.5 -71.5t-44.5 -56.5q-32 -25 -75 -25q-34 0 -62 16l-514 286l-514 -286q-28 -16 -62 -16q-43 0 -75 25q-31 22 -44.5 56.5t-6.5 71.5l115 573l-400 399q-37 39 -37 91q0 20 6 40q11 34 38.5 57.5
t63.5 28.5l541 86l259 547q16 33 47.5 53t68.5 20t68 -20t48 -53l259 -547l541 -86q35 -5 63 -28.5t39 -57.5z" />
<glyph unicode="&#x2302;" horiz-adv-x="2048" d="M2010 1114q38 -36 38 -90q0 -26 -10 -49q-15 -36 -47 -57.5t-71 -21.5h-128v-768q0 -53 -37.5 -90.5t-90.5 -37.5h-384v640h-512v-640h-384q-53 0 -90.5 37.5t-37.5 90.5v768h-128q-39 0 -71 21.5t-47 57.5q-10 23 -10 49q0 53 37 90l896 896q38 38 91 38q54 0 90 -38z
" />
<glyph unicode="&#x2315;" horiz-adv-x="2048" d="M1600 1536q185 0 316.5 -131.5t131.5 -316.5t-131.5 -316.5t-316.5 -131.5h-1152q-185 0 -316.5 131.5t-131.5 316.5t131.5 316.5t316.5 131.5t316.5 -131.5t131.5 -316.5q0 -100 -43 -192h342q-43 92 -43 192q0 185 131.5 316.5t316.5 131.5zM256 1088q0 -80 56 -136
t136 -56t136 56t56 136t-56 136t-136 56t-136 -56t-56 -136zM1600 896q80 0 136 56t56 136t-56 136t-136 56t-136 -56t-56 -136t56 -136t136 -56z" />
<glyph unicode="&#x2316;" horiz-adv-x="2048" d="M1024 2048q208 0 397.5 -81t327 -218.5t218.5 -327t81 -397.5t-81 -397.5t-218.5 -327t-327 -218.5t-397.5 -81t-397.5 81t-327 218.5t-218.5 327t-81 397.5t81 397.5t218.5 327t327 218.5t397.5 81zM1152 267q241 41 414.5 214.5t214.5 414.5h-245q-53 0 -90.5 37.5
t-37.5 90.5t37.5 90.5t90.5 37.5h245q-41 241 -214.5 414.5t-414.5 214.5v-245q0 -53 -37.5 -90.5t-90.5 -37.5t-90.5 37.5t-37.5 90.5v245q-241 -41 -414.5 -214.5t-214.5 -414.5h245q53 0 90.5 -37.5t37.5 -90.5t-37.5 -90.5t-90.5 -37.5h-245q41 -241 214.5 -414.5
t414.5 -214.5v245q0 53 37.5 90.5t90.5 37.5t90.5 -37.5t37.5 -90.5v-245z" />
<glyph unicode="&#x231a;" horiz-adv-x="2048" d="M1664 1024q0 -154 -68.5 -288t-187.5 -224v-384q0 -52 -38 -90t-90 -38h-512q-52 0 -90 38t-38 90v384q-119 90 -187.5 224t-68.5 288t68.5 288t187.5 224v384q0 52 38 90t90 38h512q52 0 90 -38t38 -90v-384q119 -90 187.5 -224t68.5 -288zM512 1024q0 -104 40.5 -198.5
t109.5 -163.5t163.5 -109.5t198.5 -40.5t198.5 40.5t163.5 109.5t109.5 163.5t40.5 198.5t-40.5 198.5t-109.5 163.5t-163.5 109.5t-198.5 40.5t-198.5 -40.5t-163.5 -109.5t-109.5 -163.5t-40.5 -198.5zM1269 860q-19 -28 -53 -28q-21 0 -36 11l-192 128q-28 20 -28 53v320
q0 26 19 45t45 19t45 -19t19 -45v-286l163 -109q22 -14 27.5 -40.5t-9.5 -48.5z" />
<glyph unicode="&#x232b;" horiz-adv-x="2048" d="M2047 385q0 -53 -37.5 -90t-89.5 -37h-1150q-53 0 -90 37l-639 639q-37 37 -37 90t37 90l639 639q37 37 90 37h1150q52 0 89.5 -37t37.5 -90v-1278zM1582 622l101 101q19 19 19 45.5t-19 45.5l-210 210l210 210q19 19 19 45.5t-19 45.5l-101 101q-19 19 -45.5 19
t-45.5 -19l-210 -210l-210 210q-19 19 -45.5 19t-45.5 -19l-101 -101q-19 -19 -19 -45.5t19 -45.5l210 -210l-210 -210q-19 -19 -19 -45.5t19 -45.5l101 -101q19 -19 45.5 -19t45.5 19l210 210l210 -210q19 -19 45.5 -19t45.5 19z" />
<glyph unicode="&#x2399;" horiz-adv-x="2048" d="M1664 1664h-1280v256q0 53 37.5 90.5t90.5 37.5h1024q53 0 90.5 -37.5t37.5 -90.5v-256zM1664 1280q0 -53 37.5 -90.5t90.5 -37.5t90.5 37.5t37.5 90.5t-37.5 90.5t-90.5 37.5t-90.5 -37.5t-37.5 -90.5zM1920 1536q53 0 90.5 -37.5t37.5 -90.5v-896q0 -53 -37.5 -90.5
t-90.5 -37.5h-128v512h-1536v-512h-128q-53 0 -90.5 37.5t-37.5 90.5v896q0 53 37.5 90.5t90.5 37.5h1792zM384 768h1280v-640q0 -53 -37.5 -90.5t-90.5 -37.5h-1024q-53 0 -90.5 37.5t-37.5 90.5v640z" />
<glyph unicode="&#x23cf;" horiz-adv-x="2048" d="M64 1024q-26 0 -45 18.5t-19 45.5t20 47l960 896q20 17 44 17t44 -17l960 -896q20 -20 20 -47t-19 -45.5t-45 -18.5h-1920zM1984 512q26 0 45 -19t19 -45v-384q0 -26 -19 -45t-45 -19h-1920q-26 0 -45 19t-19 45v384q0 26 19 45t45 19h1920z" />
<glyph unicode="&#x23e9;" horiz-adv-x="2048" d="M1965 1069q19 -18 19 -45t-19 -45l-960 -960q-18 -19 -45 -19q-25 0 -44.5 19t-19.5 45v742l-787 -787q-18 -19 -45 -19q-25 0 -44.5 19t-19.5 45v1920q0 26 19.5 45t44.5 19q26 0 45 -19l787 -787v742q0 26 19.5 45t44.5 19q26 0 45 -19z" />
<glyph unicode="&#x23ea;" horiz-adv-x="2048" d="M83 1069l960 960q19 19 45 19q25 0 44.5 -19t19.5 -45v-742l787 787q19 19 45 19q25 0 44.5 -19t19.5 -45v-1920q0 -26 -19.5 -45t-44.5 -19q-27 0 -45 19l-787 787v-742q0 -26 -19.5 -45t-44.5 -19q-27 0 -45 19l-960 960q-19 18 -19 45t19 45z" />
<glyph unicode="&#x23ed;" horiz-adv-x="2048" d="M1984 2048q26 0 45 -19t19 -45v-1920q0 -26 -19 -45t-45 -19h-640q-26 0 -45 19t-19 45v685l-1182 -739q-14 -10 -34 -10q-25 0 -44.5 19t-19.5 45v1920q0 26 19.5 45t44.5 19q20 0 34 -10l1182 -739v685q0 26 19 45t45 19h640z" />
<glyph unicode="&#x23ee;" horiz-adv-x="2048" d="M64 2048h640q26 0 45 -19t19 -45v-685l1182 739q14 10 34 10q25 0 44.5 -19t19.5 -45v-1920q0 -26 -19.5 -45t-44.5 -19q-20 0 -34 10l-1182 739v-685q0 -26 -19 -45t-45 -19h-640q-26 0 -45 19t-19 45v1920q0 26 19 45t45 19z" />
<glyph unicode="&#x23f0;" horiz-adv-x="2048" d="M1568 2048q130 0 240.5 -64.5t175 -175t64.5 -240.5q0 -175 -112 -308q-80 242 -271.5 414.5t-443.5 225.5q67 70 157 109t190 39zM827 1900q-252 -53 -443.5 -225.5t-271.5 -414.5q-112 133 -112 308q0 130 64.5 240.5t175 175t240.5 64.5q100 0 190 -39t157 -109z
M1024 1792q169 0 323 -66t265.5 -177.5t177.5 -265.5t66 -323t-66 -323.5t-177.5 -265.5t-265.5 -177t-323 -66t-323.5 66t-265.5 177t-177 265.5t-66 323.5t66 323t177 265.5t265.5 177.5t323.5 66zM1152 960v448q0 53 -37.5 90.5t-90.5 37.5t-90.5 -37.5t-37.5 -90.5v-395
l-219 -218q-37 -37 -37 -91q0 -51 36.5 -89.5t91.5 -38.5q54 0 91 37l255 256q38 36 38 91zM280 202l60 85q91 -92 202 -157l-54 -76q-39 -54 -104 -54q-56 0 -92 38.5t-36 89.5q0 41 24 74zM1708 287l60 -85q24 -33 24 -74q0 -51 -36 -89.5t-92 -38.5q-65 0 -104 54l-54 76
q111 65 202 157z" />
<glyph unicode="&#x23f1;" horiz-adv-x="2048" d="M1742 1433q178 -238 178 -537q0 -182 -71 -348t-191 -286t-286 -191t-348 -71t-348 71t-286 191t-191 286t-71 348q0 222 101 414.5t276.5 317t390.5 155.5v201q0 26 19 45t45 19h128q26 0 45 -19t19 -45v-201q224 -32 409 -169l142 142q19 19 45 19t45 -19l91 -91
q19 -19 19 -45t-19 -45zM832 887q0 -79 56 -135.5t136 -56.5q96 0 154 78l556 50q25 2 41.5 20.5t16.5 43.5t-16.5 43.5t-41.5 20.5l-556 50q-58 78 -154 78q-80 0 -136 -56.5t-56 -135.5z" />
<glyph unicode="&#x23f2;" horiz-adv-x="2048" d="M1024 0q-209 0 -398.5 81t-326.5 218t-218 326.5t-81 398.5t81 398.5t218 326.5t326.5 218t398.5 81t398.5 -81t326.5 -218t218 -326.5t81 -398.5t-81 -398.5t-218 -326.5t-326.5 -218t-398.5 -81zM1408 640q69 0 106 57q30 44 19.5 96t-54.5 81l-327 218v572
q0 53 -37.5 90.5t-90.5 37.5t-90.5 -37.5t-37.5 -90.5v-640q0 -69 57 -107l384 -256q33 -21 71 -21z" />
<glyph unicode="&#x2421;" horiz-adv-x="2048" d="M1522 1884q19 19 45 19t45 -19l272 -272q19 -19 19 -45t-19 -45l-498 -498l498 -498q19 -19 19 -45t-19 -45l-272 -272q-19 -19 -45 -19t-45 19l-498 498l-498 -498q-19 -19 -45 -19t-45 19l-272 272q-19 19 -19 45t19 45l498 498l-498 498q-19 19 -19 45t19 45l272 272
q19 19 45 19t45 -19l498 -498z" />
<glyph unicode="&#x25a0;" horiz-adv-x="2048" d="M64 0q-26 0 -45 19t-19 45v1920q0 26 19 45t45 19h1920q26 0 45 -19t19 -45v-1920q0 -26 -19 -45t-45 -19h-1920z" />
<glyph unicode="&#x25b4;" horiz-adv-x="2048" d="M64 512q-25 0 -44.5 19t-19.5 45q0 27 19 45l960 960q18 19 45 19t45 -19l960 -960q19 -19 19 -45t-19.5 -45t-44.5 -19h-1920z" />
<glyph unicode="&#x25b6;" horiz-adv-x="2048" d="M0 1984q0 26 20 45t44 19q16 0 29 -7l1920 -960q35 -18 35 -57t-35 -57l-1920 -960q-13 -7 -29 -7q-24 0 -44 19t-20 45v1920z" />
<glyph unicode="&#x25b9;" horiz-adv-x="2048" d="M480 1984q0 25 19 44.5t45 19.5q27 0 45 -19l960 -960q19 -18 19 -45t-19 -45l-960 -960q-19 -19 -45 -19t-45 19.5t-19 44.5v1920z" />
<glyph unicode="&#x25bb;" horiz-adv-x="2048" d="M807 185q-19 -19 -45 -19t-45 19l-268 268q-19 19 -19 45.5t19 45.5l479 479l-479 479q-19 19 -19 45.5t19 45.5l268 268q19 19 45 19t45 -19l793 -793q19 -19 19 -45t-19 -45z" />
<glyph unicode="&#x25be;" horiz-adv-x="2048" d="M1984 1536q25 0 44.5 -19t19.5 -45t-19 -45l-960 -960q-18 -19 -45 -19t-45 19l-960 960q-19 18 -19 45q0 26 19.5 45t44.5 19h1920z" />
<glyph unicode="&#x25c3;" horiz-adv-x="2048" d="M1536 64q0 -25 -19 -44.5t-45 -19.5t-45 19l-960 960q-19 18 -19 45t19 45l960 960q18 19 45 19q26 0 45 -19.5t19 -44.5v-1920z" />
<glyph unicode="&#x25c5;" horiz-adv-x="2048" d="M1332 185q-19 -19 -45 -19t-45 19l-793 793q-19 19 -19 45t19 45l793 793q19 19 45 19t45 -19l268 -268q19 -19 19 -45.5t-19 -45.5l-479 -479l479 -479q19 -19 19 -45.5t-19 -45.5z" />
<glyph unicode="&#x25cf;" horiz-adv-x="2048" d="M1024 2048q209 0 398.5 -81t326.5 -218t218 -326.5t81 -398.5t-81 -398.5t-218 -326.5t-326.5 -218t-398.5 -81t-398.5 81t-326.5 218t-218 326.5t-81 398.5t81 398.5t218 326.5t326.5 218t398.5 81z" />
<glyph unicode="&#x25d0;" horiz-adv-x="2048" d="M1024 2048q209 0 398.5 -81t326.5 -218t218 -326.5t81 -398.5t-81 -398.5t-218 -326.5t-326.5 -218t-398.5 -81t-398.5 81t-326.5 218t-218 326.5t-81 398.5t81 398.5t218 326.5t326.5 218t398.5 81zM1792 1024q0 209 -103 385.5t-279.5 279.5t-385.5 103v-1536
q209 0 385.5 103t279.5 279.5t103 385.5z" />
<glyph unicode="&#x2600;" horiz-adv-x="2048" d="M384 1024q0 -130 51 -248.5t136.5 -204t204 -136.5t248.5 -51t248.5 51t204 136.5t136.5 204t51 248.5t-51 248.5t-136.5 204t-204 136.5t-248.5 51t-248.5 -51t-204 -136.5t-136.5 -204t-51 -248.5zM1024 512q-212 0 -362 150t-150 362t150 362t362 150t362 -150
t150 -362t-150 -362t-362 -150zM282 825l-282 199l282 199l-145 313l344 31l31 344l313 -145l199 282l199 -282l313 145l31 -344l344 -31l-145 -313l282 -199l-282 -199l145 -313l-344 -31l-31 -344l-313 145l-199 -282l-199 282l-313 -145l-31 344l-344 31z" />
<glyph unicode="&#x2601;" horiz-adv-x="2048" d="M1738 895q129 -4 219.5 -96.5t90.5 -222.5q0 -133 -93.5 -226.5t-226.5 -93.5h-1280q-185 0 -316.5 131.5t-131.5 316.5t131.5 316.5t316.5 131.5q29 0 64 -5v5q0 130 51 248.5t136.5 204t204 136.5t248.5 51t248.5 -51t204 -136.5t136.5 -204t51 -248.5q0 -135 -54 -257
z" />
<glyph unicode="&#x2607;" horiz-adv-x="2048" d="M1024 2048v-768h768l-768 -1280v768h-768z" />
<glyph unicode="&#x260e;" horiz-adv-x="2048" d="M128 1152q-21 0 -37.5 12t-23.5 32l-4 14q-4 13 -10 33t-13 47t-14 57.5t-13 62t-9.5 65t-3.5 61.5q0 46 32.5 89t87.5 77.5t104.5 58t105.5 43.5q318 116 694 116t694 -116q56 -20 105.5 -43.5t104.5 -58t87.5 -77.5t32.5 -89q0 -28 -3.5 -61.5t-9.5 -65t-13 -62
t-14 -57.5t-13 -47t-10 -33l-4 -14q-7 -20 -23.5 -32t-37.5 -12q-9 0 -13 1l-221 48l-187 256q-27 37 -68 58t-87 21h-640q-46 0 -87 -21t-68 -58l-187 -256l-221 -48q-4 -1 -13 -1zM704 1408h640q32 0 52 -26l512 -704q12 -17 12 -38v-448q0 -26 -19 -45t-45 -19h-1664
q-26 0 -45 19t-19 45v448q0 22 12 38l512 704q20 26 52 26zM640 768q0 -159 112.5 -271.5t271.5 -112.5t271.5 112.5t112.5 271.5t-112.5 271.5t-271.5 112.5t-271.5 -112.5t-112.5 -271.5z" />
<glyph unicode="&#x2615;" horiz-adv-x="2048" d="M576 512q-26 0 -45 19t-19 45v1152q0 26 19 45t45 19h896q26 0 45 -19t19 -45v-192h192q80 0 136 -56t56 -136v-384q0 -80 -56 -136t-136 -56h-192v-192q0 -26 -19 -45t-45 -19h-896zM1536 1344v-384h192v384h-192zM128 256q-52 0 -90 38t-38 90h2048q0 -52 -38 -90
t-90 -38h-1792z" />
<glyph unicode="&#x2622;" horiz-adv-x="2048" d="M1024 2048q209 0 398.5 -81t326.5 -218t218 -326.5t81 -398.5t-81 -398.5t-218 -326.5t-326.5 -218t-398.5 -81t-398.5 81t-326.5 218t-218 326.5t-81 398.5t81 398.5t218 326.5t326.5 218t398.5 81zM128 1024h896h896q0 244 -122 450.5t-326 325.5l-448 -776l-448 776
q-204 -119 -326 -325.5t-122 -450.5zM1024 128q240 0 448 120l-448 776l-448 -776q208 -120 448 -120z" />
<glyph unicode="&#x2660;" horiz-adv-x="2048" d="M128 896q0 109 58.5 227t163 237t211.5 223.5t243.5 237t219.5 227.5q83 -95 219.5 -227.5t243.5 -237t211.5 -223.5t163 -237t58.5 -227q0 -80 -14 -152t-47.5 -138.5t-83.5 -115t-127.5 -77.5t-175.5 -29q-120 0 -206 45t-166 127q32 -115 122 -242.5t167 -204.5
q19 -18 19 -45q0 -24 -19 -44t-45 -20h-640q-26 0 -45 20t-19 44q0 27 19 45q45 45 97.5 109t111.5 161.5t80 177.5q-81 -81 -169 -127t-203 -46q-98 0 -175.5 29t-127.5 77.5t-83.5 115t-47.5 138.5t-14 152z" />
<glyph unicode="&#x2663;" horiz-adv-x="2048" d="M1296 1244q85 36 176 36q185 0 316.5 -131.5t131.5 -316.5t-131.5 -316.5t-316.5 -131.5q-118 0 -218.5 57t-161.5 154q13 -83 74 -189.5t117 -176t106 -120.5q19 -18 19 -45q0 -24 -19 -44t-45 -20h-640q-26 0 -45 20t-19 44q0 27 19 45q50 51 106 120.5t117 176
t74 189.5q-60 -96 -161 -153.5t-219 -57.5q-185 0 -316.5 131.5t-131.5 316.5t131.5 316.5t316.5 131.5q91 0 176 -36q-82 63 -129 156t-47 200q0 185 131.5 316.5t316.5 131.5t316.5 -131.5t131.5 -316.5q0 -107 -47 -200t-129 -156z" />
<glyph unicode="&#x2665;" horiz-adv-x="2048" d="M1889 1761q77 -77 118 -176.5t41 -208.5t-41 -208.5t-118 -176.5l-771 -822q-38 -41 -94 -41t-94 41l-771 822q-77 77 -118 176.5t-41 208.5t41 208.5t118 176.5t176.5 118t208.5 41t208.5 -41t176.5 -118q58 -59 95 -128q37 69 95 128q77 77 176.5 118t208.5 41
t208.5 -41t176.5 -118z" />
<glyph unicode="&#x2666;" horiz-adv-x="2048" d="M1768 1098q24 -33 24 -74t-24 -74l-640 -896q-38 -54 -104 -54t-104 54l-640 896q-24 33 -24 74t24 74l640 896q38 54 104 54t104 -54z" />
<glyph unicode="&#x266b;" horiz-adv-x="2048" d="M0 448q0 185 131 316.5t317 131.5q100 0 192 -43v1131q0 26 19 45t45 19h1280q26 0 45 -19t19 -45v-1536q0 -185 -131.5 -316.5t-316.5 -131.5t-316.5 131.5t-131.5 316.5t131.5 316.5t316.5 131.5q100 0 192 -43v683h-896v-1088q0 -185 -131.5 -316.5t-316.5 -131.5
t-316.5 131.5t-131.5 316.5z" />
<glyph unicode="&#x2691;" horiz-adv-x="2048" d="M512 2048v-2048h-256v2048h256zM1546 1280l238 -416q18 -33 -1 -64q-18 -32 -55 -32q-111 0 -202 11t-168 34.5t-121 42t-116 52.5q-62 29 -99 44.5t-98.5 35t-130.5 28t-153 8.5v1024q111 0 202 -11t168 -34.5t121 -42t116 -52.5q62 -29 99 -44.5t98.5 -35t130.5 -28
t153 -8.5q37 0 55 -32q19 -31 1 -64z" />
<glyph unicode="&#x2698;" horiz-adv-x="2048" d="M640 1024q0 -159 112.5 -271.5t271.5 -112.5t271.5 112.5t112.5 271.5t-112.5 271.5t-271.5 112.5t-271.5 -112.5t-112.5 -271.5zM2048 1024q0 -83 -89 -157t-248 -128q74 -150 85 -263t-48 -176q-63 -59 -176 -48t-263 85q-54 -159 -128 -248t-157 -89t-157 89t-128 248
q-150 -74 -263 -85t-176 48q-59 63 -48 176t85 263q-159 54 -248 128t-89 157t89 157t248 128q-74 150 -85 263t48 176q63 59 176 48t263 -85q54 159 128 248t157 89t157 -89t128 -248q150 74 263 85t176 -48q59 -63 48 -176t-85 -263q159 -54 248 -128t89 -157z" />
<glyph unicode="&#x2699;" horiz-adv-x="2048" d="M640 1024q0 -159 112.5 -271.5t271.5 -112.5t271.5 112.5t112.5 271.5t-112.5 271.5t-271.5 112.5t-271.5 -112.5t-112.5 -271.5zM1992 1215q24 -3 40 -21t16 -42v-256q0 -24 -16 -42t-40 -21l-233 -32q-24 -76 -58 -139l143 -187q15 -20 13.5 -44t-18.5 -41l-181 -181
q-20 -18 -46 -18q-22 0 -39 13l-187 143q-63 -34 -139 -58l-32 -233q-3 -24 -21 -40t-42 -16h-256q-24 0 -42 16t-21 40l-32 233q-76 24 -139 58l-187 -143q-17 -13 -39 -13q-26 0 -46 18l-181 181q-17 17 -18.5 41t13.5 44l143 187q-34 63 -58 139l-233 32q-24 3 -40 21
t-16 42v256q0 24 16 42t40 21l233 32q24 76 58 139l-143 187q-15 20 -13.5 44t18.5 41l181 181q20 18 46 18q22 0 39 -13l187 -143q63 34 139 58l32 233q3 24 21 40t42 16h256q24 0 42 -16t21 -40l32 -233q76 -24 139 -58l187 143q17 13 39 13q26 0 46 -18l181 -181
q17 -17 18.5 -41t-13.5 -44l-143 -187q34 -63 58 -139z" />
<glyph unicode="&#x26a0;" horiz-adv-x="2048" d="M2032 320q18 -30 18 -65q0 -34 -17 -63q-17 -30 -47 -47.5t-64 -17.5h-1792q-34 0 -64 17.5t-47 47.5q-16 29 -16 64q0 36 17 64l896 1535q16 29 46 46.5t64 17.5t64 -17.5t46 -46.5zM1158 794l64 573q0 26 -19 45t-45 19h-260q-26 0 -45 -19t-19 -45l64 -573
q0 -27 19 -45.5t45 -18.5h132q26 0 45 18.5t19 45.5zM1026 267q68 0 116 48t48 116t-48 116t-116 48t-116 -48t-48 -116t48 -116t116 -48z" />
<glyph unicode="&#x26f0;" horiz-adv-x="2048" d="M640 1792q35 0 64.5 -17t46.5 -48l429 -750l265 266q39 37 91 37q78 0 114 -71l384 -768q14 -28 14 -57q0 -50 -38.5 -89t-89.5 -39h-1792q-51 0 -89.5 39.5t-38.5 88.5q0 24 9 48l512 1280q16 38 50 59t69 21z" />
<glyph unicode="&#x26f5;" horiz-adv-x="2048" d="M1792 512h-704q-26 0 -45 19t-19 45v1408q0 26 19 45t45 19q39 0 57 -35l704 -1408q7 -13 7 -29q0 -26 -19 -45t-45 -19zM832 512h-448q-26 0 -45 19.5t-19 45.5q0 12 5 25l448 1024q18 38 59 38q30 0 47 -18.5t17 -45.5v-1024q0 -26 -19 -45t-45 -19zM2018 266
q-103 -64 -184 -104.5t-200.5 -81.5t-270 -60.5t-339.5 -19.5t-339.5 19.5t-270 60.5t-200.5 81.5t-184 104.5q-30 19 -30 55q0 26 19 44.5t45 18.5h1920q26 0 45 -18.5t19 -44.5q0 -36 -30 -55z" />
<glyph unicode="&#x2702;" horiz-adv-x="2048" d="M448 1408q80 0 136 56t56 136t-56 136t-136 56t-136 -56t-56 -136t56 -136t136 -56zM928 928q40 0 68 28t28 68t-28 68t-68 28t-68 -28t-28 -68t28 -68t68 -28zM1025 677l283 260l740 -681q-104 -52 -230.5 -90t-217.5 -38q-48 0 -207.5 155t-367.5 394zM2048 1792
l-1214 -1117q62 -107 62 -227q0 -185 -131.5 -316.5t-316.5 -131.5t-316.5 131.5t-131.5 316.5t131.5 316.5t316.5 131.5q84 0 163 -31q48 62 125 159q-77 97 -125 159q-79 -31 -163 -31q-185 0 -316.5 131.5t-131.5 316.5t131.5 316.5t316.5 131.5t316.5 -131.5
t131.5 -316.5q0 -120 -62 -227l108 -99q232 273 418 459.5t240 186.5q91 0 217.5 -38t230.5 -90zM448 256q80 0 136 56t56 136t-56 136t-136 56t-136 -56t-56 -136t56 -136t136 -56z" />
<glyph unicode="&#x2708;" horiz-adv-x="2048" d="M2016 1015q32 -18 32 -55v-128q0 -26 -19 -45t-45 -19q-4 0 -16 2l-696 174l-53 -532l293 -234q24 -19 24 -50v-64q0 -26 -19.5 -45t-44.5 -19q-6 0 -18 2l-430 123l-430 -123q-12 -2 -18 -2q-25 0 -44.5 19t-19.5 45v64q0 31 24 50l293 234l-53 532l-696 -174
q-12 -2 -16 -2q-26 0 -45 19t-19 45v128q0 37 32 55l736 430v283q0 47 40.5 123t102.5 136.5t113 60.5t113 -60.5t102.5 -136.5t40.5 -123v-283z" />
<glyph unicode="&#x2709;" horiz-adv-x="2048" d="M1024 971l-1024 640v53q0 53 37.5 90.5t90.5 37.5h1792q53 0 90.5 -37.5t37.5 -90.5v-53zM1058 842l990 619v-1077q0 -53 -37.5 -90.5t-90.5 -37.5h-1792q-53 0 -90.5 37.5t-37.5 90.5v1077l990 -619q14 -10 34 -10t34 10z" />
<glyph unicode="&#x270e;" horiz-adv-x="2048" d="M2029 1645q19 -19 19 -45t-19 -45l-179 -179l-474 474l179 179q19 19 45 19t45 -19zM1285 1760l475 -475l-1203 -1202q-15 -15 -36 -18l-448 -64q-3 -1 -9 -1q-28 0 -47.5 23t-15.5 50l64 448q3 21 18 36zM128 128l384 64l-320 320z" />
<glyph unicode="&#x2713;" horiz-adv-x="2048" d="M1631 1798q19 19 45 19t45 -19l272 -272q19 -19 19 -45t-19 -45l-897 -914l-272 -272q-19 -19 -45 -19t-45 19l-679 679q-19 19 -19 45.5t19 45.5l272 271q19 19 45 19t45 -19l362 -362z" />
<glyph unicode="&#x27a1;" horiz-adv-x="2048" d="M2028 1067q18 -19 18 -44t-18 -44l-893 -957q-20 -20 -47 -20q-13 0 -24 4q-40 17 -40 59v447h-958q-26 0 -44.5 19t-18.5 45v894q0 26 18.5 45t44.5 19h958v447q0 42 40 59q13 5 24 5q26 0 47 -21z" />
<glyph unicode="&#x2922;" horiz-adv-x="2048" d="M1984 2047q27 0 46 -18.5t19 -45.5v-768q0 -42 -40 -59q-13 -5 -24 -5q-27 0 -46 19l-211 211l-339 -339q-18 -19 -45 -19t-45 19l-256 256q-19 18 -19 45t19 45l339 339l-211 211q-19 19 -19 45q0 12 5 25q16 39 59 39h768zM64 -2q-27 0 -46 19t-19 46v768q0 42 40 59
q13 5 24 5q27 0 46 -19l211 -211l339 339q18 19 45 19t45 -19l256 -256q19 -18 19 -45t-19 -45l-339 -339l211 -211q19 -19 19 -46q0 -11 -5 -24q-17 -40 -59 -40h-768z" />
<glyph unicode="&#x2940;" horiz-adv-x="2048" d="M1024 1600q53 0 90.5 -37.5t37.5 -90.5v-395l218 -219q38 -36 38 -90q0 -53 -37.5 -90.5t-90.5 -37.5q-54 0 -91 37l-256 256q-37 37 -37 91v448q0 53 37.5 90.5t90.5 37.5zM1024 2048q208 0 397.5 -81t327 -218.5t218.5 -327t81 -397.5t-81 -397.5t-218.5 -327
t-327 -218.5t-397.5 -81q-209 0 -398.5 81t-326.5 218t-218 326.5t-81 398.5h256q0 -156 60.5 -298t163.5 -245t245.5 -164t298.5 -61t298 61t245 164t164 245t61 298t-61 298t-164 245t-245 164t-298 61q-256 0 -460 -153l121 -122q19 -19 19 -45q0 -23 -16.5 -42
t-39.5 -22l-512 -64q-31 -3 -53 19t-19 53l64 512q3 23 22 39.5t42 16.5q26 0 45 -19l144 -144q281 227 643 227z" />
<glyph unicode="&#x2941;" horiz-adv-x="2048" d="M1024 2048q362 0 643 -227l144 144q19 19 45 19q23 0 42 -16.5t21 -39.5l64 -512q5 -30 -18 -53q-22 -22 -53 -19l-512 64q-23 3 -39.5 22t-16.5 42q0 26 19 45l121 122q-204 153 -460 153q-156 0 -298 -61t-245 -164t-164 -245t-61 -298t61 -298t164 -245t245 -164
t298 -61t298.5 61t245.5 164t163.5 245t60.5 298h256q0 -209 -81 -398.5t-218 -326.5t-326.5 -218t-398.5 -81q-208 0 -397.5 81t-327 218.5t-218.5 327t-81 397.5t81 397.5t218.5 327t327 218.5t397.5 81zM1024 1600q53 0 90.5 -37.5t37.5 -90.5v-395l219 -219
q37 -36 37 -90q0 -53 -37.5 -90.5t-90.5 -37.5q-54 0 -90 37l-256 256q-38 36 -38 91v448q0 53 37.5 90.5t90.5 37.5z" />
<glyph unicode="&#x2b05;" horiz-adv-x="2048" d="M20 979q-17 18 -17 44t17 44l893 957q21 21 47 21q11 0 24 -5q40 -17 40 -59v-447h958q26 0 45 -19t19 -45v-894q0 -26 -19 -45t-45 -19h-958v-447q0 -42 -40 -59q-11 -4 -24 -4q-27 0 -47 20z" />
<glyph unicode="&#x2b06;" horiz-adv-x="2048" d="M980 2027q20 18 44 18t44 -18l957 -893q20 -20 20 -47q0 -13 -4 -24q-17 -40 -59 -40h-447v-958q0 -26 -19 -44.5t-45 -18.5h-894q-26 0 -45 18.5t-19 44.5v958h-447q-42 0 -59 40q-5 13 -5 24q0 26 21 47z" />
<glyph unicode="&#x2b07;" horiz-adv-x="2048" d="M1068 19q-18 -17 -44 -17t-44 17l-957 893q-20 20 -20 47q0 13 4 24q17 40 59 40h447v958q0 26 19 45t45 19h894q26 0 45 -19t19 -45v-958h447q42 0 59 -40q5 -13 5 -24q0 -26 -21 -47z" />
<glyph unicode="&#xe012;" horiz-adv-x="2048" d="M1813 1918q46 -7 76.5 -43t30.5 -83v-896q0 -122 -46.5 -236.5t-116.5 -199t-164 -161.5t-176.5 -126t-168 -89.5t-125 -55.5t-59.5 -21q-18 -7 -40 -7t-40 7q-20 6 -59.5 21t-125 55.5t-168 89.5t-176.5 126t-164 161.5t-116.5 199t-46.5 236.5v896q0 47 30.5 83
t76.5 43l768 128q14 2 21 2t21 -2z" />
<glyph unicode="&#xe070;" horiz-adv-x="2048" d="M2025 1073q23 -18 23 -49t-23 -49l-384 -320q-18 -15 -41 -15q-14 0 -27 6q-37 18 -37 58v192h-384v-384h192q40 0 58 -37q17 -37 -9 -68l-320 -384q-18 -23 -49 -23t-49 23l-320 384q-27 32 -9 68q18 37 58 37h192v384h-384v-192q0 -40 -37 -58q-13 -6 -27 -6
q-23 0 -41 15l-384 320q-23 18 -23 49t23 49l384 320q18 15 41 15q14 0 27 -6q37 -18 37 -58v-192h384v384h-192q-40 0 -58 37q-18 36 9 68l320 384q18 23 49 23t49 -23l320 -384q26 -31 9 -68q-18 -37 -58 -37h-192v-384h384v192q0 40 37 58q13 6 27 6q23 0 41 -15z" />
<glyph unicode="&#xe0d0;" horiz-adv-x="2048" d="M1920 1664v-128h-1792v128q0 53 37.5 90.5t90.5 37.5h384v128q0 53 37.5 90.5t90.5 37.5h512q53 0 90.5 -37.5t37.5 -90.5v-128h384q53 0 90.5 -37.5t37.5 -90.5zM256 128v1280h1536v-1280q0 -53 -37.5 -90.5t-90.5 -37.5h-1280q-53 0 -90.5 37.5t-37.5 90.5z" />
<glyph unicode="&#xe100;" horiz-adv-x="2048" d="M1728 2048q132 0 226 -94t94 -226v-704q0 -54 -37 -91l-897 -896q-36 -37 -90 -37t-91 37l-896 896q-37 37 -37 91t37 91l896 896q37 37 91 37h704zM1728 1856q-53 0 -90.5 -37.5t-37.5 -90.5t37.5 -90.5t90.5 -37.5t90.5 37.5t37.5 90.5t-37.5 90.5t-90.5 37.5z" />
<glyph unicode="&#xe1c1;" horiz-adv-x="2048" d="M2046 1594q6 -18 -7 -33l-100 -100l28 -143q5 -20 -12 -32q-9 -6 -19 -6q-9 0 -16 4l-128 71l-128 -71q-7 -4 -16 -4q-10 0 -19 6q-17 12 -12 32l28 143l-100 100q-13 15 -7 33q5 19 25 22l135 21l65 137q8 18 29 18t29 -18l65 -137l135 -21q20 -3 25 -22zM1278 1594
q6 -18 -7 -33l-100 -100l28 -143q5 -20 -12 -32q-9 -6 -19 -6q-9 0 -16 4l-128 71l-128 -71q-7 -4 -16 -4q-10 0 -19 6q-17 12 -12 32l28 143l-100 100q-13 15 -7 33q5 19 25 22l135 21l65 137q8 18 29 18t29 -18l65 -137l135 -21q20 -3 25 -22zM510 1594q6 -18 -7 -33
l-100 -100l28 -143q5 -20 -12 -32q-9 -6 -19 -6q-9 0 -16 4l-128 71l-128 -71q-7 -4 -16 -4q-10 0 -19 6q-17 12 -12 32l28 143l-100 100q-13 15 -7 33q5 19 25 22l135 21l65 137q8 18 29 18t29 -18l65 -137l135 -21q20 -3 25 -22zM2048 1024v-256h-2048v256h2048zM2048 512
v-256h-2048v256h2048z" />
<glyph unicode="&#xe201;" horiz-adv-x="2048" d="M1984 768q26 0 45 -19t19 -45v-256q0 -26 -19 -45t-45 -19h-1536q-26 0 -45 19t-19 45v1536q0 26 19 45t45 19h256q26 0 45 -19t19 -45v-320h832q26 0 45 -19t19 -45v-832h320zM256 1664v-384h-192q-26 0 -45 19t-19 45v256q0 26 19 45t45 19h192zM1280 768v512h-512
v-512h512zM1280 256h384v-192q0 -26 -19 -45t-45 -19h-256q-26 0 -45 19t-19 45v192z" />
<glyph unicode="&#xe202;" horiz-adv-x="2048" d="M384 768v-256h-256q-53 0 -90.5 37.5t-37.5 90.5v1280q0 53 37.5 90.5t90.5 37.5h1280q53 0 90.5 -37.5t37.5 -90.5v-256h-256v128h-1024v-1024h128zM2048 128q0 -53 -37.5 -90.5t-90.5 -37.5h-1280q-53 0 -90.5 37.5t-37.5 90.5v1280q0 53 37.5 90.5t90.5 37.5h1280
q53 0 90.5 -37.5t37.5 -90.5v-1280zM768 1280v-1024h1024v1024h-1024z" />
<glyph unicode="&#xe224;" horiz-adv-x="2048" d="M1664 1152h-1280v896h1280v-896zM384 1024h1280v-128q0 -53 -37.5 -90.5t-90.5 -37.5h-305q49 -461 49 -512q0 -100 -78 -178t-178 -78t-178 78t-78 178q0 51 49 512h-305q-53 0 -90.5 37.5t-37.5 90.5v128z" />
<glyph unicode="&#xe225;" horiz-adv-x="2048" d="M1728 2048q53 0 90.5 -37.5t37.5 -90.5v-384q0 -53 -37.5 -90.5t-90.5 -37.5h-1408q-53 0 -90.5 37.5t-37.5 90.5v128h-64v-335l912 -243q21 -6 34.5 -23t13.5 -39v-128h32q22 0 40 -14.5t23 -36.5q97 -485 97 -589q0 -99 -78.5 -177.5t-177.5 -78.5t-177.5 78.5
t-78.5 177.5q0 104 97 589q5 22 22.5 36.5t40.5 14.5h32v79l-913 243q-21 6 -34 23t-13 39v448q0 26 19 45t45 19h128v128q0 53 37.5 90.5t90.5 37.5h1408z" />
<glyph unicode="&#xe229;" horiz-adv-x="2048" d="M2048 1984q0 -15 -7 -29q-47 -95 -180 -281.5t-295 -388t-340 -383.5t-297 -253q-15 -9 -33 -9q-27 0 -45 19l-192 192q-19 18 -19 45q0 18 9 33q71 119 253 297t383.5 340t388 295t281.5 180q13 7 29 7q25 0 44.5 -19.5t19.5 -44.5zM0 0q0 47 3 94t11 106t21.5 113
t36.5 112.5t53 107t74 93t97.5 75.5t125 49t154.5 18l192 -192q0 -76 -14.5 -137t-43 -103.5t-61.5 -72.5t-81 -50.5t-89 -32t-97 -22.5q-23 -4 -68 -12t-69 -13t-61.5 -13.5t-60.5 -18.5t-49 -24t-44 -33.5t-30 -43.5z" />
<glyph unicode="&#xe310;" horiz-adv-x="2048" d="M1920 2046q53 0 90.5 -37.5t37.5 -90.5v-1790q0 -53 -37.5 -90.5t-90.5 -37.5h-1790q-53 0 -90.5 37.5t-37.5 90.5v1790q0 53 37.5 90.5t90.5 37.5h1790zM1664 256v128q0 260 -101.5 496.5t-272.5 407.5t-407.5 272.5t-496.5 101.5h-128v-255h128q166 0 322.5 -51.5
t282 -146.5t220.5 -220.5t146.5 -282t51.5 -322.5v-128h255zM1153 256v128q0 208 -103 384.5t-279.5 279.5t-384.5 103h-128v-256h128q139 0 256.5 -68.5t186 -186t68.5 -256.5v-128h256zM450 256q79 0 135 56.5t56 135.5t-56 135t-135 56t-135.5 -56t-56.5 -135
q0 -80 56 -136t136 -56z" />
<glyph unicode="&#xe400;" horiz-adv-x="2048" d="M1024 2048q106 0 181 -75t75 -181v-128q0 -106 -75 -181t-181 -75t-181 75t-75 181v128q0 106 75 181t181 75zM1792 1792q80 0 136 -56t56 -136v-96q0 -80 -56 -136t-136 -56t-136 56t-56 136v96q0 80 56 136t136 56zM256 1792q80 0 136 -56t56 -136v-96q0 -80 -56 -136
t-136 -56t-136 56t-56 136v96q0 80 56 136t136 56zM1389 1133q19 -19 19 -45v-512q0 -39 -35 -57l-98 -49l-60 -415q-3 -24 -21 -39.5t-42 -15.5h-256q-24 0 -42 15.5t-21 39.5l-60 415l-98 49q-35 18 -35 57v512q0 26 19 45q7 7 19.5 18t49.5 36t76.5 43.5t99 34
t120.5 15.5t120.5 -15.5t99 -34t76.5 -43.5t49.5 -36t19.5 -18zM1792 1216q67 0 117.5 -11t76 -25.5t40.5 -34t18.5 -32.5t3.5 -25v-384q0 -34 -29 -53l-70 -47l-29 -290q-3 -25 -21 -41.5t-43 -16.5h-128q-25 0 -43 16.5t-21 41.5l-29 290l-71 47q-28 20 -28 53v384
q0 12 3.5 25t18.5 32.5t40.5 34t76 25.5t117.5 11zM256 1216q67 0 117.5 -11t76 -25.5t40.5 -34t18.5 -32.5t3.5 -25v-384q0 -34 -29 -53l-70 -47l-29 -290q-3 -25 -21 -41.5t-43 -16.5h-128q-25 0 -43 16.5t-21 41.5l-29 290l-71 47q-28 20 -28 53v384q0 12 3.5 25
t18.5 32.5t40.5 34t76 25.5t117.5 11z" />
<glyph unicode="&#xe406;" horiz-adv-x="2048" d="M1920 1792q53 0 90.5 -37.5t37.5 -90.5v-1280q0 -53 -37.5 -90.5t-90.5 -37.5h-384v256q0 53 -37.5 90.5t-90.5 37.5t-90.5 -37.5t-37.5 -90.5v-256h-512v256q0 53 -37.5 90.5t-90.5 37.5t-90.5 -37.5t-37.5 -90.5v-256h-384q-53 0 -90.5 37.5t-37.5 90.5v1280
q0 53 37.5 90.5t90.5 37.5h1792z" />
<glyph unicode="&#xe450;" horiz-adv-x="2048" d="M1024 2048q106 0 181 -75t75 -181v-128q0 -106 -75 -181t-181 -75t-181 75t-75 181v128q0 106 75 181t181 75zM1389 1133q19 -19 19 -45v-512q0 -39 -35 -57l-98 -49l-60 -415q-3 -24 -21 -39.5t-42 -15.5h-256q-24 0 -42 15.5t-21 39.5l-60 415l-98 49q-35 18 -35 57
v512q0 26 19 45q7 7 19.5 18t49.5 36t76.5 43.5t99 34t120.5 15.5t120.5 -15.5t99 -34t76.5 -43.5t49.5 -36t19.5 -18z" />
<glyph unicode="&#xe500;" horiz-adv-x="2048" d="M2019 1489q38 -46 27 -106l-128 -640q-9 -45 -44.5 -74t-81.5 -29h-1152q-43 0 -78.5 27t-45.5 70l-232 927h-220q-26 0 -45 19t-19 45v128q0 26 19 45t45 19h320q44 0 78.5 -27t45.5 -70l72 -287h1340q61 0 99 -47zM1600 512q80 0 136 -56t56 -136t-56 -136t-136 -56
t-136 56t-56 136t56 136t136 56zM832 512q80 0 136 -56t56 -136t-56 -136t-136 -56t-136 56t-56 136t56 136t136 56z" />
<glyph unicode="&#xe507;" horiz-adv-x="2048" d="M1774 641h-1136q-44 0 -79 26.5t-45 69.5l-231 924h-219q-26 0 -45 18.5t-19 45.5v127q0 26 19 45t45 19h319q44 0 78.5 -27t44.5 -70l231 -923h932l117 568q6 28 26 46.5t52 18.5h131q25 0 40 -24t10 -51l-146 -711q-9 -44 -44 -73t-81 -29zM1599 513q79 0 135 -56
t56 -135t-56 -135t-135 -56t-135 55.5t-56 135.5t56 135.5t135 55.5zM834 513q79 0 135 -56t56 -135t-56 -135t-135 -56q-80 0 -136 56t-56 135t56 135t136 56z" />
<glyph unicode="&#xe551;" horiz-adv-x="2048" d="M1792 1920v-1792q0 -53 -37.5 -90.5t-90.5 -37.5h-1280q-53 0 -90.5 37.5t-37.5 90.5v1792q0 53 37.5 90.5t90.5 37.5h1280q53 0 90.5 -37.5t37.5 -90.5zM1536 1792h-1024v-384h1024v384zM1024 1024q53 0 90.5 37.5t37.5 90.5t-37.5 90.5t-90.5 37.5t-90.5 -37.5
t-37.5 -90.5t37.5 -90.5t90.5 -37.5zM640 1024q53 0 90.5 37.5t37.5 90.5t-37.5 90.5t-90.5 37.5t-90.5 -37.5t-37.5 -90.5t37.5 -90.5t90.5 -37.5zM1408 1024q53 0 90.5 37.5t37.5 90.5t-37.5 90.5t-90.5 37.5t-90.5 -37.5t-37.5 -90.5t37.5 -90.5t90.5 -37.5zM640 640
q53 0 90.5 37.5t37.5 90.5t-37.5 90.5t-90.5 37.5t-90.5 -37.5t-37.5 -90.5t37.5 -90.5t90.5 -37.5zM1024 640q53 0 90.5 37.5t37.5 90.5t-37.5 90.5t-90.5 37.5t-90.5 -37.5t-37.5 -90.5t37.5 -90.5t90.5 -37.5zM1408 640q53 0 90.5 37.5t37.5 90.5t-37.5 90.5t-90.5 37.5
t-90.5 -37.5t-37.5 -90.5t37.5 -90.5t90.5 -37.5zM640 256q53 0 90.5 37.5t37.5 90.5t-37.5 90.5t-90.5 37.5t-90.5 -37.5t-37.5 -90.5t37.5 -90.5t90.5 -37.5zM1024 256q53 0 90.5 37.5t37.5 90.5t-37.5 90.5t-90.5 37.5t-90.5 -37.5t-37.5 -90.5t37.5 -90.5t90.5 -37.5z
M1408 256q53 0 90.5 37.5t37.5 90.5t-37.5 90.5t-90.5 37.5t-90.5 -37.5t-37.5 -90.5t37.5 -90.5t90.5 -37.5z" />
<glyph unicode="&#xe570;" horiz-adv-x="2048" d="M1024 1024h1024q0 -209 -81 -398.5t-218 -326.5t-326.5 -218t-398.5 -81t-398.5 81t-326.5 218t-218 326.5t-81 398.5t81 398.5t218 326.5t326.5 218t398.5 81v-1024zM1152 1152v888q229 -29 421.5 -151.5t315 -315t151.5 -421.5h-888z" />
<glyph unicode="&#xe579;" horiz-adv-x="2048" d="M1920 1792q53 0 90.5 -37.5t37.5 -90.5v-1024q0 -53 -37.5 -90.5t-90.5 -37.5h-387l123 -340q8 -20 8 -44q0 -56 -38.5 -92t-89.5 -36q-40 0 -73 23t-47 61l-156 428h-472l-156 -428q-14 -38 -47 -61t-73 -23q-51 0 -89.5 35.5t-38.5 92.5q0 24 8 44l123 340h-387
q-53 0 -90.5 37.5t-37.5 90.5v1024q0 53 37.5 90.5t90.5 37.5h768v128q0 53 37.5 90.5t90.5 37.5t90.5 -37.5t37.5 -90.5v-128h768zM1854 1520q9 35 -17 61q-25 26 -61 17l-256 -64q-21 -5 -34.5 -22t-13.5 -40q0 -27 19 -45l50 -51l-389 -390l-275 275q-18 19 -45 19
q-24 0 -42 -15l-448 -384q-22 -20 -22 -49q0 -25 19.5 -44.5t44.5 -19.5q24 0 42 15l403 346l278 -278q18 -19 45 -19t45 19l435 434l51 -50q19 -19 45 -19q21 0 39 13.5t23 34.5z" />
<glyph unicode="&#xe602;" horiz-adv-x="2048" d="M1472 1664q135 0 252.5 34t195.5 94q-90 -119 -224 -187.5t-288 -68.5q-78 0 -149.5 21t-128 55t-110 75t-104.5 82t-102 75t-112 55t-126 21q-135 0 -252.5 -34t-195.5 -94q90 119 224 187.5t288 68.5q78 0 149.5 -21t128 -55t110 -75t104.5 -82t102 -75t112 -55
t126 -21zM1984 960q26 0 45 -19.5t19 -44.5v-832q0 -26 -19 -45t-45 -19h-1920q-26 0 -45.5 20t-18.5 47l64 1536q1 25 19.5 43t44.5 18h384q25 0 43.5 -17.5t20.5 -43.5l56 -1072l411 410q19 19 45 19t45 -19.5t19 -44.5v-293l339 338q19 19 45 19t45 -19.5t19 -44.5v-293
l339 338q19 19 45 19z" />
<glyph unicode="&#xe670;" horiz-adv-x="2048" d="M1953 2040q16 8 31 8q26 0 45 -19t19 -45q0 -18 -9 -32l-1023 -1918q-18 -34 -56 -34q-24 0 -44 19t-20 45v832h-832q-26 0 -45 20.5t-19 43.5q0 38 34 56z" />
<glyph unicode="&#xe671;" horiz-adv-x="2048" d="M1024 2048q209 0 398.5 -81t326.5 -218t218 -326.5t81 -398.5t-81 -398.5t-218 -326.5t-326.5 -218t-398.5 -81t-398.5 81t-326.5 218t-218 326.5t-81 398.5t81 398.5t218 326.5t326.5 218t398.5 81zM1280 768l320 832l-832 -320l-320 -832zM1024 832q-80 0 -136 56
t-56 136t56 136t136 56t136 -56t56 -136t-56 -136t-136 -56z" />
<glyph unicode="&#xe672;" horiz-adv-x="2048" d="M1889 1719q31 -20 31 -55t-31 -55l-320 -192q-15 -9 -33 -9h-1216q-26 0 -45 19t-19 45v384q0 26 19 45t45 19h576v64q0 26 19 45t45 19h128q26 0 45 -19t19 -45v-64h384q18 0 33 -9zM1728 1280q26 0 45 -19t19 -45v-384q0 -26 -19 -45t-45 -19h-1216q-18 0 -33 9
l-320 192q-31 20 -31 55t31 55l320 192q15 9 33 9h1216zM896 640h256v-576q0 -26 -19 -45t-45 -19h-128q-26 0 -45 19t-19 45v576z" />
<glyph unicode="&#xe673;" horiz-adv-x="2048" d="M1977 1778q33 -16 52 -47t19 -67v-1536q0 -57 -38 -92.5t-90 -35.5q-32 0 -57 14l-465 232l-718 -239q-18 -7 -40 -7q-29 0 -57 14l-512 256q-33 16 -52 47t-19 67v1536q0 57 38 92.5t90 35.5q32 0 57 -14l465 -232l717 239q20 7 41 7q29 0 57 -14zM1792 335v1250
l-384 192v-1265zM768 1572v-1266l512 170v1266zM256 463l384 -192v1265l-384 177v-1250z" />
<glyph unicode="&#xe6d0;" horiz-adv-x="2048" d="M1024 2048q156 0 298 -61t245 -164t164 -245t61 -298q0 -112 -37 -240.5t-85 -233t-129.5 -230t-133.5 -197t-136 -169t-97.5 -112t-56.5 -58.5q-1 -2 -2 -3q-37 -37 -91 -37t-91 37q-288 299 -471 613q-206 355 -206 630q0 156 61 298t164 245t245 164t298 61zM640 1280
q0 -159 112.5 -271.5t271.5 -112.5t271.5 112.5t112.5 271.5t-112.5 271.5t-271.5 112.5t-271.5 -112.5t-112.5 -271.5z" />
<glyph unicode="&#xe710;" horiz-adv-x="2048" d="M1333 459q68 -72 37.5 -152.5t-107.5 -149t-149.5 -113t-89.5 -44.5q-54 0 -91 37l-896 896q-37 37 -37 91t37 91l896 896q39 37 91 37q53 0 91 -37q41 -41 84 -95.5t68.5 -90t57.5 -67t60 -38.5t66 9t85 63q31 31 50.5 103.5t54.5 107.5q45 45 119 45q104 0 196 -89.5
t92 -198.5q0 -74 -45 -119q-38 -38 -109 -56t-102 -49q-47 -47 -63 -85.5t-9 -66t38.5 -60t67 -57.5t90 -68t95.5 -84q37 -39 37 -91q0 -17 -44.5 -89.5t-113 -149.5t-149 -107.5t-152.5 37.5q-31 31 -49 102t-56 109q-45 45 -119 45q-109 0 -198.5 -92t-89.5 -196
q0 -74 45 -119q35 -35 107.5 -54.5t103.5 -50.5z" />
<glyph unicode="&#xe780;" horiz-adv-x="2048" d="M1306 1630l-285 -1158q-7 -26 -30 -45t-50 -19h-129q-26 0 -40.5 19t-7.5 45l284 1158q7 27 30.5 46t49.5 19h129q27 0 41 -19t8 -46zM1560 518q-19 -19 -45.5 -19t-45.5 19l-99 99q-20 19 -20 45.5t20 45.5l324 325l-324 324q-20 19 -20 45.5t20 45.5l99 99
q19 19 45.5 19t45.5 -19l370 -369l99 -100q19 -19 19 -45.5t-19 -45.5zM579 518q-19 -19 -45.5 -19t-45.5 19l-469 469q-19 19 -19 45.5t19 45.5l99 100l370 369q19 19 45.5 19t45.5 -19l99 -99q20 -19 20 -45.5t-20 -45.5l-324 -324l324 -325q20 -19 20 -45.5t-20 -45.5z
" />
<glyph unicode="&#xe800;" horiz-adv-x="2048" d="M1920 1792q53 0 90.5 -37.5t37.5 -90.5v-1280q0 -53 -37.5 -90.5t-90.5 -37.5h-305l-256 256h433v1024h-1536v-1024h432l-256 -256h-304q-53 0 -90.5 37.5t-37.5 90.5v1280q0 53 37.5 90.5t90.5 37.5h1792zM1581 109q19 -19 19 -45q0 -25 -19 -44.5t-45 -19.5h-1024
q-26 0 -45 19.5t-19 44.5q0 26 19 45l512 512q18 19 45 19t45 -19z" />
<glyph unicode="&#xe807;" horiz-adv-x="2048" d="M768 1920l-247 -1152h631l265 511l-137 641h-512zM1856 2048q26 0 45 -18.5t19 -45.5q0 -16 -7 -30l-179 -344q58 -56 58 -138q0 -80 -56 -136t-136 -56q-18 0 -36 3l-12 -22l237 -1106q3 -15 3 -29q-1 -51 -39.5 -88.5t-88.5 -37.5h-1280q-51 0 -89.5 38.5t-38.5 89.5
q0 14 3 27l384 1792q9 44 44.5 72.5t80.5 28.5h512q45 0 80.5 -28.5t44.5 -72.5l71 -329q52 46 124 46q11 0 17 -1l182 351q19 34 57 34zM1527 768l-68 315l-163 -315h231z" />
<glyph unicode="&#xe8a0;" horiz-adv-x="2048" d="M768 1984v-1920q0 -26 -19 -45t-45 -19h-640q-26 0 -45 19t-19 45v1920q0 26 19 45t45 19h640q26 0 45 -19t19 -45zM2048 1984v-1920q0 -26 -19 -45t-45 -19h-640q-26 0 -45 19t-19 45v1920q0 26 19 45t45 19h640q26 0 45 -19t19 -45z" />
<glyph unicode="&#xe901;" horiz-adv-x="2048" d="M1920 1792q53 0 90.5 -37.5t37.5 -90.5v-128h-2048v128q0 53 37.5 90.5t90.5 37.5h1792zM128 384v1024h1792v-1024q0 -53 -37.5 -90.5t-90.5 -37.5h-1536q-53 0 -90.5 37.5t-37.5 90.5zM1280 1024v256h-512v-256h512z" />
<glyph unicode="&#xe902;" horiz-adv-x="2048" d="M2041 1192q7 -18 7 -40v-1024q0 -53 -37.5 -90.5t-90.5 -37.5h-1792q-53 0 -90.5 37.5t-37.5 90.5v1024q0 22 7 40l256 768q13 40 46.5 64t74.5 24h1280q41 0 74.5 -24t46.5 -64zM476 1792l-213 -640h1522l-213 640h-1096zM1522 1536h-996l43 128h910zM483 1408h1082
l42 -128h-1166z" />
<glyph unicode="&#xe9a0;" horiz-adv-x="2048" d="M512 1984v-384q0 -26 -19 -45t-45 -19h-384q-26 0 -45 19t-19 45v384q0 26 19 45t45 19h384q26 0 45 -19t19 -45zM2048 1984v-384q0 -26 -19 -45t-45 -19h-384q-26 0 -45 19t-19 45v384q0 26 19 45t45 19h384q26 0 45 -19t19 -45zM1280 1984v-384q0 -26 -19 -45t-45 -19
h-384q-26 0 -45 19t-19 45v384q0 26 19 45t45 19h384q26 0 45 -19t19 -45zM512 1216v-384q0 -26 -19 -45t-45 -19h-384q-26 0 -45 19t-19 45v384q0 26 19 45t45 19h384q26 0 45 -19t19 -45zM2048 1216v-384q0 -26 -19 -45t-45 -19h-384q-26 0 -45 19t-19 45v384q0 26 19 45
t45 19h384q26 0 45 -19t19 -45zM1280 1216v-384q0 -26 -19 -45t-45 -19h-384q-26 0 -45 19t-19 45v384q0 26 19 45t45 19h384q26 0 45 -19t19 -45zM512 448v-384q0 -26 -19 -45t-45 -19h-384q-26 0 -45 19t-19 45v384q0 26 19 45t45 19h384q26 0 45 -19t19 -45zM1280 448
v-384q0 -26 -19 -45t-45 -19h-384q-26 0 -45 19t-19 45v384q0 26 19 45t45 19h384q26 0 45 -19t19 -45zM2048 448v-384q0 -26 -19 -45t-45 -19h-384q-26 0 -45 19t-19 45v384q0 26 19 45t45 19h384q26 0 45 -19t19 -45z" />
<glyph unicode="&#xe9a1;" horiz-adv-x="2048" d="M2048 1984v-384q0 -26 -19 -45t-45 -19h-1920q-26 0 -45 19t-19 45v384q0 26 19 45t45 19h1920q26 0 45 -19t19 -45zM2048 1216v-384q0 -26 -19 -45t-45 -19h-1920q-26 0 -45 19t-19 45v384q0 26 19 45t45 19h1920q26 0 45 -19t19 -45zM2048 448v-384q0 -26 -19 -45
t-45 -19h-1920q-26 0 -45 19t-19 45v384q0 26 19 45t45 19h1920q26 0 45 -19t19 -45z" />
<glyph unicode="&#xe9a2;" horiz-adv-x="2048" d="M1600 2048h384q26 0 45 -19t19 -45v-1920q0 -26 -19 -45t-45 -19h-384q-26 0 -45 19t-19 45v1920q0 26 19 45t45 19zM64 2048h384q26 0 45 -19t19 -45v-1920q0 -26 -19 -45t-45 -19h-384q-26 0 -45 19t-19 45v1920q0 26 19 45t45 19zM832 2048h384q26 0 45 -19t19 -45
v-1920q0 -26 -19 -45t-45 -19h-384q-26 0 -45 19t-19 45v1920q0 26 19 45t45 19z" />
<glyph unicode="&#xe9a3;" horiz-adv-x="2048" d="M1984 2048q26 0 45 -19t19 -45v-768q0 -26 -19 -45t-45 -19h-768q-26 0 -45 19t-19 45v768q0 26 19 45t45 19h768zM832 2048q26 0 45 -19t19 -45v-768q0 -26 -19 -45t-45 -19h-768q-26 0 -45 19t-19 45v768q0 26 19 45t45 19h768zM1984 896q26 0 45 -19t19 -45v-768
q0 -26 -19 -45t-45 -19h-768q-26 0 -45 19t-19 45v768q0 26 19 45t45 19h768zM832 896q26 0 45 -19t19 -45v-768q0 -26 -19 -45t-45 -19h-768q-26 0 -45 19t-19 45v768q0 26 19 45t45 19h768z" />
<glyph unicode="&#xe9b0;" horiz-adv-x="2048" d="M1024 0q-106 0 -181 19t-75 45v533l-728 957q-40 54 -40 110q0 104 137 192.5t373 140t514 51.5t514 -51.5t373 -140t137 -192.5q0 -56 -40 -110l-728 -957v-533q0 -26 -75 -45t-181 -19zM1024 1408q243 0 449.5 34.5t326.5 93.5t120 128t-120 128t-326.5 93.5
t-449.5 34.5t-449.5 -34.5t-326.5 -93.5t-120 -128t120 -128t326.5 -93.5t449.5 -34.5z" />
<glyph unicode="&#xea00;" horiz-adv-x="2048" d="M2037 484q11 -17 11 -36q0 -25 -19.5 -44.5t-44.5 -19.5h-1920q-26 0 -45 19t-19 45q0 19 11 36l245 367v749q0 26 19 45t45 19h1408q26 0 45 -19t19 -45v-749zM1664 896v640h-1280v-640h1280z" />
<glyph unicode="&#xea01;" horiz-adv-x="2048" d="M1792 2048q53 0 90.5 -37.5t37.5 -90.5v-1792q0 -53 -37.5 -90.5t-90.5 -37.5h-1536q-53 0 -90.5 37.5t-37.5 90.5v1792q0 53 37.5 90.5t90.5 37.5h1536zM1664 384v1408h-1280v-1408h1280zM1024 64q53 0 90.5 37.5t37.5 90.5t-37.5 90.5t-90.5 37.5t-90.5 -37.5
t-37.5 -90.5t37.5 -90.5t90.5 -37.5z" />
<glyph unicode="&#xea02;" horiz-adv-x="2048" d="M1536 2048q53 0 90.5 -37.5t37.5 -90.5v-1792q0 -53 -37.5 -90.5t-90.5 -37.5h-1024q-53 0 -90.5 37.5t-37.5 90.5v1792q0 53 37.5 90.5t90.5 37.5h1024zM1536 384v1408h-1024v-1408h1024zM1024 64q53 0 90.5 37.5t37.5 90.5t-37.5 90.5t-90.5 37.5t-90.5 -37.5
t-37.5 -90.5t37.5 -90.5t90.5 -37.5z" />
<glyph unicode="&#xea10;" horiz-adv-x="2048" d="M1920 1408q53 0 90.5 -37.5t37.5 -90.5v-512q0 -53 -37.5 -90.5t-90.5 -37.5h-128v-256q0 -53 -37.5 -90.5t-90.5 -37.5h-1536q-53 0 -90.5 37.5t-37.5 90.5v1280q0 53 37.5 90.5t90.5 37.5h1536q53 0 90.5 -37.5t37.5 -90.5v-256h128zM1536 512v1024h-1280v-1024h1280z
M640 1408v-768h-256v768h256zM1024 1408v-768h-256v768h256zM1408 1408v-768h-256v768h256z" />
<glyph unicode="&#xea11;" horiz-adv-x="2048" d="M1920 1408q53 0 90.5 -37.5t37.5 -90.5v-512q0 -53 -37.5 -90.5t-90.5 -37.5h-128v-256q0 -53 -37.5 -90.5t-90.5 -37.5h-1536q-53 0 -90.5 37.5t-37.5 90.5v1280q0 53 37.5 90.5t90.5 37.5h1536q53 0 90.5 -37.5t37.5 -90.5v-256h128zM1536 512v1024h-1280v-1024h1280z
M640 1408v-768h-256v768h256zM1024 1408v-768h-256v768h256z" />
<glyph unicode="&#xea12;" horiz-adv-x="2048" d="M1920 1408q53 0 90.5 -37.5t37.5 -90.5v-512q0 -53 -37.5 -90.5t-90.5 -37.5h-128v-256q0 -53 -37.5 -90.5t-90.5 -37.5h-1536q-53 0 -90.5 37.5t-37.5 90.5v1280q0 53 37.5 90.5t90.5 37.5h1536q53 0 90.5 -37.5t37.5 -90.5v-256h128zM1536 512v1024h-1280v-1024h1280z
M640 1408v-768h-256v768h256z" />
<glyph unicode="&#xea13;" horiz-adv-x="2048" d="M1920 1408q53 0 90.5 -37.5t37.5 -90.5v-512q0 -53 -37.5 -90.5t-90.5 -37.5h-128v-256q0 -53 -37.5 -90.5t-90.5 -37.5h-1536q-53 0 -90.5 37.5t-37.5 90.5v1280q0 53 37.5 90.5t90.5 37.5h1536q53 0 90.5 -37.5t37.5 -90.5v-256h128zM1536 512v1024h-1280v-1024h1280z
" />
<glyph unicode="&#xea14;" horiz-adv-x="2048" d="M1920 1408q53 0 90.5 -37.5t37.5 -90.5v-512q0 -53 -37.5 -90.5t-90.5 -37.5h-128v-256q0 -53 -37.5 -90.5t-90.5 -37.5h-1536q-53 0 -90.5 37.5t-37.5 90.5v1280q0 53 37.5 90.5t90.5 37.5h1536q53 0 90.5 -37.5t37.5 -90.5v-256h128zM256 896l512 128l256 -256l512 384
l-512 -128l-256 256z" />
<glyph unicode="&#xea44;" horiz-adv-x="2048" d="M1920 1408q53 0 90.5 -37.5t37.5 -90.5v-512q0 -53 -37.5 -90.5t-90.5 -37.5h-512v-512q0 -53 -37.5 -90.5t-90.5 -37.5h-512q-53 0 -90.5 37.5t-37.5 90.5v512h-512q-53 0 -90.5 37.5t-37.5 90.5v512q0 53 37.5 90.5t90.5 37.5h512v512q0 53 37.5 90.5t90.5 37.5h512
q53 0 90.5 -37.5t37.5 -90.5v-512h512zM1280 1024q0 106 -75 181t-181 75t-181 -75t-75 -181t75 -181t181 -75t181 75t75 181z" />
<glyph unicode="&#xeb01;" horiz-adv-x="2048" d="M1664 1280q53 0 90.5 -36t37.5 -92q0 -53 -38 -91l-640 -640q-37 -37 -90 -37q-54 0 -91 37l-640 640q-37 39 -37 91q0 56 37.5 92t90.5 36h320v640q0 53 37.5 90.5t90.5 37.5h384q53 0 90.5 -37.5t37.5 -90.5v-640h320zM1792 256v512h256v-512q0 -106 -75 -181t-181 -75
h-1536q-106 0 -181 75t-75 181v512h256v-512h1536z" />
<glyph unicode="&#xeb02;" horiz-adv-x="2048" d="M1408 1536q26 0 45 -19.5t19 -44.5q0 -27 -19 -45l-384 -384q-18 -19 -45 -19t-45 19l-384 384q-19 18 -19 45q0 25 19 44.5t45 19.5h192v448q0 26 19 45t45 19h256q26 0 45 -19t19 -45v-448h192zM1730 1262q62 -38 62 -110v-640q0 -72 -62 -110l-640 -384
q-30 -18 -66 -18t-66 18l-640 384q-62 38 -62 110v640q0 72 62 110l163 97l93 -93l-190 -114l640 -384l640 384l-190 114l93 93zM1536 768v128l-320 -192v-128z" />
<glyph unicode="&#xeb40;" horiz-adv-x="2048" d="M1792 1152q0 -135 -54 -257q129 -4 219.5 -96.5t90.5 -222.5q0 -133 -93.5 -226.5t-226.5 -93.5h-576v512h192q26 0 45 20t19 44q0 27 -19 45l-320 320q-18 19 -45 19t-45 -19l-320 -320q-19 -18 -19 -45q0 -24 19 -44t45 -20h192v-512h-448q-185 0 -316.5 131.5
t-131.5 316.5t131.5 316.5t316.5 131.5q29 0 64 -5v5q0 130 51 248.5t136.5 204t204 136.5t248.5 51t248.5 -51t204 -136.5t136.5 -204t51 -248.5z" />
<glyph unicode="&#xeb41;" horiz-adv-x="2048" d="M1754 1371q38 -38 38 -91q0 -56 -37.5 -92t-90.5 -36h-320v-640q0 -53 -37.5 -90.5t-90.5 -37.5h-384q-53 0 -90.5 37.5t-37.5 90.5v640h-320q-53 0 -90.5 36t-37.5 92q0 52 37 91l640 640q37 37 91 37q53 0 90 -37zM1792 256v512h256v-512q0 -106 -75 -181t-181 -75
h-1536q-106 0 -181 75t-75 181v512h256v-512h1536z" />
<glyph unicode="&#xeb80;" horiz-adv-x="2048" d="M1641 881l384 -320q23 -18 23 -49t-23 -49l-384 -320q-18 -15 -41 -15q-25 0 -44.5 19.5t-19.5 44.5v192q-81 0 -152.5 11t-122.5 25.5t-100 42.5t-78.5 49.5t-65 60t-51.5 59t-46 61.5q-24 33 -36.5 49t-35.5 42t-42 39t-50 29.5t-64.5 24.5t-79 13.5t-100.5 5.5h-512
v256h512q55 0 100.5 5.5t79 13.5t64.5 24.5t50 29.5t42 39t35.5 42t36.5 49q30 41 46 61.5t51.5 59t65 60t78.5 49.5t100 42.5t122.5 25.5t152.5 11v192q0 25 19.5 44.5t44.5 19.5q23 0 41 -15l384 -320q23 -18 23 -49t-23 -49l-384 -320q-18 -15 -41 -15q-25 0 -44.5 19.5
t-19.5 44.5v192q-55 0 -100.5 -5.5t-79 -13.5t-64.5 -24.5t-50 -29.5t-42 -39t-35.5 -42t-36.5 -49q-30 -41 -47.5 -63.5t-50.5 -57t-66 -60.5q34 -26 66.5 -60.5t50.5 -57.5t47 -63q24 -33 36.5 -49t35.5 -42t42 -39t50 -29.5t64.5 -24.5t79 -13.5t100.5 -5.5v192
q0 25 19.5 44.5t44.5 19.5q23 0 41 -15z" />
<glyph unicode="&#xeb81;" horiz-adv-x="2048" d="M2025 1073q23 -18 23 -49t-23 -49l-384 -320q-18 -15 -41 -15q-25 0 -44.5 19.5t-19.5 44.5v192q-75 0 -134 -6.5t-105 -22.5t-77 -30.5t-63.5 -44t-49 -48.5t-48.5 -57q-32 -39 -50.5 -60t-56.5 -58t-71 -58.5t-86.5 -49t-110 -42t-134 -25t-166.5 -10.5h-384v256h384
q75 0 134 6.5t105 22.5t77 30.5t63.5 44t49 48.5t48.5 57q31 38 51 61t54.5 56t70.5 58q-36 25 -70.5 58t-54.5 56t-51 61q-32 38 -48.5 57t-49 48.5t-63.5 44t-77 30.5t-105 22.5t-134 6.5h-384v256h384q89 0 166.5 -10.5t134 -25t110 -42t86.5 -49t71 -58.5t56.5 -58
t50.5 -60q32 -38 48.5 -57t49 -48.5t63.5 -44t77 -30.5t105 -22.5t134 -6.5v192q0 25 19.5 44.5t44.5 19.5q23 0 41 -15z" />
<glyph unicode="&#xeb82;" horiz-adv-x="2048" d="M1984 1152q25 0 44.5 -19.5t19.5 -44.5q0 -23 -15 -41l-320 -384q-18 -23 -49 -23t-49 23l-320 384q-15 18 -15 41q0 25 19.5 44.5t44.5 19.5h176q-43 165 -181 274.5t-315 109.5q-212 0 -362 -150l-181 181q109 109 249 167t294 58q142 0 272.5 -50.5t229 -136.5
t166 -203.5t89.5 -249.5h203zM1024 512q212 0 362 150l181 -181q-109 -109 -249 -167t-294 -58q-142 0 -272.5 50.5t-229 136.5t-166 203.5t-89.5 249.5h-203q-26 0 -45 18.5t-19 45.5q0 23 15 41l320 384q18 23 49 23t49 -23l320 -384q15 -18 15 -41q0 -27 -19 -45.5
t-45 -18.5h-176q43 -165 181 -274.5t315 -109.5z" />
<glyph unicode="&#xeb84;" horiz-adv-x="2048" d="M0 1361q200 204 464.5 317.5t559.5 113.5t559.5 -113.5t464.5 -317.5l-178 -182q-166 169 -384.5 263t-461.5 94t-461.5 -94t-384.5 -263zM356 999q131 133 303.5 207t364.5 74t364.5 -74t303.5 -207l-179 -181q-96 97 -222 151.5t-267 54.5t-267 -54.5t-223 -151.5z
M712 637q129 131 312 131t312 -131l-312 -317z" />
<glyph unicode="&#xeb90;" horiz-adv-x="2048" d="M1473 960q0 26 -19 45t-45 19h-192v192q0 26 -19 45t-45 19h-128q-26 0 -45 -19t-19 -45v-192h-192q-26 0 -45 -19t-19 -45v-128q0 -26 19 -45t45 -19h192v-192q0 -26 19 -44.5t45 -18.5h128q26 0 45 18.5t19 44.5v192h192q26 0 45 19t19 45v128zM1739 896
q129 -5 219 -97.5t90 -222.5q0 -132 -93.5 -225.5t-226.5 -93.5h-1278q-186 0 -317 131t-131 316t131 316.5t317 131.5q29 0 64 -5v5q0 130 50.5 248.5t136 204t204 136t248.5 50.5t248.5 -50.5t204 -136t136 -204t50.5 -248.5q0 -134 -53 -256z" />
<glyph unicode="&#xeb91;" horiz-adv-x="2048" d="M1738 895q129 -4 219.5 -96.5t90.5 -222.5q0 -133 -93.5 -226.5t-226.5 -93.5h-1280q-185 0 -316.5 131.5t-131.5 316.5t131.5 316.5t316.5 131.5q29 0 64 -5v5q0 130 51 248.5t136.5 204t204 136.5t248.5 51t248.5 -51t204 -136.5t136.5 -204t51 -248.5q0 -135 -54 -257
zM1408 768v256h-768v-256h768z" />
<glyph unicode="&#xec00;" horiz-adv-x="2048" d="M1408 1536v512q53 0 91 -38l384 -384q37 -37 37 -90h-512zM1792 256h-1280q-53 0 -90.5 37.5t-37.5 90.5v1536q0 53 37.5 90.5t90.5 37.5h768v-640h640v-1024q0 -53 -37.5 -90.5t-90.5 -37.5zM256 256q0 -53 37.5 -90.5t90.5 -37.5h1280q0 -53 -37.5 -90.5t-90.5 -37.5
h-1280q-53 0 -90.5 37.5t-37.5 90.5v1536q0 53 37.5 90.5t90.5 37.5v-1536z" />
<glyph unicode="&#xed50;" horiz-adv-x="2048" d="M2048 1664v-256h-1536v256h1536zM128 1664q53 0 90.5 -37.5t37.5 -90.5t-37.5 -90.5t-90.5 -37.5t-90.5 37.5t-37.5 90.5t37.5 90.5t90.5 37.5zM128 1152q53 0 90.5 -37.5t37.5 -90.5t-37.5 -90.5t-90.5 -37.5t-90.5 37.5t-37.5 90.5t37.5 90.5t90.5 37.5zM2048 1152
v-256h-1536v256h1536zM128 640q53 0 90.5 -37.5t37.5 -90.5t-37.5 -90.5t-90.5 -37.5t-90.5 37.5t-37.5 90.5t37.5 90.5t90.5 37.5zM2048 640v-256h-1536v256h1536z" />
<glyph unicode="&#xeda0;" horiz-adv-x="2048" d="M1920 1920q53 0 90.5 -37.5t37.5 -90.5v-1536q0 -53 -37.5 -90.5t-90.5 -37.5h-1792q-53 0 -90.5 37.5t-37.5 90.5v1536q0 53 37.5 90.5t90.5 37.5h1792zM1792 1280v384h-1536v-384h1536zM1792 384v768h-1024v-768h1024zM640 384v768h-384v-768h384z" />
<glyph unicode="&#xee00;" horiz-adv-x="2048" d="M1536 512v256h256v-384q0 -53 -37.5 -90.5t-90.5 -37.5h-1536q-53 0 -90.5 37.5t-37.5 90.5v1280q0 53 37.5 90.5t90.5 37.5h512v-256h-384v-1024h1280zM2029 1517q19 -19 19 -45t-19 -45l-512 -512q-18 -19 -45 -19q-12 0 -25 5q-39 17 -39 59v256q-121 0 -231 -27
t-185 -63.5t-149.5 -95.5t-113.5 -99t-89 -99q0 243 103 449.5t279.5 326.5t385.5 120v256q0 42 39 59q13 5 25 5q26 0 45 -19z" />
<glyph unicode="&#xee01;" horiz-adv-x="2048" d="M1080 1024q-23 0 -39.5 16.5t-16.5 39.5v672q0 37 35 52q9 4 21 4q22 0 40 -16l184 -185l296 297q16 16 40 16t40 -16l224 -224q16 -16 16 -40t-16 -40l-297 -296l185 -184q16 -18 16 -40q0 -12 -4 -21q-15 -35 -52 -35h-672zM968 1024q23 0 39.5 -16.5t16.5 -39.5v-672
q0 -37 -35 -52q-9 -4 -21 -4q-22 0 -40 16l-184 185l-296 -297q-16 -16 -40 -16t-40 16l-224 224q-16 16 -16 40t16 40l297 296l-185 184q-16 18 -16 40q0 13 4 21q15 35 52 35h672z" />
<glyph unicode="&#xee04;" horiz-adv-x="2048" d="M2 1990q0 22 16 38.5t39 16.5h671q37 0 52 -34q4 -9 4 -21q0 -24 -16 -40l-184 -184l296 -296q16 -16 16 -40q0 -23 -16 -39l-224 -224q-16 -16 -39 -16q-24 0 -40 16l-296 296l-184 -184q-16 -16 -40 -16q-12 0 -21 4q-34 15 -34 52v671zM1991 2046q22 0 38.5 -16.5
t16.5 -39.5v-671q0 -37 -34 -52q-9 -4 -21 -4q-24 0 -40 16l-184 184l-296 -296q-16 -16 -40 -16q-23 0 -39 16l-224 224q-16 16 -16 39q0 24 16 40l296 296l-184 184q-16 16 -16 40q0 12 4 21q15 35 52 35h671zM2046 56q0 -22 -16 -38.5t-39 -16.5h-671q-37 0 -52 34
q-4 9 -4 21q0 24 16 40l184 184l-296 296q-16 16 -16 40q0 23 16 39l224 224q16 16 39 16q24 0 40 -16l296 -296l184 184q16 16 40 16q12 0 21 -4q34 -15 34 -52v-671zM57 0q-22 0 -38.5 16.5t-16.5 39.5v671q0 37 34 52q9 4 21 4q24 0 40 -16l184 -184l296 296q16 16 40 16
q23 0 39 -16l224 -224q16 -16 16 -39q0 -24 -16 -40l-296 -296l184 -184q16 -16 16 -40q0 -12 -4 -21q-15 -35 -52 -35h-671z" />
<glyph unicode="&#xee05;" horiz-adv-x="2048" d="M896 1208q0 -23 -16.5 -39.5t-39.5 -16.5h-672q-17 0 -31 9.5t-20 25.5q-5 12 -5 21q0 23 17 40l184 184l-296 297q-17 15 -17 39q0 23 17 40l224 224q16 16 39 16q24 0 40 -16l296 -297l185 185q16 16 39 16q13 0 22 -4q34 -15 34 -52v-672zM1208 1152q-23 0 -39.5 16.5
t-16.5 39.5v672q0 37 34 52q9 4 22 4q23 0 39 -16l185 -185l296 297q16 16 40 16q23 0 39 -16l224 -224q16 -16 16 -40t-16 -39l-296 -297l184 -184q17 -17 17 -40q0 -9 -5 -21q-6 -16 -20 -25.5t-31 -9.5h-672zM1152 841q0 23 16.5 39.5t39.5 16.5h672q17 0 31 -9.5
t20 -25.5q5 -12 5 -21q0 -23 -17 -40l-184 -184l296 -297q16 -15 16 -39t-16 -40l-224 -224q-16 -16 -39 -16q-24 0 -40 16l-296 297l-185 -185q-16 -16 -39 -16q-13 0 -22 4q-34 15 -34 52v672zM840 897q23 0 39.5 -16.5t16.5 -39.5v-672q0 -37 -34 -52q-9 -4 -22 -4
q-23 0 -39 16l-185 185l-296 -297q-16 -16 -40 -16q-23 0 -39 16l-224 224q-16 16 -16 40t16 39l296 297l-184 184q-17 17 -17 40q0 9 5 21q6 16 20 25.5t31 9.5h672z" />
<glyph unicode="&#xef01;" horiz-adv-x="2048" d="M640 1280q53 0 90.5 37.5t37.5 90.5t-37.5 90.5t-90.5 37.5t-90.5 -37.5t-37.5 -90.5t37.5 -90.5t90.5 -37.5zM1408 1280q53 0 90.5 37.5t37.5 90.5t-37.5 90.5t-90.5 37.5t-90.5 -37.5t-37.5 -90.5t37.5 -90.5t90.5 -37.5zM1472 320q-36 -54 -95 -106.5t-118.5 -89.5
t-113.5 -66t-87 -44l-34 -14q-13 5 -35.5 15t-84.5 42.5t-116 67t-115 88t-97 107.5q-23 -15 -52 -58.5t-38 -74.5q-107 90 -168.5 207t-61.5 246q0 125 54.5 237.5t153.5 200.5q-99 79 -153.5 180t-54.5 214q0 174 68.5 325t187.5 251q8 -10 23 -27.5t65 -61.5t105.5 -78
t142 -61.5t176.5 -27.5q65 0 128.5 14t113 36.5t94 50t76 55t54.5 50t34 36.5l12 14q119 -100 187.5 -251t68.5 -325q0 -113 -54.5 -214t-153.5 -180q99 -88 153.5 -200.5t54.5 -237.5q0 -129 -61.5 -246t-168.5 -207q-9 31 -38 74.5t-52 58.5z" />
<glyph unicode="&#xef60;" horiz-adv-x="2048" d="M1728 1664q133 0 226.5 -93.5t93.5 -226.5t-93.5 -226.5t-226.5 -93.5q-132 0 -226 94l-572 -572q94 -94 94 -226q0 -133 -93.5 -226.5t-226.5 -93.5t-226.5 93.5t-93.5 226.5q0 37 9 73q-36 -9 -73 -9q-133 0 -226.5 93.5t-93.5 226.5t93.5 226.5t226.5 93.5
q132 0 226 -94l572 572q-94 94 -94 226q0 133 93.5 226.5t226.5 93.5t226.5 -93.5t93.5 -226.5q0 -37 -9 -73q36 9 73 9z" />
<glyph unicode="&#xeff0;" horiz-adv-x="2048" d="M1664 1472v-64h-1280v64q0 39 35 57l105 52l55 167q7 20 23.5 32t37.5 12h768q21 0 37.5 -12t23.5 -32l55 -167l105 -52q35 -18 35 -57zM512 1280h1024q0 -6 -1 -8l-128 -960q-3 -24 -21 -40t-42 -16h-640q-24 0 -42 16t-21 40l-128 960q-1 2 -1 8z" />
<glyph unicode="&#xf000;" horiz-adv-x="2048" d="M1024 1792q208 0 397.5 -81t327 -218.5t218.5 -327t81 -397.5q0 -232 -99 -439q-16 -34 -47 -53.5t-68 -19.5h-1620q-37 0 -68 19.5t-47 53.5q-99 207 -99 439q0 208 81 397.5t218.5 327t327 218.5t397.5 81zM1214 796l357 429q15 18 15 41q0 26 -19 45t-45 19
q-23 0 -41 -15l-429 -357q-18 2 -27 2q-81 0 -137 -55.5t-56 -136.5t55.5 -136.5t136.5 -55.5t136.5 56t55.5 137q0 9 -2 27z" />
<glyph unicode="&#xf012;" horiz-adv-x="2048" d="M1322 1664l-41 240q-8 56 31 101q38 43 96 43h256q49 0 85 -32t42 -80q19 -115 42 -272h-511zM767 1904q-18 -99 -41 -240h-511l42 272q6 48 42 80t85 32h256q58 0 96 -43q39 -45 31 -101zM1852 1536q68 -480 68 -640q0 -182 -71 -348t-191 -286t-286 -191t-348 -71
t-348 71t-286 191t-191 286t-71 348q0 160 68 640h510q-66 -432 -66 -647q3 -157 115 -267t269 -110t269 110t115 267q0 215 -66 647h510z" />
<glyph unicode="&#xf030;" horiz-adv-x="2048" d="M1280 1536v128h-512v-128h512zM1920 1536q53 0 90.5 -37.5t37.5 -90.5v-256h-256v128h-256v-128h-1024v128h-256v-128h-256v256q0 53 37.5 90.5t90.5 37.5h512v128q0 53 37.5 90.5t90.5 37.5h512q53 0 90.5 -37.5t37.5 -90.5v-128h512zM1792 896v128h256v-640
q0 -53 -37.5 -90.5t-90.5 -37.5h-1792q-53 0 -90.5 37.5t-37.5 90.5v640h256v-128h256v128h1024v-128h256z" />
<glyph unicode="&#xf037;" horiz-adv-x="2048" d="M2010 1755q38 -38 38 -91t-38 -91l-512 -512q-37 -37 -90 -37h-128v-128q0 -51 -39 -89.5t-89 -38.5q-52 0 -91 37l-64 64l-485 -485v-128l-320 -256l-192 192l256 320h128l485 485l-64 64q-37 39 -37 91q0 50 38.5 89t89.5 39h128v128q0 52 37 91l512 512q39 37 91 37
q53 0 90 -37z" />
<glyph unicode="&#xf070;" horiz-adv-x="2048" d="M1792 1792q53 0 90.5 -37.5t37.5 -90.5v-256h-1792v256q0 53 37.5 90.5t90.5 37.5h128v128q0 53 37.5 90.5t90.5 37.5t90.5 -37.5t37.5 -90.5v-128h768v128q0 53 37.5 90.5t90.5 37.5t90.5 -37.5t37.5 -90.5v-128h128zM128 128v1152h1792v-1152q0 -53 -37.5 -90.5
t-90.5 -37.5h-1536q-53 0 -90.5 37.5t-37.5 90.5zM622 714v-144q0 -26 19 -45t45 -19h202v-202q0 -26 19 -45t45 -19h144q26 0 45 19t19 45v202h202q26 0 45 19t19 45v144q0 26 -19 45t-45 19h-202v202q0 26 -19 45t-45 19h-144q-26 0 -45 -19t-19 -45v-202h-202
q-26 0 -45 -19t-19 -45z" />
<glyph unicode="&#xf071;" horiz-adv-x="2048" d="M1792 1792q53 0 90.5 -37.5t37.5 -90.5v-256h-1792v256q0 53 37.5 90.5t90.5 37.5h128v128q0 53 37.5 90.5t90.5 37.5t90.5 -37.5t37.5 -90.5v-128h768v128q0 53 37.5 90.5t90.5 37.5t90.5 -37.5t37.5 -90.5v-128h128zM128 128v1152h1792v-1152q0 -53 -37.5 -90.5
t-90.5 -37.5h-1536q-53 0 -90.5 37.5t-37.5 90.5zM640 768v-256h768v256h-768z" />
<glyph unicode="&#xf072;" horiz-adv-x="2048" d="M1794 1792q53 0 90.5 -37.5t37.5 -90.5v-256h-1792v256q0 53 37.5 90.5t90.5 37.5h128v128q0 53 37.5 90.5t90.5 37.5t90.5 -37.5t37.5 -90.5v-128h768v128q0 53 37.5 90.5t90.5 37.5t90.5 -37.5t37.5 -90.5v-128h128zM130 128v1152h1792v-1152q0 -53 -37.5 -90.5
t-90.5 -37.5h-1536q-53 0 -90.5 37.5t-37.5 90.5zM616 677q-19 -19 -19 -45t19 -45l192 -192l105 -105q19 -19 45 -19t45 19l105 105l452 452q19 19 19 45.5t-19 45.5l-105 104q-19 19 -45 19t-45 -19l-407 -407l-147 147q-19 19 -45 19t-45 -19z" />
<glyph unicode="&#xf119;" horiz-adv-x="2048" d="M1024 2048q104 0 198.5 -40.5t163.5 -109.5t109.5 -163.5t40.5 -198.5v-896q0 -53 -37.5 -90.5t-90.5 -37.5h-256v-384q0 -53 -37.5 -90.5t-90.5 -37.5t-90.5 37.5t-37.5 90.5v384h-256q-53 0 -90.5 37.5t-37.5 90.5v896q0 104 40.5 198.5t109.5 163.5t163.5 109.5
t198.5 40.5z" />
<glyph unicode="&#xf120;" horiz-adv-x="2048" d="M1792 1728v-64h-1536v64q0 39 35 57l105 52l55 167q7 20 23.5 32t37.5 12h1024q21 0 37.5 -12t23.5 -32l55 -167l105 -52q35 -18 35 -57zM384 1536h1280v-6l-128 -1472q-2 -25 -20.5 -41.5t-43.5 -16.5h-896q-25 0 -43.5 16.5t-20.5 41.5l-128 1472v6z" />
<glyph unicode="&#xf124;" horiz-adv-x="2048" d="M1664 1472h-1280v64q0 26 19 45t45 19h512v128q0 75 50 139t123 82l387 99l32 -124l-388 -99q-30 -7 -53 -36.5t-23 -60.5v-128h512q26 0 45 -19t19 -45v-64zM576 58l-128 1286h1152l-128 -1286q-2 -25 -20.5 -41.5t-43.5 -16.5h-768q-25 0 -43.5 16.5t-20.5 41.5z" />
<glyph unicode="&#xf1a2;" horiz-adv-x="2048" d="M1531 421q5 -20 5 -37q0 -67 -57 -107l-384 -256q-33 -21 -71 -21q-39 0 -71 21l-384 256q-57 40 -57 107q0 17 5 37l362 1207l-202 201q-37 39 -37 91q0 50 38.5 89t89.5 39h512q51 0 89.5 -39t38.5 -89q0 -53 -38 -91l-201 -201zM1313 1591l12 12l325 -650
q14 -28 14 -57q0 -44 -30.5 -81t-74.5 -45z" />
<glyph unicode="&#xf201;" horiz-adv-x="2048" d="M1408 850q128 -144 128 -338q0 -212 -150 -362t-362 -150t-362 150t-150 362q0 194 128 338v814q0 159 112.5 271.5t271.5 112.5t271.5 -112.5t112.5 -271.5v-814zM1024 128q159 0 271.5 112.5t112.5 271.5q0 83 -34 157.5t-94 128.5v866q0 106 -75 181t-181 75t-181 -75
t-75 -181v-866q-60 -53 -94 -127.5t-34 -158.5q0 -159 112.5 -271.5t271.5 -112.5zM1152 733q58 -34 93 -92.5t35 -128.5q0 -106 -75 -181t-181 -75t-181 75t-75 181q0 70 35 128.5t93 92.5v675h256v-675z" />
<glyph unicode="&#xf280;" horiz-adv-x="2048" d="M1478 1122q116 -1 221.5 -47.5t182 -123.5t121.5 -183t45 -222q0 -180 -100 -326.5t-268 -210.5q-22 -9 -48 -9q-61 0 -99 49l-411 521q-1 -116 -47.5 -221.5t-123.5 -182t-183 -121.5t-222 -45q-180 0 -326.5 100t-210.5 268q-9 24 -9 48q0 59 49 99l521 411
q-116 1 -221.5 47.5t-182 123.5t-121.5 183t-45 222q0 180 100 326.5t268 210.5q22 9 48 9q61 0 99 -49l411 -521q1 116 47.5 221.5t123.5 182t183 121.5t222 45q180 0 326.5 -100t210.5 -268q9 -24 9 -48q0 -59 -49 -99zM1024 768q106 0 181 75t75 181t-75 181t-181 75
t-181 -75t-75 -181t75 -181t181 -75z" />
<glyph unicode="&#xf282;" horiz-adv-x="2048" d="M1580 1898q220 -148 344 -380t124 -494t-124 -494t-344 -380q-35 -22 -72 -22h-968q-37 0 -72 22q-220 148 -344 380t-124 494t124 494t344 380q35 22 72 22h968q37 0 72 -22zM1472 1024v512h-128v-512h128zM704 1024v512h-128v-512h128zM1216 576q0 80 -56 136t-136 56
t-136 -56t-56 -136v-128h384v128z" />
<glyph unicode="&#xf2a0;" horiz-adv-x="2048" d="M80 208q-39 0 -59.5 19.5t-20.5 52.5q0 64 83.5 181.5t232.5 266.5q-60 140 -60 296q0 209 103 385.5t279.5 279.5t385.5 103q272 0 483 -171q314 171 461 171q38 0 59 -16.5t21 -47.5q0 -115 -246.5 -379t-624.5 -549q-312 -235 -603 -398q-348 -194 -494 -194z
M1800 1673q0 20 -28 20q-61 0 -235 -97q64 -60 112 -126q151 154 151 203zM1305 672q269 204 485 408q2 -38 2 -56q0 -209 -103 -385.5t-279.5 -279.5t-385.5 -103q-139 0 -269 48q262 151 550 368zM171 477q0 -21 28 -21q58 0 224 91q-51 63 -90 142q-162 -162 -162 -212z
" />
<glyph unicode="&#xf320;" horiz-adv-x="2048" d="M2010 1536h-1972q67 324 237 493q19 19 45 19q39 0 57 -35q66 -134 242 -134q95 0 193.5 41t166.5 109q18 19 45 19t45 -19q68 -68 166 -109t194 -41q176 0 242 134q18 35 57 35q26 0 45 -19q170 -169 237 -493zM17 1408h2014q17 -126 17 -256q0 -251 -129 -476.5
t-377 -407.5q-36 -26 -73.5 -51t-71.5 -45t-69 -39.5t-64.5 -34t-58.5 -28.5t-51.5 -23.5t-43.5 -18t-34 -13.5t-22 -9l-10 -3q-9 -3 -20 -3t-20 3l-10 3q-9 4 -22 9t-34 13.5t-43.5 18t-51.5 23.5t-58.5 28.5t-64.5 34t-69 39.5t-71.5 45t-73.5 51q-248 182 -377 407.5
t-129 476.5q0 130 17 256z" />
<glyph unicode="&#xf4b1;" horiz-adv-x="2048" d="M1920 1536q53 0 90.5 -37.5t37.5 -90.5v-1024q0 -53 -37.5 -90.5t-90.5 -37.5h-1792q-53 0 -90.5 37.5t-37.5 90.5v1024q0 53 37.5 90.5t90.5 37.5h512v128q0 53 37.5 90.5t90.5 37.5h512q53 0 90.5 -37.5t37.5 -90.5v-128h512zM768 1664v-128h512v128h-512zM1408 768
v256h-256v256h-256v-256h-256v-256h256v-256h256v256h256z" />
<glyph unicode="&#xf4c0;" horiz-adv-x="2048" d="M1536 1792h-1024v192q0 26 19 45t45 19h896q26 0 45 -19t19 -45v-192zM2039 96q9 -15 9 -32q0 -26 -19 -45t-45 -19h-1920q-26 0 -45 19t-19 45q0 17 9 32l631 1073v495h768v-495z" />
<glyph unicode="&#xf500;" horiz-adv-x="2048" d="M552 387q-19 -19 -45 -19t-45 19l-268 268q-19 19 -19 45t19 45l793 793q19 19 45 19t45 -19l793 -793q19 -19 19 -45t-19 -45l-268 -268q-19 -19 -45.5 -19t-45.5 19l-479 479z" />
<glyph unicode="&#xf501;" horiz-adv-x="2048" d="M1069 395q-19 -19 -45 -19t-45 19l-793 793q-19 19 -19 45t19 45l268 268q19 19 45 19t45 -19l480 -479l479 479q19 19 45.5 19t45.5 -19l268 -268q19 -19 19 -45t-19 -45z" />
<glyph unicode="&#xf552;" horiz-adv-x="2048" d="M282 825l-282 199l282 199l-145 313l344 31l31 344l313 -145l199 282l199 -282l313 145l31 -344l344 -31l-145 -313l282 -199l-282 -199l145 -313l-344 -31l-31 -344l-313 145l-199 -282l-199 282l-313 -145l-31 344l-344 31z" />
<glyph unicode="&#xf600;" horiz-adv-x="2048" d="M2048 704q0 -23 -15 -41l-320 -384q-18 -23 -49 -23t-49 23l-320 384q-15 18 -15 41q0 31 18.5 47.5t45.5 16.5h192v768h-640v256h768q53 0 90.5 -37.5t37.5 -90.5v-896h192q27 0 45.5 -16.5t18.5 -47.5zM512 1280v-768h640v-256h-768q-53 0 -90.5 37.5t-37.5 90.5v896
h-192q-28 0 -46 16t-18 48q0 23 15 41l320 384q18 23 49 23t49 -23l320 -384q15 -18 15 -41q0 -32 -18 -48t-46 -16h-192z" />
<glyph unicode="&#xf601;" horiz-adv-x="2048" d="M1664 768q159 0 271.5 -112.5t112.5 -271.5t-112.5 -271.5t-271.5 -112.5t-271.5 112.5t-112.5 271.5q0 24 3 47l-633 317q-111 -108 -266 -108q-159 0 -271.5 112.5t-112.5 271.5t112.5 271.5t271.5 112.5q155 0 266 -108l633 317q-3 22 -3 47q0 159 112.5 271.5
t271.5 112.5t271.5 -112.5t112.5 -271.5t-112.5 -271.5t-271.5 -112.5q-155 0 -266 108l-633 -317q3 -23 3 -47t-3 -47l633 -317q111 108 266 108z" />
<glyph unicode="&#xf610;" horiz-adv-x="2048" d="M1920 2048q53 0 90.5 -37.5t37.5 -90.5v-1792q0 -53 -37.5 -90.5t-90.5 -37.5h-1792q-53 0 -90.5 37.5t-37.5 90.5v1792q0 53 37.5 90.5t90.5 37.5h1792zM1280 1360v176h-142q-242 0 -242 -230v-90h-96v-192h96v-512h224v512h128l32 192h-160v73q0 23 1 31.5t6.5 20.5
t19 15.5t37.5 3.5h96z" />
<glyph unicode="&#xf611;" horiz-adv-x="2048" d="M1920 2048q53 0 90.5 -37.5t37.5 -90.5v-1792q0 -53 -37.5 -90.5t-90.5 -37.5h-1792q-53 0 -90.5 37.5t-37.5 90.5v1792q0 53 37.5 90.5t90.5 37.5h1792zM1024 768q-64 0 -96 40.5t-32 87.5v128h384q53 0 90.5 37.5t37.5 90.5t-37.5 90.5t-90.5 37.5h-384v128
q0 53 -37.5 90.5t-90.5 37.5t-90.5 -37.5t-37.5 -90.5v-512q0 -71 27 -139.5t74.5 -123t121.5 -88t161 -33.5h256q53 0 90.5 37.5t37.5 90.5t-37.5 90.5t-90.5 37.5h-256z" />
<glyph unicode="&#xf6f3;" horiz-adv-x="2048" d="M215 1652l-178 177q-37 37 -37 91q0 53 37.5 90.5t90.5 37.5q52 0 91 -37l177 -178q277 215 628 215t628 -215l177 178q39 37 91 37q54 0 91 -37.5t37 -90.5q0 -52 -37 -91l-178 -177q215 -277 215 -628h-2048q0 351 215 628zM640 1408q0 53 -37.5 90.5t-90.5 37.5
t-90.5 -37.5t-37.5 -90.5t37.5 -90.5t90.5 -37.5t90.5 37.5t37.5 90.5zM1664 1408q0 53 -37.5 90.5t-90.5 37.5t-90.5 -37.5t-37.5 -90.5t37.5 -90.5t90.5 -37.5t90.5 37.5t37.5 90.5zM0 128v768h2048v-768q0 -53 -37.5 -90.5t-90.5 -37.5h-1792q-53 0 -90.5 37.5
t-37.5 90.5z" />
<glyph unicode="&#x1f304;" horiz-adv-x="2048" d="M1920 1792q53 0 90.5 -37.5t37.5 -90.5v-1280q0 -53 -37.5 -90.5t-90.5 -37.5h-1792q-53 0 -90.5 37.5t-37.5 90.5v1280q0 53 37.5 90.5t90.5 37.5h1792zM1536 1536q-106 0 -181 -75t-75 -181t75 -181t181 -75t181 75t75 181t-75 181t-181 75zM1465 512q-14 31 -94 182
t-153 287l-73 136q-15 29 -47 34q-3 1 -10 1q-26 0 -45 -19l-73 -73l-213 319q-19 29 -53 29h-4q-37 -3 -53 -35q-418 -825 -436 -861h1254z" />
<glyph unicode="&#x1f310;" horiz-adv-x="2048" d="M1024 640q-174 0 -321 85.5t-233 233t-86 321.5q0 130 51 248.5t136.5 204t204 136.5t248.5 51t248.5 -51t204 -136.5t136.5 -204t51 -248.5q0 -174 -86 -321.5t-233 -233t-321 -85.5zM1536 0h-1024v64q0 26 19 45t45 19h384v258q-162 12 -308.5 78.5t-261.5 181.5l91 91
q109 -109 249 -167t294 -58q156 0 298 61t245 164t164 245t61 298q0 343 -270 588l161 161q18 19 45 19t45.5 -19t18.5 -45q0 -27 -19 -45l-72 -72q107 -122 163 -273t56 -314q0 -176 -65.5 -336t-177 -278t-265 -193t-324.5 -87v-258h384q26 0 45 -19t19 -45v-64z" />
<glyph unicode="&#x1f319;" horiz-adv-x="2048" d="M727 1655q18 -2 29.5 -15.5t11.5 -31.5q0 -20 -14 -34l-150 -150l43 -215q4 -21 -10.5 -39t-36.5 -18q-12 0 -23 6l-193 107l-193 -107q-11 -6 -23 -6q-22 0 -36.5 17.5t-10.5 39.5l43 215l-150 150q-14 14 -14 34q0 18 11.5 31.5t28.5 15.5l203 32l98 206q13 27 43 27
t43 -27l98 -206zM1089 2048q80 0 169 -21t182 -64.5t181 -105t165.5 -148t135.5 -187t92 -228.5t34 -267q0 -208 -81.5 -398.5t-219 -328t-328 -219t-398.5 -81.5q-257 0 -494 128t-388 348q-11 17 -11 36q0 27 18.5 45.5t45.5 18.5q2 0 65 -11t117 -11q164 0 319 70
t269.5 185.5t184 273.5t69.5 325q0 55 -6.5 112.5t-23.5 132t-54.5 151t-91.5 138.5q-16 17 -16 42t18.5 44.5t46.5 19.5z" />
<glyph unicode="&#x1f332;" horiz-adv-x="2048" d="M1781 484q11 -17 11 -36q0 -30 -18 -47t-46 -17h-576v-320q0 -26 -19 -45t-45 -19h-128q-26 0 -45 19t-19 45v320h-576q-28 0 -46 17t-18 47q0 19 11 36l459 668h-150q-27 0 -45.5 16.5t-18.5 47.5q0 17 9 32l448 768q18 32 55 32t55 -32l448 -768q9 -15 9 -32
q0 -31 -18 -47.5t-46 -16.5h-150z" />
<glyph unicode="&#x1f342;" horiz-adv-x="2048" d="M896 1664q105 0 204 -28.5t182 -76.5t161 -106.5t152.5 -123t144.5 -122.5t151 -108t157 -75q-39 -78 -119 -165t-195.5 -171t-247 -152t-287.5 -110t-303 -42q-81 0 -157.5 13.5t-156 48.5t-141.5 89.5t-109.5 143.5t-64.5 202q-104 -22 -185 -47q-12 -2 -18 -2
q-26 0 -45 19t-19 45q0 21 12.5 38t33.5 24q227 65 414 97.5t436 32.5q137 0 326 -20.5t314 -43.5q-134 90 -348 141t-484 51q-271 0 -448 -64q24 108 92 205.5t158 163.5t193 104.5t197 38.5z" />
<glyph unicode="&#x1f368;" horiz-adv-x="2048" d="M608 1152q-93 0 -158.5 65.5t-65.5 158.5q0 84 55 147t137 74v3q0 185 131.5 316.5t316.5 131.5t316.5 -131.5t131.5 -316.5v-3q82 -11 137 -74t55 -147q0 -93 -65.5 -158.5t-158.5 -65.5h-832zM901 93l-261 931h768l-261 -931q-12 -41 -46 -67t-77 -26t-77 26t-46 67z
" />
<glyph unicode="&#x1f374;" horiz-adv-x="2048" d="M1987 1886q61 -60 61 -185q0 -177 -60.5 -343t-162.5 -268q-51 -51 -119 -81.5t-129 -38.5t-114.5 -8.5t-85.5 4.5l-32 6l-716 -807q-37 -37 -91 -37q-53 0 -90 37l-91 91q-37 37 -37 90q0 54 37 91l465 465l-125 140q-62 -22 -139.5 -26.5t-152.5 13.5t-115 58
q-60 60 -131 170.5t-111 190.5l-41 80q-16 29 0 45q18 18 45 0l363 -316q24 -21 56 11q31 31 11 56l-328 396q-18 26 0 46q20 18 46 0q371 -308 396 -328t56 11q32 32 11 56l-316 363q-18 27 0 45q16 16 45 0q12 -6 33.5 -16.5t81.5 -43.5t113 -65t114 -76t99 -82
q40 -40 58 -115t13.5 -152.5t-26.5 -139.5l140 -126l788 789q34 34 91 34t90 -34zM1352 798l402 -361q38 -37 38 -91q0 -52 -38 -90l-90 -91q-37 -37 -91 -37q-51 0 -90 37l-348 388z" />
<glyph unicode="&#x1f375;" horiz-adv-x="2048" d="M2048 1376q0 -106 -66 -195t-165 -137.5t-205 -51.5q-62 -167 -148 -320q-19 -32 -56 -32h-768q-37 0 -56 32q-30 52 -58.5 110t-68 155.5t-68 195t-49 223t-20.5 244.5q0 26 19 45t45 19h1280q26 0 45 -19t19 -45v-19q49 19 96 19q92 0 158 -65.5t66 -158.5zM1656 1125
q103 18 183.5 86.5t80.5 164.5q0 40 -28 68t-68 28q-63 0 -107 -49q-17 -147 -61 -298zM128 384q-52 0 -90 38t-38 90h2048q0 -52 -38 -90t-90 -38h-1792z" />
<glyph unicode="&#x1f377;" horiz-adv-x="2048" d="M1536 1280q0 -195 -128.5 -339.5t-319.5 -168.5v-644q96 -11 209 -49t175 -79h-896q61 41 174.5 79t209.5 49v644q-191 24 -319.5 168.5t-128.5 339.5v7v1q0 188 48.5 419t86.5 306q18 35 57 35h640q39 0 57 -35q38 -75 86.5 -306t48.5 -419v-1v-7z" />
<glyph unicode="&#x1f37a;" horiz-adv-x="2048" d="M1405 1759q60 -34 95.5 -93t35.5 -130h-1024q0 115 72.5 203t183.5 111v6q0 80 56 136t136 56q50 0 93 -24t69 -65q44 25 94 25q80 0 136 -56t56 -136q0 -16 -3 -33zM1728 1280q80 0 136 -56t56 -136v-512q0 -80 -56 -136t-136 -56h-192v-320q0 -26 -19 -45t-45 -19h-896
q-26 0 -45 19t-19 45v1344h1024v-128h192zM1728 576v512h-192v-512h192z" />
<glyph unicode="&#x1f381;" horiz-adv-x="2048" d="M2048 1280v-256h-2048v256q0 53 37.5 90.5t90.5 37.5h484q-169 65 -214 86q-24 11 -41.5 21.5t-44 31.5t-41.5 51t-15 66q0 51 40.5 119t98.5 126t126 98.5t119 40.5q67 0 147.5 -70t236.5 -246q156 176 236.5 246t147.5 70q51 0 119 -40.5t126 -98.5t98.5 -126
t40.5 -119q0 -36 -15 -66t-41.5 -51t-44 -31.5t-41.5 -21.5q-45 -21 -214 -86h484q53 0 90.5 -37.5t37.5 -90.5zM128 128v768h1792v-768q0 -53 -37.5 -90.5t-90.5 -37.5h-1536q-53 0 -90.5 37.5t-37.5 90.5z" />
<glyph unicode="&#x1f3a4;" horiz-adv-x="2048" d="M1024 2048q104 0 198.5 -40.5t163.5 -109.5t109.5 -163.5t40.5 -198.5v-512q0 -104 -40.5 -198.5t-109.5 -163.5t-163.5 -109.5t-198.5 -40.5t-198.5 40.5t-163.5 109.5t-109.5 163.5t-40.5 198.5v512q0 104 40.5 198.5t109.5 163.5t163.5 109.5t198.5 40.5zM1792 1024
q0 -148 -55 -284t-149 -237.5t-224 -166.5t-276 -77v-131h384q26 0 45 -19t19 -45t-19 -45t-45 -19h-896q-26 0 -45 19t-19 45t19 45t45 19h384v131q-146 12 -276 77t-224 166.5t-149 237.5t-55 284q0 26 19 45t45 19t45 -19t19 -45q0 -130 51 -248.5t136.5 -204t204 -136.5
t248.5 -51t248.5 51t204 136.5t136.5 204t51 248.5q0 26 19 45t45 19t45 -19t19 -45z" />
<glyph unicode="&#x1f3a7;" horiz-adv-x="2048" d="M2048 640q0 -26 -19 -45t-45 -19t-45 19t-19 45v384q0 182 -71 348t-191 286t-286 191t-348 71t-348 -71t-286 -191t-191 -286t-71 -348v-384q0 -26 -19 -45t-45 -19t-45 19t-19 45v384q0 208 81 397.5t218.5 327t327 218.5t397.5 81t397.5 -81t327 -218.5t218.5 -327
t81 -397.5v-384zM1792 320q0 -26 -19 -45t-45 -19h-128q-26 0 -45 19t-19 45v640q0 26 19 45t45 19h128q26 0 45 -19t19 -45v-640zM512 320q0 -26 -19 -45t-45 -19h-128q-26 0 -45 19t-19 45v640q0 26 19 45t45 19h128q26 0 45 -19t19 -45v-640z" />
<glyph unicode="&#x1f3ae;" horiz-adv-x="2048" d="M1920 1664q53 0 90.5 -37.5t37.5 -90.5v-1024q0 -53 -37.5 -90.5t-90.5 -37.5h-1792q-53 0 -90.5 37.5t-37.5 90.5v1024q0 53 37.5 90.5t90.5 37.5h1792zM896 896v256h-256v256h-256v-256h-256v-256h256v-256h256v256h256zM1408 768q53 0 90.5 37.5t37.5 90.5t-37.5 90.5
t-90.5 37.5t-90.5 -37.5t-37.5 -90.5t37.5 -90.5t90.5 -37.5zM1792 768q53 0 90.5 37.5t37.5 90.5t-37.5 90.5t-90.5 37.5t-90.5 -37.5t-37.5 -90.5t37.5 -90.5t90.5 -37.5z" />
<glyph unicode="&#x1f3af;" horiz-adv-x="2048" d="M1280 1536q156 0 298 -61t245 -164t164 -245t61 -298t-61 -298t-164 -245t-245 -164t-298 -61q-208 0 -385 103t-280 280t-103 385q0 263 162 471l-170 169h-248l-256 256h384v384l256 -256v-248l169 -170q210 162 471 162zM1280 256q104 0 198.5 40.5t163.5 109.5
t109.5 163.5t40.5 198.5t-40.5 198.5t-109.5 163.5t-163.5 109.5t-198.5 40.5q-158 0 -288 -89l188 -187q48 20 100 20q106 0 181 -75t75 -181t-75 -181t-181 -75t-181 75t-75 181q0 52 20 100l-187 188q-89 -130 -89 -288q0 -104 40.5 -198.5t109.5 -163.5t163.5 -109.5
t198.5 -40.5z" />
<glyph unicode="&#x1f3c6;" horiz-adv-x="2048" d="M1920 1920q53 0 90.5 -37.5t37.5 -90.5q0 -123 -31.5 -287t-90.5 -306q-40 -97 -90 -172t-98.5 -121.5t-103.5 -77.5t-102 -43.5t-96 -15.5q-154 -257 -412 -257t-412 257q-49 3 -96 15.5t-102 43.5t-103.5 77.5t-98.5 121.5t-90 172q-59 142 -90.5 306t-31.5 287
q0 53 37.5 90.5t90.5 37.5h257v70q2 24 20 41t43 17h1152q25 0 43 -17t20 -41v-70h257zM128 1792q0 -76 13 -172t44.5 -210.5t77 -213.5t118.5 -178t161 -107q-129 320 -153 881h-261zM1506 911q88 28 161 107t118.5 178t77 213.5t44.5 210.5t13 172h-261
q-24 -561 -153 -881zM1152 245q137 -24 239.5 -92.5t144.5 -152.5h-1024q42 84 144.5 152.5t239.5 92.5v153q62 -14 128 -14q65 0 128 14v-153z" />
<glyph unicode="&#x1f408;" horiz-adv-x="2048" d="M22 1373q29 35 74 35q35 0 61 -22q221 -181 221 -415q0 -96 -45 -268t-45 -255q0 -62 28.5 -108.5t80 -74.5t111 -44t132.5 -23l64 1786q0 21 12 37.5t32 23.5q11 3 20 3q33 0 51 -26l266 -358h518l266 358q18 26 51 26q10 0 20 -3q20 -7 32 -23.5t12 -37.5l64 -1856
q0 -53 -37.5 -90.5t-90.5 -37.5h-1152q-320 0 -496 117t-176 331q0 90 22.5 191t45 188t22.5 142q0 73 -34 137t-117 132q-31 25 -34.5 64.5t21.5 70.5zM1088 1216q0 53 -37.5 90.5t-90.5 37.5t-90.5 -37.5t-37.5 -90.5t37.5 -90.5t90.5 -37.5t90.5 37.5t37.5 90.5z
M1856 1216q0 53 -37.5 90.5t-90.5 37.5t-90.5 -37.5t-37.5 -90.5t37.5 -90.5t90.5 -37.5t90.5 37.5t37.5 90.5z" />
<glyph unicode="&#x1f41b;" horiz-adv-x="2048" d="M1024 1920q69 0 132 -12t126.5 -40t117.5 -71t101.5 -109.5t81.5 -151.5h-1118q34 85 81.5 151.5t101.5 109.5t117.5 71t126.5 40t132 12zM2019 501q29 -18 29 -53q0 -24 -19.5 -44t-44.5 -20q-21 0 -36 11l-331 221q-37 -135 -100 -233t-143.5 -152t-166.5 -78.5
t-183 -24.5t-183 24.5t-166.5 78.5t-143.5 152t-100 233l-332 -221q-14 -11 -35 -11q-25 0 -44.5 20t-19.5 44q0 34 28 53l375 250q-11 68 -15 145h-324q-26 0 -45 19t-19 45t19 45t45 19h320q0 69 5 144l-345 115q-20 7 -32 23.5t-12 37.5q0 27 19.5 45.5t44.5 18.5
q11 0 20 -3l319 -107q7 48 22 110h1198q15 -64 21 -110l320 107q9 3 20 3q25 0 44.5 -18.5t19.5 -45.5q0 -21 -12 -37.5t-32 -23.5l-345 -115q5 -75 5 -144h320q26 0 45 -19t19 -45t-19 -45t-45 -19h-324q-4 -77 -15 -145z" />
<glyph unicode="&#x1f426;" horiz-adv-x="2048" d="M1280 1408q53 0 90.5 37.5t37.5 90.5t-37.5 90.5t-90.5 37.5t-90.5 -37.5t-37.5 -90.5t37.5 -90.5t90.5 -37.5zM1744 1651l304 -243l-263 -210q-11 -174 -42.5 -324.5t-85.5 -287t-136 -242.5t-189 -184t-250 -119t-314 -41q-105 0 -215 32t-208 92t-176 137.5
t-123.5 176.5t-45.5 202q75 -19 138.5 -21t111.5 16t86.5 40.5t65 70t46.5 85.5t31.5 105t18.5 111.5t10 122t3.5 119t0.5 119.5q0 130 51 248.5t136.5 204t204 136.5t248.5 51q197 0 358 -110t234 -287z" />
<glyph unicode="&#x1f440;" horiz-adv-x="2048" d="M1024 1792q283 0 544.5 -200t479.5 -568q-218 -368 -479.5 -568t-544.5 -200t-544.5 200t-479.5 568q218 368 479.5 568t544.5 200zM1024 512q212 0 362 150t150 362q0 34 -4 62q-84 -62 -188 -62q-133 0 -226.5 93.5t-93.5 226.5q0 103 61 188q-27 4 -61 4
q-212 0 -362 -150t-150 -362t150 -362t362 -150z" />
<glyph unicode="&#x1f44d;" horiz-adv-x="2048" d="M1920 1216q53 -12 90.5 -50.5t37.5 -77.5q0 -215 -47.5 -542t-80.5 -418q-17 -47 -94.5 -87.5t-161.5 -40.5q-144 0 -376.5 51t-414 111t-233.5 94v1024q268 194 320 256q38 46 90.5 177.5t103.5 304.5q48 30 126 30q53 0 90.5 -39.5t37.5 -88.5q0 -18 -1 -49.5
t-7.5 -119t-18.5 -164.5t-38.5 -165t-62.5 -142q147 -6 363.5 -28.5t276.5 -35.5zM512 1280v-1152h-512v1152h512z" />
<glyph unicode="&#x1f44e;" horiz-adv-x="2048" d="M1920 832q-60 -13 -276.5 -35.5t-363.5 -28.5q36 -54 62.5 -139.5t38.5 -169.5t18.5 -160t7.5 -123l1 -48q0 -49 -37.5 -88.5t-90.5 -39.5q-78 0 -126 30q-51 173 -103.5 304.5t-90.5 177.5q-23 28 -103 92t-149 114l-68 50v1024q52 34 233.5 94t414 111t376.5 51
q84 0 161.5 -40.5t94.5 -87.5q33 -91 80.5 -418t47.5 -542q0 -39 -37.5 -77.5t-90.5 -50.5zM0 1920h512v-1152h-512v1152z" />
<glyph unicode="&#x1f451;" horiz-adv-x="2048" d="M127 832l-126 627q-1 5 -1 13q0 26 19.5 45t44.5 19q21 0 39 -13l517 -402l348 638q18 33 56 33t56 -33l348 -638l517 402q18 13 39 13q25 0 44.5 -19t19.5 -45q0 -8 -1 -13l-126 -627h-1794zM1922 704l60 -240q2 -12 2 -16q0 -26 -19 -45t-45 -19h-1792q-26 0 -45 19
t-19 45q0 4 2 16l60 240h1796z" />
<glyph unicode="&#x1f453;" horiz-adv-x="2048" d="M1581 1581q42 -41 456 -649q11 -17 11 -72q0 -60 -27 -201.5t-62 -189.5q-19 -28 -44 -39q-110 -46 -315 -46q-202 0 -304 41q-42 17 -63 55q-18 32 -38.5 110t-32.5 159q-86 19 -138 19t-138 -19q-12 -81 -32.5 -159t-38.5 -110q-21 -38 -63 -55q-102 -41 -301 -41
q-94 0 -187 12.5t-131 33.5q-29 18 -45 39q-35 48 -61.5 189.5t-26.5 201.5q0 54 11 72q414 608 456 649q81 83 173 83q64 0 116 -29t80 -71.5t43 -83.5t15 -73q0 -27 -17.5 -45t-45.5 -18q-23 0 -41 15.5t-21 38.5q-9 55 -41.5 96.5t-87.5 41.5q-37 0 -82 -45
q-33 -35 -340 -483q138 16 230 16t207 -12.5t156 -26.5q34 -13 56.5 -40.5t27.5 -62.5q82 14 129 14t129 -14q5 35 27.5 62.5t56.5 40.5q41 14 156 26.5t207 12.5t230 -16q-307 448 -340 483q-45 45 -82 45q-55 0 -87.5 -41.5t-41.5 -96.5q-3 -23 -21 -38.5t-41 -15.5
q-28 0 -46.5 18t-18.5 45q0 32 15 73t44 83.5t81 71.5t116 29q92 0 173 -83zM704 544q16 29 40 141.5t24 178.5q-25 9 -128.5 20.5t-191.5 11.5q-84 0 -187 -12t-133 -20q2 -63 25 -180.5t39 -139.5q24 -13 101.5 -22.5t154.5 -9.5q81 0 152.5 9.5t103.5 22.5zM1856 544
q15 21 38.5 138.5t25.5 181.5q-32 8 -134 20t-186 12q-88 0 -191.5 -11.5t-128.5 -20.5q0 -66 24 -178.5t40 -141.5q32 -13 103.5 -22.5t152.5 -9.5q76 0 154 9.5t102 22.5z" />
<glyph unicode="&#x1f455;" horiz-adv-x="2048" d="M2010 1466q38 -16 38 -58q0 -14 -5 -24l-128 -320q-16 -40 -59 -40q-11 0 -20 3l-300 100v-807q0 -26 -19 -45t-45 -19h-896q-26 0 -45 19t-19 45v807l-300 -100q-9 -3 -20 -3q-43 0 -59 40l-128 320q-5 10 -5 24q0 42 38 58l730 326q0 -106 75 -181t181 -75t181 75
t75 181z" />
<glyph unicode="&#x1f464;" horiz-adv-x="2048" d="M1024 768q-104 0 -198.5 40.5t-163.5 109.5t-109.5 163.5t-40.5 198.5v256q0 104 40.5 198.5t109.5 163.5t163.5 109.5t198.5 40.5t198.5 -40.5t163.5 -109.5t109.5 -163.5t40.5 -198.5v-256q0 -104 -40.5 -198.5t-109.5 -163.5t-163.5 -109.5t-198.5 -40.5zM1977 370
q33 -16 52 -47t19 -67v-128q0 -53 -37.5 -90.5t-90.5 -37.5h-1792q-53 0 -90.5 37.5t-37.5 90.5v128q0 36 19 67t52 47q27 14 69.5 33.5t156.5 65t222.5 80.5t249 63t255.5 28t255.5 -28t249 -63t222.5 -80.5t156.5 -65t69.5 -33.5z" />
<glyph unicode="&#x1f465;" horiz-adv-x="2048" d="M1024 864q-132 0 -226 94t-94 226v160q0 132 94 226t226 94t226 -94t94 -226v-160q0 -132 -94 -226t-226 -94zM1664 864q-80 0 -136 56t-56 136v96q0 80 56 136t136 56t136 -56t56 -136v-96q0 -80 -56 -136t-136 -56zM384 864q-80 0 -136 56t-56 136v96q0 80 56 136
t136 56t136 -56t56 -136v-96q0 -80 -56 -136t-136 -56zM2021 715q27 -13 27 -43v-48q0 -20 -14 -34t-34 -14h-343q7 -14 7 -32v-80q0 -33 -23.5 -56.5t-56.5 -23.5h-1120q-33 0 -56.5 23.5t-23.5 56.5v80q0 18 7 32h-343q-20 0 -34 14t-14 34v48q0 30 27 43q25 13 64 30
t131.5 44t161.5 27q137 0 329 -88q179 56 311 56t311 -56q192 88 329 88q69 0 161.5 -27t131.5 -44t64 -30z" />
<glyph unicode="&#x1f47b;" horiz-adv-x="2048" d="M1920 0q-41 0 -73 13t-54 32l-44 38t-54 32t-73 13t-73.5 -13t-54.5 -32l-44 -38t-54 -32t-73 -13t-73 13t-54 32l-44 38t-54.5 32t-73.5 13t-73 -13t-54 -32l-44 -38t-54.5 -32t-73.5 -13t-73 13t-54 32l-44 38t-54 32t-73 13t-73.5 -13t-54.5 -32l-44 -38t-54 -32
t-73 -13q0 8 15.5 152t46 377.5t68.5 473t91.5 454.5t107.5 304q32 52 82.5 101t120.5 91.5t165 68.5t199 26q105 0 200 -26t164.5 -68.5t120.5 -91.5t82 -101q54 -89 107.5 -304t91.5 -454.5t68.5 -473t46 -377.5t15.5 -152zM1408 1088q53 0 90.5 37.5t37.5 90.5
t-37.5 90.5t-90.5 37.5t-90.5 -37.5t-37.5 -90.5t37.5 -90.5t90.5 -37.5zM640 1088q53 0 90.5 37.5t37.5 90.5t-37.5 90.5t-90.5 37.5t-90.5 -37.5t-37.5 -90.5t37.5 -90.5t90.5 -37.5z" />
<glyph unicode="&#x1f480;" horiz-adv-x="2048" d="M1664 2048q159 0 271.5 -112.5t112.5 -271.5v-896q0 -159 -112.5 -271.5t-271.5 -112.5v-256q0 -53 -37.5 -90.5t-90.5 -37.5h-1024q-53 0 -90.5 37.5t-37.5 90.5v256q-159 0 -271.5 112.5t-112.5 271.5v896q0 159 112.5 271.5t271.5 112.5h1280zM1152 960
q0 -133 93.5 -226.5t226.5 -93.5t226.5 93.5t93.5 226.5t-93.5 226.5t-226.5 93.5t-226.5 -93.5t-93.5 -226.5zM256 960q0 -133 93.5 -226.5t226.5 -93.5t226.5 93.5t93.5 226.5t-93.5 226.5t-226.5 93.5t-226.5 -93.5t-93.5 -226.5z" />
<glyph unicode="&#x1f4a1;" horiz-adv-x="2048" d="M1024 2048q130 0 248.5 -51t204 -136.5t136.5 -204t51 -248.5q0 -131 -43.5 -230.5t-127.5 -221.5q-97 -142 -130 -204q-62 -118 -83 -240h-512q-14 84 -49 166t-66.5 132.5t-84.5 126.5l-15 21q-55 80 -85.5 133.5t-57 139.5t-26.5 177q0 130 51 248.5t136.5 204
t204 136.5t248.5 51zM768 384h512v-256q0 -21 -12 -37.5t-32 -23.5l-192 -64q-9 -3 -20 -3t-20 3l-192 64q-20 7 -32 23.5t-12 37.5v256z" />
<glyph unicode="&#x1f4a9;" horiz-adv-x="2048" d="M1724 891q139 -22 231.5 -129t92.5 -250q0 -159 -112.5 -271.5t-271.5 -112.5h-1280q-159 0 -271.5 112.5t-112.5 271.5q0 151 102.5 261.5t252.5 121.5q-99 109 -99 257q0 62 21.5 114.5t55.5 90.5t87 73t103 58t117 48q59 22 106.5 44t101.5 57.5t90.5 74.5t61 93
t24.5 115q159 0 271.5 -112.5t112.5 -271.5q0 -65 -22 -128h86q133 0 226.5 -93.5t93.5 -226.5q0 -108 -68 -197z" />
<glyph unicode="&#x1f4ac;" horiz-adv-x="2048" d="M704 1792h640q191 0 353 -94.5t256.5 -256.5t94.5 -353t-94.5 -353t-256.5 -256.5t-353 -94.5h-192l-357 -347q-39 -37 -91 -37q-51 0 -89.5 38t-38.5 90v268q-162 30 -293.5 128t-207 246.5t-75.5 317.5q0 191 94.5 353t256.5 256.5t353 94.5z" />
<glyph unicode="&#x1f4bb;" horiz-adv-x="2048" d="M1920 1920q53 0 90.5 -37.5t37.5 -90.5v-1280q0 -53 -37.5 -90.5t-90.5 -37.5h-563l104 -157q11 -16 11 -35q0 -26 -19 -45t-45 -19h-768q-26 0 -45 19t-19 45q0 19 11 35l104 157h-563q-53 0 -90.5 37.5t-37.5 90.5v1280q0 53 37.5 90.5t90.5 37.5h1792zM1792 640v1024
h-1536v-1024h1536z" />
<glyph unicode="&#x1f4bc;" horiz-adv-x="2048" d="M512 256v1280h128v128q0 53 37.5 90.5t90.5 37.5h512q53 0 90.5 -37.5t37.5 -90.5v-128h128v-1280h-1024zM768 1664v-128h512v128h-512zM384 1536v-1280h-256q-53 0 -90.5 37.5t-37.5 90.5v1024q0 53 37.5 90.5t90.5 37.5h256zM1920 1536q53 0 90.5 -37.5t37.5 -90.5
v-1024q0 -53 -37.5 -90.5t-90.5 -37.5h-256v1280h256z" />
<glyph unicode="&#x1f4c1;" horiz-adv-x="2048" d="M1920 1536q53 0 90.5 -37.5t37.5 -90.5v-1024q0 -53 -37.5 -90.5t-90.5 -37.5h-1792q-53 0 -90.5 37.5t-37.5 90.5v1280q0 53 37.5 90.5t90.5 37.5h640q36 0 67 -19t47 -52l93 -185h945z" />
<glyph unicode="&#x1f4c4;" horiz-adv-x="2048" d="M1280 1536v512q53 0 91 -38l384 -384q37 -37 37 -90h-512zM1664 0h-1280q-53 0 -90.5 37.5t-37.5 90.5v1792q0 53 37.5 90.5t90.5 37.5h768v-640h640v-1280q0 -53 -37.5 -90.5t-90.5 -37.5z" />
<glyph unicode="&#x1f4c5;" horiz-adv-x="2048" d="M1792 1792q53 0 90.5 -37.5t37.5 -90.5v-256h-1792v256q0 53 37.5 90.5t90.5 37.5h128v128q0 53 37.5 90.5t90.5 37.5t90.5 -37.5t37.5 -90.5v-128h768v128q0 53 37.5 90.5t90.5 37.5t90.5 -37.5t37.5 -90.5v-128h128zM128 128v1152h1792v-1152q0 -53 -37.5 -90.5
t-90.5 -37.5h-1536q-53 0 -90.5 37.5t-37.5 90.5z" />
<glyph unicode="&#x1f4c7;" horiz-adv-x="2048" d="M1664 2048q53 0 90.5 -37.5t37.5 -90.5v-1792q0 -53 -37.5 -90.5t-90.5 -37.5h-1280q-53 0 -90.5 37.5t-37.5 90.5v128h-128q-53 0 -90.5 37.5t-37.5 90.5t37.5 90.5t90.5 37.5h128v384h-128q-53 0 -90.5 37.5t-37.5 90.5t37.5 90.5t90.5 37.5h128v384h-128
q-53 0 -90.5 37.5t-37.5 90.5t37.5 90.5t90.5 37.5h128v128q0 53 37.5 90.5t90.5 37.5h1280zM768 1280v-128q0 -106 75 -181t181 -75t181 75t75 181v128q0 106 -75 181t-181 75t-181 -75t-75 -181zM1536 576v64q0 39 -35 57q-23 13 -83 39t-181.5 61t-212.5 35t-212.5 -35
t-181.5 -61t-83 -39q-35 -18 -35 -57v-64q0 -26 19 -45t45 -19h896q26 0 45 19t19 45z" />
<glyph unicode="&#x1f4ca;" horiz-adv-x="2048" d="M1600 2048h384q26 0 45 -19t19 -45v-1920q0 -26 -19 -45t-45 -19h-384q-26 0 -45 19t-19 45v1920q0 26 19 45t45 19zM832 1536h384q26 0 45 -19t19 -45v-1408q0 -26 -19 -45t-45 -19h-384q-26 0 -45 19t-19 45v1408q0 26 19 45t45 19zM64 1024h384q26 0 45 -19t19 -45
v-896q0 -26 -19 -45t-45 -19h-384q-26 0 -45 19t-19 45v896q0 26 19 45t45 19z" />
<glyph unicode="&#x1f4cb;" horiz-adv-x="2048" d="M1424 1790q21 -5 34.5 -22.5t13.5 -39.5v-128q0 -26 -19 -45t-45 -19h-768q-26 0 -45 19t-19 45v128q0 22 13.5 39.5t34.5 22.5l209 52q-1 5 -1 14q0 80 56 136t136 56t136 -56t56 -136q0 -9 -1 -14zM1024 1728q53 0 90.5 37.5t37.5 90.5t-37.5 90.5t-90.5 37.5
t-90.5 -37.5t-37.5 -90.5t37.5 -90.5t90.5 -37.5zM1728 1664q26 0 45 -19t19 -45v-1536q0 -26 -19 -45t-45 -19h-1408q-26 0 -45 19t-19 45v1536q0 26 19 45t45 19h128v-64q0 -80 56 -136t136 -56h768q80 0 136 56t56 136v64h128z" />
<glyph unicode="&#x1f4cd;" horiz-adv-x="2048" d="M2029 1389q19 -18 19 -45t-19 -45q-59 -59 -142 -69.5t-153 29.5l-372 -372q56 -115 56 -272q0 -107 -41.5 -201t-96.5 -94q-27 0 -45 19l-353 353l-754 -628l-128 -64l64 128l628 754l-353 353q-19 18 -19 45q0 37 45.5 69.5t113 50.5t136.5 18q157 0 272 -56l372 372
q-40 70 -29.5 153t69.5 142q18 19 45 19t45 -19z" />
<glyph unicode="&#x1f4d3;" horiz-adv-x="2048" d="M1792 1792q53 0 90.5 -37.5t37.5 -90.5v-1536q0 -53 -37.5 -90.5t-90.5 -37.5h-1536q-53 0 -90.5 37.5t-37.5 90.5v1536q0 53 37.5 90.5t90.5 37.5h128v128q0 53 37.5 90.5t90.5 37.5t90.5 -37.5t37.5 -90.5v-128h256v128q0 53 37.5 90.5t90.5 37.5t90.5 -37.5
t37.5 -90.5v-128h256v128q0 53 37.5 90.5t90.5 37.5t90.5 -37.5t37.5 -90.5v-128h128zM1664 1152v128h-1280v-128h1280zM1664 768v128h-1280v-128h1280zM1664 384v128h-1280v-128h1280z" />
<glyph unicode="&#x1f4d5;" horiz-adv-x="2048" d="M939 1583q21 -18 21 -47v-1280q-28 28 -47.5 45.5t-65.5 48.5t-92.5 49.5t-119.5 33.5t-155 15q-216 0 -396 -61q-9 -3 -20 -3q-26 0 -45 19t-19 45v1152q0 29 21 47q67 62 198.5 103.5t260.5 41.5q68 0 132.5 -15t110 -35.5t91.5 -52.5t70.5 -54t54.5 -52zM1088 1536
q0 29 21 47q83 77 131 110q147 99 328 99q129 0 260.5 -41.5t198.5 -103.5q21 -18 21 -47v-1152q0 -25 -19.5 -44.5t-44.5 -19.5q-11 0 -20 3q-180 61 -396 61q-82 0 -155 -15t-119.5 -33.5t-92.5 -49.5t-65.5 -48.5t-47.5 -45.5v1280z" />
<glyph unicode="&#x1f4dd;" horiz-adv-x="2048" d="M2010 1883q38 -37 38 -91t-38 -91l-1024 -1024q-37 -37 -90 -37h-256v256q0 52 37 91l1024 1024q39 37 91 37q53 0 90 -37zM1792 128q0 -53 -37.5 -90.5t-90.5 -37.5h-1536q-53 0 -90.5 37.5t-37.5 90.5v1536q0 53 37.5 90.5t90.5 37.5h768v-256h-640v-1280h1280v640h256
v-768z" />
<glyph unicode="&#x1f4de;" horiz-adv-x="2048" d="M0 1664q0 46 42.5 113.5t101.5 126.5t126.5 101.5t113.5 42.5q59 -29 142 -133t143 -203t99 -176q0 -32 -96 -160t-96 -160q31 -93 148.5 -233.5t258 -258t233.5 -148.5q32 0 160 96t160 96q96 -48 256 -168t256 -216q0 -46 -42.5 -113.5t-101.5 -126.5t-126.5 -101.5
t-113.5 -42.5q-156 31 -336 123.5t-351.5 222.5t-336 294.5t-294.5 336t-222.5 351.5t-123.5 336z" />
<glyph unicode="&#x1f4e2;" horiz-adv-x="2048" d="M2013 1273q35 -18 35 -57v-256q0 -39 -35 -57l-93 -47v-536q0 -25 -19 -44.5t-45 -19.5t-45 19q-82 81 -174.5 148.5t-183.5 115.5t-188 86.5t-188.5 61.5t-185.5 41t-178.5 24.5t-168 12t-153 4t-134.5 -0.5h-65q-74 0 -133 59t-59 133v256q0 74 59 133t133 59
q286 0 395 7q605 35 1005 306q117 80 219 180q19 19 45 19t45 -19.5t19 -44.5v-536zM657 627l110 -550q5 -28 -14 -52.5t-49 -24.5h-384q-25 0 -43 16.5t-21 41.5l-58 582q285 0 459 -13z" />
<glyph unicode="&#x1f4e5;" horiz-adv-x="2048" d="M2041 936q7 -18 7 -40v-512q0 -53 -37.5 -90.5t-90.5 -37.5h-1792q-53 0 -90.5 37.5t-37.5 90.5v512q0 22 7 40l256 768q13 40 46.5 64t74.5 24h1280q41 0 74.5 -24t46.5 -64zM1280 896h505l-213 640h-1096l-213 -640h505q0 -106 75 -181t181 -75t181 75t75 181z" />
<glyph unicode="&#x1f4e6;" horiz-adv-x="2048" d="M1863 1514q57 -36 57 -106v-768q0 -69 -57 -107l-768 -512q-33 -21 -71 -21q-39 0 -71 21l-768 512q-57 38 -57 107v768q0 70 57 106l768 512q31 22 71 22q39 0 71 -22zM1024 1766l-537 -358l537 -358l537 358z" />
<glyph unicode="&#x1f4f1;" horiz-adv-x="2048" d="M1600 1792q26 0 45 -19t19 -45v-1088q0 -130 -51 -248.5t-136.5 -204t-204 -136.5t-248.5 -51t-248.5 51t-204 136.5t-136.5 204t-51 248.5v1344q0 26 19 45t45 19h128q26 0 45 -19t19 -45v-192h960zM1408 1024v512h-768v-512h768z" />
<glyph unicode="&#x1f4f7;" horiz-adv-x="2048" d="M1920 1664q53 0 90.5 -37.5t37.5 -90.5v-1280q0 -53 -37.5 -90.5t-90.5 -37.5h-1792q-53 0 -90.5 37.5t-37.5 90.5v1280q0 53 37.5 90.5t90.5 37.5h305l93 185q16 33 47 52t67 19h768q36 0 67 -19t47 -52l93 -185h305zM512 896q0 -212 150 -362t362 -150t362 150t150 362
t-150 362t-362 150t-362 -150t-150 -362z" />
<glyph unicode="&#x1f4f9;" horiz-adv-x="2048" d="M1920 1536q54 0 91 -36.5t37 -91.5v-768q0 -55 -37 -91.5t-91 -36.5q-32 0 -57 14l-327 163v-305q0 -53 -37.5 -90.5t-90.5 -37.5h-1280q-53 0 -90.5 37.5t-37.5 90.5v1280q0 53 37.5 90.5t90.5 37.5h1280q53 0 90.5 -37.5t37.5 -90.5v-305l327 163q25 14 57 14z" />
<glyph unicode="&#x1f4fa;" horiz-adv-x="2048" d="M1920 1664q52 0 90 -38t38 -90v-1152q0 -52 -38 -90t-90 -38h-1792q-52 0 -90 38t-38 90v1152q0 52 38 90t90 38h741l-274 275q-19 18 -19 45q0 26 19 45t45 19q27 0 45 -19l339 -338l211 210q18 19 45 19q26 0 45 -19t19 -45q0 -27 -19 -45l-146 -147h741zM1536 448
v1024q0 26 -19 45t-45 19h-1280q-26 0 -45 -19t-19 -45v-1024q0 -26 19 -45t45 -19h1280q26 0 45 19t19 45zM1792 1216q53 0 90.5 37.5t37.5 90.5t-37.5 90.5t-90.5 37.5t-90.5 -37.5t-37.5 -90.5t37.5 -90.5t90.5 -37.5zM1792 832q53 0 90.5 37.5t37.5 90.5t-37.5 90.5
t-90.5 37.5t-90.5 -37.5t-37.5 -90.5t37.5 -90.5t90.5 -37.5z" />
<glyph unicode="&#x1f500;" horiz-adv-x="2048" d="M538 1139q-64 87 -130.5 142.5t-170 91t-237.5 35.5v256q124 0 230 -22.5t189 -65.5t146.5 -94.5t121.5 -118.5q-20 -27 -42.5 -59.5t-36 -53t-38 -60t-32.5 -51.5zM1536 1408q-62 0 -117 -8t-99.5 -19t-87.5 -34.5t-74 -43t-66.5 -56t-57.5 -61.5t-54.5 -72t-50.5 -75
t-52 -83q-115 -183 -187 -268q-181 -212 -432 -275q-118 -29 -258 -29v256q62 0 117 8t99.5 19t87.5 34.5t74 43t66.5 56t57.5 61.5t54.5 72t50.5 75t52 83q115 183 187 268q181 212 432 275q118 29 258 29v192q0 25 19.5 44.5t44.5 19.5q23 0 41 -15l384 -320
q23 -18 23 -49t-23 -49l-384 -320q-18 -15 -41 -15q-25 0 -44.5 19.5t-19.5 44.5v192zM1641 881l384 -320q23 -18 23 -49t-23 -49l-384 -320q-18 -15 -41 -15q-25 0 -44.5 19.5t-19.5 44.5v192q-124 0 -230 22.5t-189 65.5t-146.5 94.5t-121.5 118.5q20 27 42.5 59.5t36 53
t38 60t32.5 51.5q64 -87 130.5 -142.5t170 -91t237.5 -35.5v192q0 25 19.5 44.5t44.5 19.5q23 0 41 -15z" />
<glyph unicode="&#x1f501;" horiz-adv-x="2048" d="M640 1408q-155 0 -269.5 -112t-114.5 -272q0 -158 112 -272l-181 -181q-90 91 -138.5 208t-48.5 245q0 177 88.5 325t235.5 231.5t316 83.5h384v192q0 25 19.5 44.5t44.5 19.5q23 0 41 -15l384 -320q23 -18 23 -49t-23 -49l-384 -320q-18 -15 -41 -15q-25 0 -44.5 19.5
t-19.5 44.5v192h-384zM1861 1477q90 -91 138.5 -208t48.5 -245q0 -177 -88.5 -325t-235.5 -231.5t-316 -83.5h-384v-192q0 -25 -19.5 -44.5t-44.5 -19.5q-23 0 -41 15l-384 320q-23 18 -23 49t23 49l384 320q18 15 41 15q25 0 44.5 -19.5t19.5 -44.5v-192h384
q156 0 270 112.5t114 271.5t-113 272z" />
<glyph unicode="&#x1f508;" horiz-adv-x="2048" d="M1664 2048q54 0 91 -36.5t37 -91.5v-1792q0 -55 -37 -91.5t-91 -36.5q-44 0 -80 28l-605 484h-595q-53 0 -90.5 37.5t-37.5 90.5v768q0 53 37.5 90.5t90.5 37.5h595l605 484q36 28 80 28z" />
<glyph unicode="&#x1f50b;" horiz-adv-x="2048" d="M1920 1408q53 0 90.5 -37.5t37.5 -90.5v-512q0 -53 -37.5 -90.5t-90.5 -37.5h-128v-256q0 -53 -37.5 -90.5t-90.5 -37.5h-1536q-53 0 -90.5 37.5t-37.5 90.5v1280q0 53 37.5 90.5t90.5 37.5h1536q53 0 90.5 -37.5t37.5 -90.5v-256h128z" />
<glyph unicode="&#x1f50e;" horiz-adv-x="2048" d="M2010 309q38 -37 38 -90t-38 -91l-90 -91q-37 -37 -91 -37q-53 0 -90 37l-581 581q-180 -106 -390 -106q-209 0 -385.5 103t-279.5 279.5t-103 385.5t103 385.5t279.5 279.5t385.5 103t385.5 -103t279.5 -279.5t103 -385.5q0 -210 -106 -390zM256 1280q0 -212 150 -362
t362 -150t362 150t150 362t-150 362t-362 150t-362 -150t-150 -362z" />
<glyph unicode="&#x1f511;" horiz-adv-x="2048" d="M1792 1600q0 80 -56 136t-136 56t-136 -56t-56 -136t56 -136t136 -56t136 56t56 136zM1408 2048q130 0 248.5 -51t204 -136.5t136.5 -204t51 -248.5t-51 -248.5t-136.5 -204t-204 -136.5t-248.5 -51q-115 0 -218 38l-166 -166h-192v-192h-256v-256h-192v-192h-384v384
l806 806q-38 103 -38 218q0 130 51 248.5t136.5 204t204 136.5t248.5 51z" />
<glyph unicode="&#x1f512;" horiz-adv-x="2048" d="M1664 1152q53 0 90.5 -37.5t37.5 -90.5v-896q0 -53 -37.5 -90.5t-90.5 -37.5h-1280q-53 0 -90.5 37.5t-37.5 90.5v896q0 53 37.5 90.5t90.5 37.5h128v384q0 104 40.5 198.5t109.5 163.5t163.5 109.5t198.5 40.5t198.5 -40.5t163.5 -109.5t109.5 -163.5t40.5 -198.5v-384
h128zM768 1536v-384h512v384q0 106 -75 181t-181 75t-181 -75t-75 -181z" />
<glyph unicode="&#x1f513;" horiz-adv-x="2048" d="M1536 2048q104 0 198.5 -40.5t163.5 -109.5t109.5 -163.5t40.5 -198.5v-384h-256v384q0 106 -75 181t-181 75t-181 -75t-75 -181v-384h128q53 0 90.5 -37.5t37.5 -90.5v-896q0 -53 -37.5 -90.5t-90.5 -37.5h-1280q-53 0 -90.5 37.5t-37.5 90.5v896q0 53 37.5 90.5
t90.5 37.5h896v384q0 104 40.5 198.5t109.5 163.5t163.5 109.5t198.5 40.5z" />
<glyph unicode="&#x1f514;" horiz-adv-x="2048" d="M1984 384h-1920q-26 0 -45 19.5t-19 44.5q0 33 22 48q91 61 161 147t110 157t75.5 192t47.5 180.5t36 195.5q11 62 17 93q15 79 28.5 135t36.5 121.5t50 110.5t68.5 89.5t93 71t122 43t156.5 16.5t157 -16.5t122 -43t92.5 -71t68.5 -90t50 -111.5t36.5 -122.5
t28.5 -135.5q5 -29 18 -100t19.5 -106t21 -102.5t26.5 -107t32.5 -101t41 -102t51 -93.5t64.5 -92.5t78 -81t95 -76.5q22 -15 22 -48q0 -25 -19 -44.5t-45 -19.5zM704 256h640q-36 -113 -123.5 -184.5t-196.5 -71.5t-196.5 71.5t-123.5 184.5z" />
<glyph unicode="&#x1f516;" horiz-adv-x="2048" d="M1664 2048q53 0 90.5 -37.5t37.5 -90.5v-1792q0 -55 -36.5 -91.5t-91.5 -36.5q-44 0 -80 28l-560 448l-560 -448q-36 -28 -80 -28q-55 0 -91.5 36.5t-36.5 91.5v1792q0 53 37.5 90.5t90.5 37.5h1280z" />
<glyph unicode="&#x1f517;" horiz-adv-x="2048" d="M2011 1499q37 -39 37 -91t-37 -91l-448 -448q-37 -37 -91 -37t-91 37l-128 128l411 411l-256 256l-411 -411l-128 128q-37 37 -37 91t37 91l448 448q39 37 91 37t91 -37zM1051 795l128 -128q37 -39 37 -91t-37 -91l-448 -448q-37 -37 -91 -37t-91 37l-512 512
q-37 37 -37 91t37 91l448 448q39 37 91 37t91 -37l128 -128l-411 -411l256 -256z" />
<glyph unicode="&#x1f527;" horiz-adv-x="2048" d="M1709 1299l323 322q16 -71 16 -149q0 -140 -65.5 -267t-180.5 -206.5t-249 -79.5q-139 0 -279 84q-645 -736 -837 -928q-75 -75 -181 -75t-181 75t-75 181t75 181q85 85 317 294.5t422 376.5l189 166q-84 140 -84 279q0 134 79.5 249t206.5 180.5t267 65.5q78 0 149 -16
l-322 -323q-19 -18 -19 -45q0 -33 49.5 -103.5t105.5 -125.5q55 -56 125.5 -105.5t103.5 -49.5q27 0 45 19z" />
<glyph unicode="&#x1f528;" horiz-adv-x="2048" d="M1408 1920q41 0 87 -14t100.5 -54.5t97 -102t71 -167t28.5 -238.5q0 -25 -21.5 -44.5t-42.5 -19.5q-20 0 -36.5 11.5t-23.5 30.5q-27 71 -63.5 116.5t-83 65.5t-85.5 26t-95 6h-611l-109 -109q-19 -19 -45 -19h-256q-26 0 -45 19t-19 45v512q0 26 19 45t45 19h256
q26 0 45 -19l110 -109h677zM1216 1408v-508q64 -576 64 -836q0 -26 -19 -45t-45 -19h-384q-26 0 -45 19t-19 45q0 260 64 836v508h384z" />
<glyph unicode="&#x1f529;" horiz-adv-x="2048" d="M1863 1514q57 -36 57 -106v-768q0 -69 -57 -107l-768 -512q-33 -21 -71 -21q-39 0 -71 21l-768 512q-57 38 -57 107v768q0 70 57 106l768 512q32 22 71 22t71 -22zM512 1024q0 -212 150 -362t362 -150t362 150t150 362t-150 362t-362 150t-362 -150t-150 -362z" />
<glyph unicode="&#x1f680;" horiz-adv-x="2048" d="M1455 657q91 -73 150 -161t59 -176q0 -100 -49.5 -187t-142.5 -133q0 52 -13 102t-49.5 102t-93.5 81q-17 -48 -39 -113q-7 -20 -23.5 -32t-37.5 -12h-384q-21 0 -37.5 12t-23.5 32q-22 65 -39 113q-57 -29 -93.5 -81t-49.5 -102t-13 -102q-93 46 -142.5 133t-49.5 187
q0 88 59 176t150 161q-81 250 -81 495q0 140 41.5 280t111 253t152 203t171.5 149q17 11 36 11t35 -11q89 -59 172 -149t152.5 -203t111 -253t41.5 -280q0 -245 -81 -495zM768 1344q0 -106 75 -181t181 -75t181 75t75 181t-75 181t-181 75t-181 -75t-75 -181z" />
<glyph unicode="&#x1f698;" horiz-adv-x="2048" d="M1024 960q442 0 706 101q-67 327 -194 475q-110 128 -512 128t-512 -128q-127 -148 -194 -475q264 -101 706 -101zM384 576q53 0 90.5 37.5t37.5 90.5t-37.5 90.5t-90.5 37.5t-90.5 -37.5t-37.5 -90.5t37.5 -90.5t90.5 -37.5zM1664 576q53 0 90.5 37.5t37.5 90.5
t-37.5 90.5t-90.5 37.5t-90.5 -37.5t-37.5 -90.5t37.5 -90.5t90.5 -37.5zM1856 1216q57 0 96.5 -14t59.5 -39t28 -50.5t8 -56.5q0 -24 -16 -42.5t-40 -21.5l-116 -14q44 -253 44 -466v-192q0 -26 -19 -45t-45 -19h-128q-26 0 -45 19t-19 45v64h-1280v-64q0 -26 -19 -45
t-45 -19h-128q-26 0 -45 19t-19 45v192q0 218 43 466l-115 14q-24 3 -40 21.5t-16 42.5q0 31 8 56.5t28 50.5t59.5 39t96.5 14h29q12 50 29.5 103.5t63 144t101.5 155.5q76 89 224.5 131t384.5 42t384.5 -42t224.5 -131q56 -65 101.5 -155.5t63 -144t29.5 -103.5h29z" />
<glyph unicode="&#x1f6ab;" horiz-adv-x="2048" d="M1024 2048q209 0 398.5 -81t326.5 -218t218 -326.5t81 -398.5t-81 -398.5t-218 -326.5t-326.5 -218t-398.5 -81t-398.5 81t-326.5 218t-218 326.5t-81 398.5t81 398.5t218 326.5t326.5 218t398.5 81zM1664 1024q0 130 -51 248.5t-136.5 204t-204 136.5t-248.5 51
q-158 0 -296 -73l863 -863q73 138 73 296zM384 1024q0 -130 51 -248.5t136.5 -204t204 -136.5t248.5 -51q158 0 296 73l-863 863q-73 -138 -73 -296z" />
<glyph unicode="&#x1f6b2;" horiz-adv-x="2048" d="M686 1280l-4 -12l440 -388l133 400h-569zM1359 1186l-118 -354h44q24 143 139 236zM1664 1152q159 0 271.5 -112.5t112.5 -271.5t-112.5 -271.5t-271.5 -112.5q-141 0 -248.5 91.5t-130.5 228.5h-133q-24 0 -42 16l-505 445l-25 -67q86 -51 137 -139t51 -191
q0 -159 -112.5 -271.5t-271.5 -112.5t-271.5 112.5t-112.5 271.5t112.5 271.5t271.5 112.5q38 0 76 -8l184 479q7 19 23.5 30t36.5 11h192q26 0 45 -19t19 -45t-19 -45t-45 -19h-148l-49 -128h599l21 64h-39q-26 0 -45 19t-19 45t19 45t45 19h256q26 0 45 -19t19 -45
t-19 -45t-45 -19h-82l-40 -122l122 -220q63 22 128 22zM1664 512q106 0 181 75t75 181t-75 181t-181 75q-34 0 -64 -9l120 -216q8 -16 8 -31q0 -24 -18.5 -44t-45.5 -20h-248q22 -84 91 -138t157 -54zM640 768q0 63 -29 118t-78 90l-89 -231q-7 -19 -23.5 -30t-36.5 -11
q-26 0 -45 18.5t-19 45.5q0 12 4 23l89 231q-18 2 -29 2q-106 0 -181 -75t-75 -181t75 -181t181 -75t181 75t75 181zM1555 832l-67 121q-52 -49 -72 -121h139z" />
<glyph   />
<glyph  horiz-adv-x="682"  />
<glyph unicode=" " horiz-adv-x="512"  />
<glyph unicode="A" horiz-adv-x="1375" d="M1344 0h-218l-145 429h-595l-154 -429h-204l555 1479h230zM905 607l-218 654l-237 -654h455z" />
<glyph unicode="B" horiz-adv-x="1375" d="M1287 443q0 -132 -64.5 -234.5t-168.5 -155.5t-227 -53h-680v1479h668q165 0 280 -99t119 -275q0 -100 -50 -187.5t-142 -121.5q117 -41 191 -133.5t74 -219.5zM1017 1062q0 122 -62.5 181t-219.5 63h-384v-455h389q139 0 206 60.5t71 150.5zM1088 417q0 66 -14 111.5
t-50.5 82.5t-105 56t-171.5 20h-396v-519h462q69 0 123 23t85.5 60.5t48 79.5t18.5 86z" />
<glyph unicode="C" horiz-adv-x="1489" d="M1403 543q-11 -96 -44.5 -183t-89 -160t-128 -126.5t-167 -83.5t-201.5 -30q-150 0 -270.5 49t-196.5 127.5t-127.5 184t-72.5 212t-21 218.5q0 116 27 225t82.5 206t135 170.5t191 118t242.5 48.5q57 0 115.5 -9t125.5 -28.5t127.5 -57t113 -89t90.5 -129.5t52 -173
h-195q-29 147 -137.5 225.5t-262.5 78.5q-105 0 -189 -31t-140.5 -84t-94 -128.5t-55 -160t-19.5 -182.5q2 -91 19 -177t53 -166t87.5 -139.5t128 -95.5t169.5 -36q193 0 310 107t146 299h196z" />
<glyph unicode="D" horiz-adv-x="1489" d="M1384 792q0 -125 -24.5 -240.5t-74 -215t-119 -173.5t-166 -117.5t-208.5 -45.5h-628v1479h621q77 0 155.5 -22t157.5 -74.5t140 -129t101.5 -196t44.5 -265.5zM1178 775q0 85 -13.5 160.5t-45.5 144t-79.5 118t-120 79t-163.5 29.5h-389v-1138h413q119 0 210.5 81
t139.5 218t48 308z" />
<glyph unicode="E" horiz-adv-x="1375" d="M1266 0h-1093v1479h1081v-180h-879v-450h810v-178h-810v-493h891v-178z" />
<glyph unicode="F" horiz-adv-x="1256" d="M1197 1299h-822v-450h725v-178h-725v-671h-202v1479h1024v-180z" />
<glyph unicode="G" horiz-adv-x="1598" d="M1446 0h-128l-47 197q-70 -98 -200 -161.5t-286 -68.5q-146 0 -262 39t-195 108.5t-131.5 168.5t-76 215t-23.5 253q0 112 26.5 219.5t83.5 205t137.5 171t197 118t254.5 45.5q113 0 217.5 -31t190.5 -90t144.5 -152t73.5 -208h-192q-27 109 -95 180t-154 99.5t-194 28.5
q-212 0 -349 -161.5t-137 -435.5q0 -295 134 -454.5t352 -159.5q173 0 310 106q91 74 125.5 158.5t38.5 225.5h-460v171h645v-787z" />
<glyph unicode="H" horiz-adv-x="1489" d="M1332 0h-201v687h-773v-687h-202v1479h202v-614h773v614h201v-1479z" />
<glyph unicode="I" horiz-adv-x="569" d="M386 0h-201v1479h201v-1479z" />
<glyph unicode="J" horiz-adv-x="1029" d="M882 398q0 -117 -33.5 -203t-93.5 -136t-134.5 -73.5t-165.5 -25.5q-93 0 -167 23t-121 60t-78 86.5t-43.5 99t-12.5 100.5v145h187v-104q0 -123 54.5 -181.5t168.5 -58.5q122 0 177.5 62t57.5 194v1093h204v-1081z" />
<glyph unicode="K" horiz-adv-x="1375" d="M1363 0h-258l-520 740l-232 -221v-519h-201v1479h201v-720l718 720h275l-616 -597z" />
<glyph unicode="L" horiz-adv-x="1147" d="M1105 0h-953v1479h201v-1301h752v-178z" />
<glyph unicode="M" horiz-adv-x="1711" d="M1567 0h-197v1242l-412 -1242h-199l-422 1240v-1240h-190v1479h287l426 -1254l422 1254h285v-1479z" />
<glyph unicode="N" horiz-adv-x="1489" d="M1332 0h-227l-754 1192v-1192h-195v1479h237l745 -1197v1197h194v-1479z" />
<glyph unicode="O" horiz-adv-x="1598" d="M1519 740q0 -56 -5.5 -112t-23.5 -134.5t-48 -146.5t-85 -138.5t-127.5 -121t-182.5 -83.5t-243 -35q-145 0 -265.5 43t-203 116.5t-140 172.5t-84 209.5t-26.5 229.5q0 124 27 236t85 209t141.5 168.5t202.5 113t263 43.5q113 0 211 -25.5t169.5 -69.5t129.5 -105
t95.5 -129.5t63 -145t36 -149.5t10.5 -146zM1318 740q0 264 -136.5 426t-377.5 166q-230 0 -372.5 -160.5t-142.5 -431.5q0 -267 138 -428t377 -165q241 0 377.5 162.5t136.5 430.5z" />
<glyph unicode="P" horiz-adv-x="1375" d="M1278 1062q0 -66 -14 -126t-47 -117t-82.5 -99t-125.5 -68.5t-170 -28.5h-464v-623h-202v1479h666q188 0 311 -109t128 -308zM1071 1062q0 244 -291 244h-405v-514h398q295 0 298 270z" />
<glyph unicode="Q" horiz-adv-x="1598" d="M1519 740q0 -358 -215 -569l201 -157l-97 -121l-228 178q-155 -102 -379 -102q-145 0 -265.5 43t-203.5 116.5t-140.5 172.5t-84 209.5t-26.5 229.5q0 124 27 236t85 209t141.5 168.5t203 113t263.5 43.5q113 0 210.5 -25.5t169.5 -69.5t130 -105t96.5 -129.5t64 -145
t36.5 -149.5t11 -146zM1313 740q0 264 -135.5 426t-376.5 166q-231 0 -372.5 -160t-141.5 -432q0 -268 137 -428.5t377 -164.5q119 0 216 47l-154 117l102 125l189 -144q159 165 159 448z" />
<glyph unicode="R" horiz-adv-x="1489" d="M1384 0h-225q-26 57 -37.5 150t-15 186.5t-6.5 113.5q-26 178 -242 181h-502v-631h-202v1479h709q89 0 169 -24t146 -71.5t106 -128t43 -184.5q0 -230 -215 -343q79 -25 126 -87t56 -153q6 -56 12.5 -157t14.5 -165.5t25 -106.5q18 -42 38 -59zM1124 1052
q0 112 -58.5 181t-186.5 73h-523v-502h507q112 0 186.5 69t74.5 179z" />
<glyph unicode="S" horiz-adv-x="1375" d="M1273 415q0 -145 -76.5 -247.5t-204.5 -150.5t-297 -48q-284 0 -438 127t-155 392h185q0 -78 24 -139t62.5 -98.5t93.5 -62.5t109.5 -35.5t118.5 -12.5q59 0 112 7.5t104 25.5t88 45.5t59.5 71t22.5 99.5q0 39 -8.5 69.5t-24.5 54t-44.5 42.5t-64 34t-88 29.5t-110.5 28
t-138 31.5q-36 8 -55 12q-67 15 -119.5 32.5t-106.5 47.5t-90 67.5t-59.5 94t-25.5 125.5q0 92 30 171.5t90 143.5t161 101t231 37q111 0 201.5 -21t148 -51t101.5 -77.5t65.5 -84.5t36 -89.5t17 -75.5t5.5 -58q1 -9 1 -12h-185q0 63 -21.5 114t-57 84.5t-85 56.5
t-100.5 33.5t-108 12.5q-51 0 -96 -6.5t-90.5 -24.5t-77.5 -46.5t-52.5 -75.5t-20.5 -108q0 -141 178 -180l422 -97q332 -74 332 -389z" />
<glyph unicode="T" horiz-adv-x="1256" d="M1230 1299h-502v-1299h-202v1299h-498v180h1202v-180z" />
<glyph unicode="U" horiz-adv-x="1489" d="M1327 486q0 -105 -35.5 -195.5t-106 -162t-187 -113.5t-268.5 -43q-282 0 -423.5 130.5t-145.5 373.5v1003h202v-965q0 -171 95 -269t272 -98q180 0 285.5 94.5t110.5 268.5v969h201v-993z" />
<glyph unicode="V" horiz-adv-x="1375" d="M1330 1479l-538 -1479h-214l-538 1479h233l419 -1263l436 1263h202z" />
<glyph unicode="W" horiz-adv-x="1941" d="M1911 1479l-392 -1479h-208l-337 1225l-346 -1225h-211l-384 1479h216l272 -1206l339 1206h216l339 -1206l273 1206h223z" />
<glyph unicode="X" horiz-adv-x="1375" d="M1332 0h-249l-396 607l-410 -607h-239l529 759l-498 720h251l375 -566l376 566h240l-496 -723z" />
<glyph unicode="Y" horiz-adv-x="1375" d="M1342 1479l-557 -889v-590h-200v590l-554 889h242l422 -711l424 711h223z" />
<glyph unicode="Z" horiz-adv-x="1256" d="M1209 0h-1162v164l906 1137h-839v178h1095v-173l-910 -1126h910v-180z" />
<glyph unicode="a" horiz-adv-x="1147" d="M1093 2v-2q-57 -21 -119 -21q-168 0 -173 161q-154 -166 -389 -173q-151 0 -246 89t-95 214q0 60 15.5 109t39.5 82.5t64 60.5t76.5 42.5t91 29.5t93.5 20.5t98 16.5t91 16q82 14 117 50.5t35 79.5q0 83 -63.5 133t-185.5 50q-110 0 -176.5 -53t-70.5 -160h-168
q0 147 111.5 250.5t327.5 107.5q106 0 195.5 -32.5t150.5 -106.5t61 -179v-576q0 -60 22.5 -82t96.5 4v-131zM787 358v194q-29 -19 -84 -34t-111.5 -23.5t-117.5 -25t-108 -37.5t-77.5 -62t-30.5 -97q0 -78 52 -118.5t140 -40.5q51 0 109 17t109.5 47t85 77.5t33.5 102.5z
" />
<glyph unicode="b" horiz-adv-x="1147" d="M1088 569q3 -85 -10.5 -166.5t-48 -161.5t-88 -140t-138.5 -97t-191 -37q-104 0 -187.5 42.5t-130.5 123.5l-14 -133h-164v1479h185v-538q59 78 138.5 119t191.5 45q197 0 323.5 -149.5t133.5 -386.5zM898 538q0 198 -79 301.5t-222 103.5q-82 0 -143.5 -38.5t-95 -100.5
t-49 -128.5t-15.5 -135.5q0 -404 313 -414q140 0 215.5 112.5t75.5 299.5z" />
<glyph unicode="c" horiz-adv-x="1029" d="M991 379q-12 -111 -57 -194t-111 -129t-138 -67.5t-149 -21.5q-203 0 -340 158.5t-137 412.5q0 140 39.5 251t107 179t153.5 103.5t184 35.5q62 0 119.5 -11.5t114.5 -40t100.5 -71.5t74.5 -112t39 -156h-173q-10 106 -83.5 166.5t-184.5 60.5q-63 0 -114.5 -21t-94 -66
t-66.5 -126t-24 -192q0 -170 85 -287.5t214 -117.5q109 0 176.5 62t88.5 184h176z" />
<glyph unicode="d" horiz-adv-x="1147" d="M64 569q7 237 133.5 386.5t323.5 149.5q113 -4 191.5 -45t138.5 -119v538h185v-1479h-164v152q-48 -82 -139.5 -133.5t-192.5 -51.5q-106 0 -191 37t-138.5 97t-88 140t-48 161.5t-10.5 166.5zM254 538q0 -187 75.5 -299.5t215.5 -112.5q313 10 313 414q0 69 -15.5 135.5
t-48.5 128.5t-94.5 100.5t-144.5 38.5q-143 0 -222 -103.5t-79 -301.5z" />
<glyph unicode="e" horiz-adv-x="1147" d="M1074 476h-804q0 -150 91.5 -246.5t226.5 -96.5q68 0 125 22t91 54.5t52.5 66.5t18.5 61h185q-30 -172 -161 -270t-321 -98q-114 0 -209 42.5t-157 116t-97 171t-37 208.5q0 270 139.5 436t365.5 166q160 0 273.5 -81.5t168 -223.5t49.5 -328zM884 623q0 144 -87 234.5
t-212 90.5q-128 0 -219 -95.5t-96 -229.5h614z" />
<glyph unicode="f" horiz-adv-x="569" d="M538 1493v-149q-31 5 -76 5q-54 0 -76.5 -25t-22.5 -84v-164h175v-163h-175v-913h-185v913h-150v163h150v199q0 98 73.5 164t191.5 66q55 0 95 -12z" />
<glyph unicode="g" horiz-adv-x="1228" d="M1086 47q0 -262 -128 -390.5t-358 -128.5q-33 0 -66 3t-75 12.5t-79.5 24.5t-74.5 41.5t-63.5 61t-43.5 85t-18 111.5h180q0 -80 68 -125t160 -45q150 0 233.5 83t83.5 253v64q-65 -70 -145.5 -99t-183.5 -29q-84 0 -166.5 36.5t-151 103t-112 171.5t-46.5 230
q0 277 139.5 436t362.5 159q98 0 180 -42t123 -110v130h181v-1036zM905 536q0 180 -82.5 283t-227.5 103q-56 0 -109 -23t-97 -67t-70.5 -116.5t-26.5 -163.5q0 -106 26.5 -189.5t71.5 -132.5t99 -74.5t113 -25.5q132 0 216 107.5t87 298.5z" />
<glyph unicode="h" horiz-adv-x="1147" d="M1012 0h-185v704q0 117 -50 178t-161 61q-61 0 -113.5 -21t-96 -62.5t-68.5 -112t-25 -162.5v-585h-185v1479h185v-547q55 85 147 128t187 47q55 0 104 -10.5t98 -38t84 -70.5t57 -112.5t22 -159.5v-716z" />
<glyph unicode="i" horiz-adv-x="460" d="M318 1271h-185v203h185v-203zM318 0h-185v1076h185v-1076z" />
<glyph unicode="j" horiz-adv-x="543" d="M405 -185q0 -106 -70 -175t-200 -69q-59 0 -92 7v157q41 -10 83 -10q51 0 72.5 29t21.5 101v1221h185v-1261zM405 1271h-185v208h185v-208z" />
<glyph unicode="k" horiz-adv-x="1029" d="M1029 0h-230l-356 526l-130 -128v-398h-185v1479h185v-860l460 457h232l-429 -412z" />
<glyph unicode="l" horiz-adv-x="460" d="M320 0h-187v1479h187v-1479z" />
<glyph unicode="m" horiz-adv-x="1711" d="M1586 0h-185v695q0 248 -199 248q-108 0 -177 -78t-74 -211v-654h-185v742q0 84 -42 142.5t-131 58.5q-53 0 -99.5 -18.5t-87 -58t-65 -112t-26.5 -169.5v-585h-185v1076h171v-152q57 89 144 135t186 46q113 0 179.5 -46t109.5 -127q46 72 131 122.5t198 50.5
q42 0 84 -8.5t89 -33.5t82 -63.5t58.5 -105t23.5 -152.5v-742z" />
<glyph unicode="n" horiz-adv-x="1147" d="M1012 0h-185v673q0 61 -10 107.5t-33 84.5t-65.5 58t-102.5 20q-130 0 -216.5 -88.5t-86.5 -240.5v-614h-185v1076h175v-156q15 24 43.5 52.5t72 60t104 52t124.5 20.5q166 0 265.5 -96t99.5 -293v-716z" />
<glyph unicode="o" horiz-adv-x="1147" d="M1081 538q0 -112 -34.5 -213t-97.5 -179.5t-159.5 -126t-213.5 -50.5q-94 0 -175 30.5t-140.5 84t-102 125t-64 155.5t-21.5 174q0 155 58 283t174 207t271 79t271.5 -79t175 -207t58.5 -283zM891 538q1 68 -16.5 136t-53.5 129.5t-100 101t-145 41.5q-80 0 -143 -39
t-98.5 -101.5t-53.5 -131t-18 -136.5q0 -81 18 -152.5t54 -130.5t98 -93t143 -34q82 0 143.5 34t97 93.5t53.5 129.5t21 153z" />
<glyph unicode="p" horiz-adv-x="1147" d="M1090 507q-7 -237 -134 -386t-325 -149q-112 3 -190 44t-138 119v-562h-187v1503h166v-152q48 82 139.5 133.5t192.5 51.5q106 0 191 -37t138.5 -97t88.5 -140t48 -161.5t10 -166.5zM901 538q0 187 -76 300t-216 113q-160 -6 -236.5 -114t-76.5 -301q0 -69 15.5 -135
t48.5 -128.5t95 -101t145 -38.5q143 0 222 103.5t79 301.5z" />
<glyph unicode="q" horiz-adv-x="1147" d="M45 507q0 85 14 166t48.5 161.5t87 140t136.5 97t190 37.5q103 0 186 -42.5t130 -123.5l16 133h166v-1503h-185v562q-62 -78 -140 -119t-189 -44q-201 0 -328 143.5t-132 391.5zM235 538q0 -198 80 -301.5t223 -103.5q66 0 119 26t86.5 67t55.5 95.5t31 107.5t9 107
q0 404 -313 415q-140 0 -215.5 -113t-75.5 -300z" />
<glyph unicode="r" horiz-adv-x="683" d="M609 913q-154 0 -250 -71.5t-96 -196.5v-645h-185v1076h178v-182q94 206 353 206v-187z" />
<glyph unicode="s" horiz-adv-x="1029" d="M960 325q0 -155 -113.5 -256.5t-310.5 -101.5q-97 0 -176 20.5t-142.5 64.5t-101.5 118.5t-45 175.5h178q0 -220 287 -220q101 0 172.5 43t71.5 125q0 44 -23 70t-102 55t-247 69q-48 12 -81.5 22.5t-78 32.5t-72 49t-47.5 71.5t-20 99.5q0 163 114.5 253.5t293.5 90.5
q99 0 175.5 -26t118.5 -63t69.5 -86.5t36 -87.5t10.5 -76h-176q0 88 -64 134t-189 46q-15 0 -30 -1t-42 -5.5t-49 -14.5t-44.5 -26t-35.5 -43t-15 -62q0 -66 62.5 -95.5t267.5 -78.5q23 -5 35 -8q55 -15 95.5 -30t83.5 -39t70 -53t45 -71.5t19 -95.5z" />
<glyph unicode="t" horiz-adv-x="569" d="M538 128v-152q-57 -12 -95 -12q-118 0 -191.5 67t-73.5 163v719h-140v163h140v304h185v-304h175v-163h-175v-681q0 -59 22.5 -85t76.5 -26q33 0 76 7z" />
<glyph unicode="u" horiz-adv-x="1147" d="M116 1076h187v-673q0 -61 10 -107.5t33 -84.5t65.5 -58t102.5 -20q129 0 216.5 89t87.5 240v614h185v-1076h-178v156q-14 -24 -43 -52.5t-72 -59.5t-104 -51.5t-125 -20.5q-166 0 -265.5 95.5t-99.5 292.5v716z" />
<glyph unicode="v" horiz-adv-x="1029" d="M988 1076l-410 -1076h-194l-391 1076h206l294 -882l301 882h194z" />
<glyph unicode="w" horiz-adv-x="1489" d="M1458 1076l-311 -1076h-189l-216 832l-216 -832h-189l-309 1076h197l204 -848l220 848h202l211 -848l216 848h180z" />
<glyph unicode="x" horiz-adv-x="1029" d="M1007 0h-232l-265 405l-261 -405h-228l380 555l-361 521h233l248 -381l252 381h218l-363 -524z" />
<glyph unicode="y" horiz-adv-x="1029" d="M1007 1076q-166 -472 -314.5 -865.5t-182.5 -461.5q-66 -133 -149 -171.5t-235 -4.5v166q35 -13 63.5 -18.5t60 -3t58 22t45.5 56.5l74 171l-403 1109h204l293 -879l292 879h194z" />
<glyph unicode="z" horiz-adv-x="1029" d="M965 0h-901v140l647 784h-597v152h829v-149l-642 -780h664v-147z" />
</font>
</defs>
</svg>
