<?xml version="1.0" encoding="utf-8"?>
<!-- Generator: Adobe Illustrator 15.1.0, SVG Export Plug-In . SVG Version: 6.00 Build 0)  -->
<!DOCTYPE svg PUBLIC "-//W3C//DTD SVG 1.1//EN" "http://www.w3.org/Graphics/SVG/1.1/DTD/svg11.dtd">
<svg version="1.1" id="Layer_1" xmlns="http://www.w3.org/2000/svg" xmlns:xlink="http://www.w3.org/1999/xlink" x="0px" y="0px"
	 width="450px" height="450px" viewBox="0 0 450 450" enable-background="new 0 0 450 450" xml:space="preserve">
<g>
	<path fill="#5B5B5B" d="M224.845,379.741c-6.647,0-13.351-0.429-19.924-1.274c-3.735-0.48-6.884-3.019-8.146-6.567l-9.648-27.133
		c-7-2.203-13.794-5.018-20.294-8.408l-25.994,12.356c-3.399,1.616-7.418,1.187-10.399-1.112
		c-10.559-8.141-20.045-17.627-28.195-28.194c-2.299-2.981-2.729-7.001-1.113-10.4l12.356-25.994
		c-3.392-6.502-6.208-13.296-8.409-20.294l-27.132-9.649c-3.549-1.262-6.087-4.411-6.568-8.146
		c-0.846-6.579-1.274-13.282-1.274-19.924c0-6.641,0.429-13.344,1.274-19.924c0.48-3.736,3.019-6.885,6.568-8.147l27.133-9.648
		c2.201-6.997,5.015-13.791,8.408-20.295l-12.356-25.994c-1.616-3.399-1.187-7.418,1.112-10.399
		c8.144-10.562,17.63-20.049,28.196-28.196c2.98-2.298,6.998-2.729,10.399-1.112l25.994,12.356
		c6.501-3.392,13.295-6.207,20.294-8.408l9.647-27.133c1.262-3.549,4.411-6.088,8.146-6.568c13.148-1.69,26.704-1.69,39.848,0
		c3.736,0.48,6.885,3.02,8.146,6.568l9.649,27.135c6.999,2.202,13.791,5.016,20.294,8.408l25.996-12.357
		c3.398-1.615,7.418-1.187,10.398,1.112c10.56,8.141,20.046,17.627,28.196,28.195c2.299,2.981,2.729,7,1.112,10.4l-12.357,25.996
		c3.393,6.504,6.207,13.296,8.408,20.293l27.133,9.649c3.549,1.262,6.087,4.411,6.567,8.146c0.847,6.578,1.275,13.281,1.275,19.924
		c0,6.644-0.429,13.347-1.275,19.924c-0.48,3.735-3.019,6.884-6.567,8.146l-27.133,9.65c-2.201,6.998-5.017,13.791-8.408,20.293
		l12.357,25.995c1.616,3.399,1.187,7.419-1.112,10.399c-8.147,10.564-17.634,20.052-28.195,28.196
		c-2.98,2.3-7.002,2.728-10.399,1.112l-25.996-12.357c-6.505,3.394-13.297,6.207-20.294,8.407l-9.647,27.132
		c-1.262,3.55-4.41,6.088-8.146,6.568C238.198,379.312,231.494,379.741,224.845,379.741z M213.51,359.27
		c7.539,0.626,15.135,0.626,22.671,0l9.252-26.021c1.102-3.1,3.656-5.458,6.833-6.31c8.838-2.368,17.338-5.89,25.266-10.467
		c2.849-1.646,6.323-1.783,9.293-0.371l24.937,11.854c5.782-4.888,11.149-10.254,16.037-16.038l-11.854-24.936
		c-1.412-2.97-1.273-6.445,0.371-9.294c4.575-7.923,8.098-16.423,10.47-25.266c0.852-3.176,3.21-5.729,6.308-6.831l26.021-9.255
		c0.314-3.77,0.473-7.563,0.473-11.334c0-3.771-0.158-7.564-0.473-11.334l-26.021-9.253c-3.098-1.102-5.456-3.656-6.308-6.831
		c-2.371-8.838-5.894-17.339-10.47-25.268c-1.645-2.848-1.783-6.323-0.371-9.293l11.854-24.936
		c-4.889-5.785-10.256-11.152-16.037-16.037l-24.937,11.853c-2.97,1.411-6.444,1.273-9.293-0.372
		c-7.924-4.575-16.425-8.097-25.268-10.469c-3.176-0.852-5.729-3.21-6.831-6.308L236.18,90.73c-7.537-0.628-15.132-0.628-22.669,0
		l-9.252,26.021c-1.102,3.098-3.656,5.457-6.832,6.309c-8.844,2.372-17.346,5.895-25.269,10.469
		c-2.848,1.644-6.323,1.784-9.293,0.371l-24.935-11.853c-5.783,4.888-11.15,10.254-16.037,16.037l11.853,24.934
		c1.412,2.97,1.273,6.445-0.371,9.293c-4.577,7.928-8.099,16.429-10.468,25.267c-0.852,3.176-3.21,5.731-6.309,6.833l-26.022,9.253
		c-0.314,3.771-0.473,7.565-0.473,11.335s0.159,7.563,0.473,11.335l26.02,9.254c3.098,1.102,5.456,3.655,6.308,6.831
		c2.372,8.842,5.895,17.344,10.47,25.267c1.645,2.849,1.783,6.324,0.371,9.294l-11.853,24.935
		c4.889,5.785,10.256,11.151,16.037,16.037l24.935-11.853c2.972-1.413,6.446-1.272,9.293,0.371
		c7.92,4.573,16.422,8.096,25.271,10.471c3.175,0.853,5.728,3.211,6.829,6.308L213.51,359.27z"/>
	<path fill="#5B5B5B" d="M224.846,288.695c-35.354,0-64.117-28.763-64.117-64.117s28.763-64.117,64.117-64.117
		c35.354,0,64.117,28.763,64.117,64.117S260.2,288.695,224.846,288.695z M224.846,176.461c-26.532,0-48.117,21.585-48.117,48.117
		c0,26.532,21.585,48.117,48.117,48.117s48.117-21.585,48.117-48.117C272.963,198.046,251.378,176.461,224.846,176.461z"/>
</g>
</svg>
