<?xml version="1.0" encoding="utf-8"?>
<!-- Generator: Adobe Illustrator 15.1.0, SVG Export Plug-In . SVG Version: 6.00 Build 0)  -->
<!DOCTYPE svg PUBLIC "-//W3C//DTD SVG 1.1//EN" "http://www.w3.org/Graphics/SVG/1.1/DTD/svg11.dtd">
<svg version="1.1" id="Layer_1" xmlns="http://www.w3.org/2000/svg" xmlns:xlink="http://www.w3.org/1999/xlink" x="0px" y="0px"
	 width="450.208px" height="450.208px" viewBox="0 0 450.208 450.208" enable-background="new 0 0 450.208 450.208"
	 xml:space="preserve">
<g>
	<path fill="#5B5B5B" d="M355,377.208H94c-5.523,0-10-4.478-10-10v-116c0-5.522,4.477-10,10-10s10,4.478,10,10v106h241v-106
		c0-5.522,4.478-10,10-10s10,4.478,10,10v116C365,372.73,360.523,377.208,355,377.208z"/>
	<g>
		<rect x="80" y="166.208" fill="#FFFFFF" width="290" height="47"/>
		<path fill="#5B5B5B" d="M370,223.208H80c-5.523,0-10-4.477-10-10v-47c0-5.523,4.477-10,10-10h290c5.522,0,10,4.477,10,10v47
			C380,218.731,375.523,223.208,370,223.208z M90,203.208h270v-27H90V203.208z"/>
	</g>
	<path fill="#5B5B5B" d="M369.517,176.719c-3.243,0-6.425-1.576-8.349-4.483l-52.946-80.027H144.309l-55.414,79.25
		c-3.165,4.526-9.399,5.629-13.926,2.465c-4.526-3.165-5.629-9.399-2.465-13.926l58.399-83.519c1.871-2.676,4.93-4.27,8.195-4.27
		h174.497c3.356,0,6.488,1.684,8.34,4.482l55.912,84.51c3.048,4.606,1.784,10.81-2.822,13.857
		C373.328,176.181,371.412,176.719,369.517,176.719z"/>
	<path fill="#5B5B5B" d="M274,302.208h-98c-4.418,0-8-3.582-8-8v-35c0-4.418,3.582-8,8-8h98c4.418,0,8,3.582,8,8v35
		C282,298.625,278.418,302.208,274,302.208z M184,286.208h82v-19h-82V286.208z"/>
</g>
</svg>
