<?xml version="1.0" encoding="utf-8"?>
<!-- Generator: Adobe Illustrator 15.1.0, SVG Export Plug-In . SVG Version: 6.00 Build 0)  -->
<!DOCTYPE svg PUBLIC "-//W3C//DTD SVG 1.1//EN" "http://www.w3.org/Graphics/SVG/1.1/DTD/svg11.dtd">
<svg version="1.1" id="Layer_1" xmlns="http://www.w3.org/2000/svg" xmlns:xlink="http://www.w3.org/1999/xlink" x="0px" y="0px"
	 width="450px" height="450px" viewBox="0 0 450 450" enable-background="new 0 0 450 450" xml:space="preserve">
<g>
	<g>
		<polygon fill="#FFFFFF" points="360.876,83 248.514,83 80.134,248.24 194.28,364.244 360.876,193.415 		"/>
		<path fill="#5B5B5B" d="M194.28,374.244c-2.68,0-5.248-1.075-7.128-2.986L73.006,255.254c-1.862-1.892-2.895-4.446-2.872-7.101
			c0.023-2.655,1.101-5.191,2.995-7.051l168.38-165.24c1.869-1.835,4.385-2.863,7.004-2.863h112.362c5.522,0,10,4.477,10,10v110.415
			c0,2.609-1.02,5.114-2.841,6.982L201.439,371.226c-1.876,1.925-4.449,3.013-7.137,3.019
			C194.295,374.244,194.287,374.244,194.28,374.244z M94.285,248.364l99.963,101.59l156.628-160.608V93h-98.275L94.285,248.364z"/>
	</g>
	<circle fill="#5B5B5B" cx="305.243" cy="136.501" r="18.611"/>
</g>
</svg>
