<?xml version="1.0" encoding="utf-8"?>
<!-- Generator: Adobe Illustrator 15.1.0, SVG Export Plug-In . SVG Version: 6.00 Build 0)  -->
<!DOCTYPE svg PUBLIC "-//W3C//DTD SVG 1.1//EN" "http://www.w3.org/Graphics/SVG/1.1/DTD/svg11.dtd">
<svg version="1.1" id="Layer_1" xmlns="http://www.w3.org/2000/svg" xmlns:xlink="http://www.w3.org/1999/xlink" x="0px" y="0px"
	 width="449.847px" height="449.847px" viewBox="0 0 449.847 449.847" enable-background="new 0 0 449.847 449.847"
	 xml:space="preserve">
<g>
	<path fill="#5B5B5B" d="M309.554,375.847h-172.63c-3.425,0-6.612-1.753-8.446-4.646l-55.78-88
		c-1.952-3.08-2.073-6.979-0.315-10.174c1.758-3.194,5.115-5.18,8.762-5.18h92.997c3.294,0,6.377,1.622,8.243,4.338l14.193,20.662
		h53.711l14.134-20.648c1.864-2.724,4.952-4.352,8.252-4.352h96.029c3.694,0,7.089,2.037,8.825,5.298
		c1.737,3.261,1.535,7.214-0.525,10.28l-59.148,88C315.996,374.189,312.884,375.847,309.554,375.847z M142.425,355.847h161.802
		l45.705-68h-71.985l-14.134,20.648c-1.864,2.724-4.952,4.352-8.252,4.352h-64.247c-3.294,0-6.377-1.622-8.243-4.338l-14.193-20.662
		H99.322L142.425,355.847z"/>
	<path fill="#5B5B5B" d="M85.145,243.038c-1.068,0-2.154-0.173-3.222-0.536c-5.229-1.778-8.025-7.459-6.246-12.688l51.78-152.188
		c1.379-4.053,5.186-6.779,9.467-6.779h172.63c4.252,0,8.039,2.688,9.44,6.703l53.148,152.167
		c1.821,5.215-0.929,10.917-6.143,12.738c-5.22,1.819-10.918-0.929-12.738-6.143L302.455,90.847h-158.37L94.611,236.255
		C93.195,240.417,89.308,243.038,85.145,243.038z"/>
</g>
</svg>
